<svg xmlns="http://www.w3.org/2000/svg" xmlns:xlink="http://www.w3.org/1999/xlink" version="1.1"><metadata>Created by FontForge 20161003 at Tue Jul 10 15:50:09 2018 By www-data Copyright 2016 The Jura Font Project Authors</metadata><defs><font id="JuraSemiBold_woff" horiz-adv-x="622"><font-face x-height="494" ascent="800" bbox="-725 -220 1277.35 1080" cap-height="636" descent="-200" font-family="JuraSemiBold_woff" font-stretch="normal" font-weight="600" panose-1="0 0 7 0 0 0 0 0 0 0" underline-position="-200" underline-thickness="50" unicode-range="U+000D-FB02" units-per-em="1000"/><glyph d="M505.5 689.5q10.5 -10.5 10.5 -30.5v-28q0 -20 -11 -31.5t-30 -11.5h-26q-15 0 -25 6l-122 34q-65 0 -90 -24.5t-25 -90.5v-19h277q17 0 26.5 -9.5t9.5 -26.5q0 -7 -1 -10v-412q0 -17 -9.5 -26.5t-26.5 -9.5t-26.5 9.5t-9.5 26.5v386h-240v-386q0 -17 -9.5 -26.5 t-26.5 -9.5t-26.5 9.5t-9.5 26.5v386h-39q-17 0 -26.5 9.5t-9.5 26.5t9.5 26.5t26.5 9.5h39v19q0 96 45.5 141.5t141.5 45.5h173q20 0 30.5 -10.5z" glyph-name="fi" horiz-adv-x="598" unicode="fi"/><glyph d="M600.5 63.5q8.5 -8.5 8.5 -27.5q0 -17 -9.5 -26.5t-26.5 -9.5q-74 0 -110 36t-36 110v482h-125q-45 0 -69.5 -10.5t-35 -35t-10.5 -69.5v-19h110q17 0 26.5 -9.5t9.5 -26.5t-9.5 -26.5t-26.5 -9.5h-110v-386q0 -17 -9.5 -26.5t-26.5 -9.5t-26.5 9.5t-9.5 26.5v386h-39 q-17 0 -26.5 9.5t-9.5 26.5t9.5 26.5t26.5 9.5h39v19q0 96 45.5 141.5t141.5 45.5h161q17 0 26.5 -9.5t9.5 -26.5v-518q0 -44 15 -59t59 -15q19 0 27.5 -8.5z" glyph-name="fl" horiz-adv-x="649" unicode="fl"/><glyph d="M636.5 484.5q9.5 -9.5 9.5 -26.5t-9.5 -26.5t-26.5 -9.5h-111v-386q0 -17 -9.5 -26.5t-26.5 -9.5t-26.5 9.5t-9.5 26.5v386h-240v-386q0 -17 -9.5 -26.5t-26.5 -9.5t-26.5 9.5t-9.5 26.5v386h-39q-17 0 -26.5 9.5t-9.5 26.5t9.5 26.5t26.5 9.5h39v19q0 96 45.5 141.5 t141.5 45.5q32 0 32 -36q0 -17 -8.5 -26.5t-23.5 -9.5q-65 0 -90 -24.5t-25 -90.5v-19h240v19q0 96 45.5 141.5t141.5 45.5q32 0 32 -36q0 -17 -8.5 -26.5t-23.5 -9.5q-65 0 -90 -24.5t-25 -90.5v-19h111q17 0 26.5 -9.5z" glyph-name="f_f" horiz-adv-x="676" unicode="ff"/><glyph d="M369 700v-900h-285v900h285zM300 640h-149v-30h59v-33h-60v-30h150v30h-60v33h60v30zM240 524h-90v-94h150v31h-60v63zM210 493v-32h-30v32h30zM300 406h-150v-30h60v-33h-60v-30h90v63h60v30zM300 352h-30v-60h-120v-30h150v90zM300 242h-90v-50h30v20h30v-42h-90v72 h-30v-102h150v102zM300 86h-150v-102h150v102zM270 57v-43h-90v43h90zM300 -36h-150v-30h63l-63 -42v-30h150v30h-92l63 42h29v30z" glyph-name=".notdef" horiz-adv-x="450"/><glyph glyph-name=".null" horiz-adv-x="0"/><glyph glyph-name="nonmarkingreturn" horiz-adv-x="290"/><glyph glyph-name="NULL" horiz-adv-x="0"/><glyph glyph-name="NULL" horiz-adv-x="0"/><glyph glyph-name="space" horiz-adv-x="290"/><glyph d="M91 172v493q0 36 36 36t36 -36v-493q0 -36 -36 -36t-36 36zM89.5 9.5q-9.5 9.5 -9.5 26.5v23q0 35 36 35h22q34 0 34 -35v-23q0 -17 -9 -26.5t-25 -9.5h-22q-17 0 -26.5 9.5z" glyph-name="exclam" horiz-adv-x="252" unicode="!"/><glyph d="M89 462q-9 9 -9 22v204q0 13 9 22t22 9t22 -9t9 -22v-204q0 -13 -9 -22t-22 -9t-22 9zM229 462q-9 9 -9 22v204q0 13 9 22t22 9t22 -9t9 -22v-204q0 -13 -9 -22t-22 -9t-22 9z" glyph-name="quotedbl" horiz-adv-x="362" unicode="&quot;"/><glyph d="M100 0q-9 9 -9 22q0 6 1 9l48 171h-69q-13 0 -22 9t-9 22t9 22t22 9h86l39 138h-69q-13 0 -22 9t-9 22t9 22t22 9h86l49 177q2 10 11 16.5t19 6.5q13 0 22 -9t9 -22q0 -6 -1 -9l-45 -160h116l49 177q2 10 11 16.5t19 6.5q13 0 22 -9t9 -22q0 -6 -1 -9l-45 -160h97 q13 0 22 -9t9 -22t-9 -22t-22 -9h-114l-38 -138h96q13 0 22 -9t9 -22t-9 -22t-22 -9h-114l-52 -188q-2 -10 -11 -16.5t-19 -6.5q-13 0 -22 9t-9 22q0 6 1 9l48 171h-116l-52 -188q-2 -10 -11 -16.5t-19 -6.5q-13 0 -22 9zM222 264h115l39 138h-116z" glyph-name="numbersign" horiz-adv-x="605" unicode="#"/><glyph d="M535.5 317.5q44.5 -44.5 44.5 -136.5t-44.5 -136.5t-136.5 -44.5h-37v-57q0 -31 -31 -31t-31 31v57h-39q-93 0 -137 44.5t-44 136.5q0 15 10.5 25.5t25.5 10.5t25.5 -10.5t10.5 -25.5q0 -43 10 -66t33.5 -33t65.5 -10h39v218h-24q-88 0 -130.5 42t-42.5 130t42 130 t130 42h30v70q0 31 31 31t31 -31v-70h29q88 0 130 -42t42 -129q0 -15 -10.5 -25.5t-25.5 -10.5t-25.5 10.5t-10.5 25.5q0 57 -21 78t-79 21h-29v-200h32q92 0 136.5 -44.5zM196.5 383q21.5 -21 79.5 -21h29v200h-30q-58 0 -79 -21t-21 -79t21.5 -79zM464.5 82 q23.5 10 33.5 33t10 66t-10 66t-33.5 33t-65.5 10h-37v-218h37q42 0 65.5 10z" glyph-name="dollar" horiz-adv-x="660" unicode="$"/><glyph d="M157.5 -3.5q-10.5 10.5 -10.5 25.5q0 12 7 22l461 610q12 15 29 15q15 0 25.5 -10.5t10.5 -25.5q0 -11 -7 -22l-461 -610q-12 -15 -29 -15q-15 0 -25.5 10.5zM94 348q-34 34 -34 104v75q0 70 34 104t104 34h16q70 0 104 -34t34 -104v-74q0 -70 -34 -104.5t-104 -34.5h-16 q-70 0 -104 34zM214 382q41 0 55.5 14.5t14.5 56.5v74q0 41 -14.5 55.5t-55.5 14.5h-16q-41 0 -55.5 -14t-14.5 -56v-75q0 -41 14.5 -55.5t55.5 -14.5h16zM514 34q-34 34 -34 104v75q0 70 34 104t104 34h16q70 0 104 -34t34 -104v-74q0 -70 -34 -104.5t-104 -34.5h-16 q-70 0 -104 34zM634 68q41 0 55.5 14.5t14.5 56.5v74q0 41 -14.5 55.5t-55.5 14.5h-16q-41 0 -55.5 -14t-14.5 -56v-75q0 -41 14.5 -55.5t55.5 -14.5h16z" glyph-name="percent" horiz-adv-x="832" unicode="%"/><glyph d="M616 55q0 -14 -11 -25q-12 -14 -26 -14q-12 0 -25 11l-54 48q-24 -46 -71 -68t-120 -22h-32q-112 0 -164.5 52.5t-52.5 164.5q0 75 23 122.5t71 70.5q-13 21 -18.5 43t-5.5 50q0 81 39 120.5t120 39.5h25q71 0 109.5 -29.5t47.5 -91.5q2 -18 -7.5 -28t-27.5 -10 q-17 0 -25.5 8.5t-12.5 26.5q-5 30 -24 41t-60 11h-25q-50 0 -68.5 -18t-18.5 -70q0 -32 12.5 -53t52.5 -57l187 -166v31q0 17 9.5 26.5t26.5 9.5t26.5 -9.5t9.5 -26.5v-41q0 -27 -3 -51l79 -70q14 -11 14 -26zM399.5 72.5q31.5 15.5 44.5 52.5l-225 199l-17 15l-12 -6 q-31 -14 -44.5 -44.5t-13.5 -86.5t13.5 -87t44.5 -44.5t87 -13.5h32q59 0 90.5 15.5z" glyph-name="ampersand" horiz-adv-x="636" unicode="&amp;"/><glyph d="M89 462q-9 9 -9 22v204q0 13 9 22t22 9t22 -9t9 -22v-204q0 -13 -9 -22t-22 -9t-22 9z" glyph-name="quotesingle" horiz-adv-x="222" unicode="'"/><glyph d="M104.5 -117q-44.5 54 -44.5 171v385q0 122 44.5 178.5t140.5 56.5q13 0 22 -9t9 -22t-9 -22t-22 -9q-46 0 -72.5 -16.5t-38.5 -53.5t-12 -103v-385q0 -62 12 -97.5t38.5 -50.5t72.5 -15q13 0 22 -9t9 -22t-9 -22t-22 -9q-96 0 -140.5 54z" glyph-name="parenleft" horiz-adv-x="286" unicode="("/><glyph d="M19 -162q-9 9 -9 22t9 22t22 9q46 0 72.5 15t38.5 50.5t12 97.5v385q0 66 -12 103t-38.5 53.5t-72.5 16.5q-13 0 -22 9t-9 22t9 22t22 9q96 0 140.5 -56.5t44.5 -178.5v-385q0 -117 -44.5 -171t-140.5 -54q-13 0 -22 9z" glyph-name="parenright" horiz-adv-x="286" unicode=")"/><glyph d="M327 440q0 -9 -6 -18q-9 -16 -24 -16q-9 0 -18 5l-50 29v-58q0 -31 -31 -31t-31 31v57l-49 -28q-9 -5 -18 -5q-16 0 -25 16q-5 8 -5 17q0 17 17 25l50 29l-50 29q-17 9 -17 25q0 10 5 17q9 16 25 16q9 0 18 -5l49 -28v57q0 31 31 31t31 -31v-58l50 29q9 5 18 5 q15 0 24 -16q6 -9 6 -18q0 -15 -17 -24l-50 -29l50 -29q17 -9 17 -24z" glyph-name="asterisk" horiz-adv-x="397" unicode="*"/><glyph d="M511 327q0 -31 -31 -31h-152v-155q0 -31 -31 -31t-31 31v155h-155q-31 0 -31 31t31 31h155v152q0 31 31 31t31 -31v-152h152q31 0 31 -31z" glyph-name="plus" horiz-adv-x="591" unicode="+"/><glyph d="M158 36q0 -10 -3 -18l-55 -115q-10 -20 -29 -20q-14 0 -24 8t-7 23l26 148q2 32 36 32h22q34 0 34 -35v-23z" glyph-name="comma" horiz-adv-x="238" unicode=","/><glyph d="M89 248q-9 9 -9 22t9 22t22 9h276q13 0 22 -9t9 -22t-9 -22t-22 -9h-276q-13 0 -22 9z" glyph-name="hyphen" horiz-adv-x="498" unicode="-"/><glyph d="M89.5 9.5q-9.5 9.5 -9.5 26.5v23q0 35 36 35h22q34 0 34 -35v-23q0 -17 -9 -26.5t-25 -9.5h-22q-17 0 -26.5 9.5z" glyph-name="period" horiz-adv-x="252" unicode="."/><glyph d="M50 -138q-10 9 -10 24q0 3 2 13l205 797q7 28 35 28q17 0 26.5 -8.5t9.5 -23.5q0 -9 -2 -14l-204 -797q-7 -28 -35 -28q-17 0 -27 9z" glyph-name="slash" horiz-adv-x="329" unicode="/"/><glyph d="M133 53q-53 53 -53 165v230q0 113 53 165.5t165 51.5h60q113 0 165.5 -52.5t52.5 -165.5v-229q0 -112 -52.5 -165t-165.5 -53h-60q-112 0 -165 53zM358 72q56 0 87.5 13.5t45 45t13.5 87.5v229q0 56 -13.5 87.5t-45 45t-87.5 13.5h-60q-56 1 -87.5 -12.5t-45 -45 t-13.5 -87.5v-230q0 -56 13.5 -87.5t45 -45t87.5 -13.5h60zM292.5 296.5q-9.5 9.5 -9.5 26.5v23q0 35 36 35h22q34 0 34 -35v-23q0 -17 -9 -26.5t-25 -9.5h-22q-17 0 -26.5 9.5z" glyph-name="zero" horiz-adv-x="656" unicode="0"/><glyph d="M268 655.5q8 -9.5 8 -26.5v-593q0 -17 -9.5 -26.5t-26.5 -9.5q-36 0 -36 36v520l-86 -82q-12 -12 -26 -12q-11 0 -21 10q-11 11 -11 23q0 14 13 26l127 126q11 10 21 14t24 4q15 0 23 -9.5z" glyph-name="one" horiz-adv-x="376" unicode="1"/><glyph d="M95 0q-18 0 -27.5 9t-9.5 27q0 79 30.5 132t73.5 84.5t118 73.5q68 39 97.5 58.5t46.5 43.5t17 58q0 62 -22.5 84.5t-84.5 22.5h-107q-51 0 -75 -16t-30 -55q-5 -35 -37 -35q-18 0 -27 9.5t-8 27.5q9 72 52.5 106.5t124.5 34.5h107q92 0 135.5 -43.5t43.5 -135.5 q0 -53 -25.5 -91.5t-62.5 -64t-110 -66.5q-65 -37 -97 -59t-55.5 -54.5t-29.5 -78.5h341q36 0 36 -36t-36 -36h-379z" glyph-name="two" horiz-adv-x="572" unicode="2"/><glyph d="M114 37q-46 37 -54 114q-1 18 8 27.5t27 9.5q33 0 37 -36q6 -45 32 -62.5t83 -17.5h114q46 0 71 10.5t35.5 35.5t10.5 70t-10.5 70t-35.5 35.5t-71 10.5h-83q-17 0 -26.5 9.5t-9.5 26.5t9.5 26.5t26.5 9.5h112q39 0 55.5 27.5t16.5 82.5q0 62 -22.5 84.5t-84.5 22.5h-97 q-52 0 -75.5 -16t-28.5 -55q-6 -35 -38 -35q-18 0 -27 9.5t-8 27.5q9 72 52.5 106.5t124.5 34.5h97q92 0 135.5 -43.5t43.5 -135.5q0 -96 -59 -134q75 -41 75 -164q0 -97 -46 -142.5t-143 -45.5h-114q-87 0 -133 37z" glyph-name="three" horiz-adv-x="630" unicode="3"/><glyph d="M543.5 203q9.5 -10 9.5 -26q0 -17 -9.5 -26.5t-26.5 -9.5h-55v-105q0 -36 -36 -36q-17 0 -26.5 9.5t-9.5 26.5v105h-314q-17 0 -26.5 9.5t-9.5 26.5q0 19 15 38l322 428q10 13 21 17.5t28 4.5q38 0 38 -36l-1 -416h54q17 0 26.5 -10zM133 212l258 1l1 345z" glyph-name="four" horiz-adv-x="593" unicode="4"/><glyph d="M134 37q-46 37 -54 114q-1 18 8 27.5t27 9.5q33 0 37 -36q6 -45 32 -62.5t83 -17.5h104q46 0 71 11t35.5 36t10.5 70v69q0 45 -11 70t-36 36t-70 11h-74q-80 0 -115 -23q-19 -14 -34 -14q-9 0 -14 2l-8 2q-31 9 -31 40v247q0 17 9.5 26.5t26.5 9.5h391q36 0 36 -36 t-36 -36h-355v-167q51 21 130 21h74q97 0 143 -46t46 -143v-69q0 -97 -46 -143t-143 -46h-104q-87 0 -133 37z" glyph-name="five" horiz-adv-x="640" unicode="5"/><glyph d="M126 45.5q-46 45.5 -46 142.5v298q0 92 44 135.5t135 43.5h124q81 0 125 -34.5t52 -106.5q2 -18 -7.5 -27.5t-27.5 -9.5q-32 0 -37 35q-6 40 -29.5 55.5t-75.5 15.5h-124q-61 0 -84 -22.5t-23 -84.5v-94q36 53 117 53h104q97 0 143 -46t46 -143v-67q0 -97 -46 -143 t-143 -46h-104q-97 0 -143 45.5zM373 72q45 0 70 11t36 36t11 70v67q0 45 -11 70t-36 36t-70 11h-104q-46 0 -71 -10.5t-35.5 -35.5t-10.5 -70v-69q0 -45 10.5 -70t35.5 -35.5t71 -10.5h104z" glyph-name="six" horiz-adv-x="642" unicode="6"/><glyph d="M158.5 9.5q-9.5 9.5 -9.5 27.5q2 102 16 165t45 106.5t88 83.5q49 37 72 83.5t27 117.5h-321q-17 0 -26.5 9.5t-9.5 26.5t9.5 26.5t26.5 9.5h358q17 0 26.5 -9.5t9.5 -26.5q0 -105 -30.5 -174.5t-99.5 -120.5q-47 -33 -71.5 -67t-35 -87t-12.5 -143q0 -18 -9.5 -27.5 t-26.5 -9.5t-26.5 9.5z" glyph-name="seven" horiz-adv-x="510" unicode="7"/><glyph d="M572 188q0 -97 -46 -142.5t-143 -45.5h-114q-97 0 -143 45.5t-46 142.5q0 116 87 159q-66 47 -66 141q0 90 44 133.5t135 43.5h97q91 0 135 -43.5t44 -133.5q0 -97 -68 -143q84 -43 84 -157zM196 570.5q-23 -22.5 -23 -82.5q0 -63 21.5 -87.5t74.5 -24.5h114 q59 0 80 26.5t21 85.5q0 60 -23 82.5t-84 22.5h-97q-61 0 -84 -22.5zM454 82.5q25 10.5 35.5 35.5t10.5 70t-10.5 70t-35.5 35.5t-71 10.5h-114q-46 0 -71 -10.5t-35.5 -35.5t-10.5 -70t10.5 -70t35.5 -35.5t71 -10.5h114q46 0 71 10.5z" glyph-name="eight" horiz-adv-x="652" unicode="8"/><glyph d="M516 619.5q46 -45.5 46 -142.5v-298q0 -91 -43.5 -135t-135.5 -44h-124q-81 0 -125 34.5t-52 106.5q-2 18 7.5 27.5t27.5 9.5q32 0 37 -35q6 -40 29.5 -55.5t75.5 -15.5h124q62 0 84.5 23t22.5 84v94q-36 -53 -117 -53h-104q-97 0 -143 46t-46 143v67q0 97 46 143t143 46 h104q97 0 143 -45.5zM269 593q-45 0 -70 -11t-36 -36t-11 -70v-67q0 -45 11 -70t36 -36t70 -11h104q46 0 71 10.5t35.5 35.5t10.5 70v69q0 45 -10.5 70t-35.5 35.5t-71 10.5h-104z" glyph-name="nine" horiz-adv-x="642" unicode="9"/><glyph d="M89.5 9.5q-9.5 9.5 -9.5 26.5v23q0 35 36 35h22q34 0 34 -35v-23q0 -17 -9 -26.5t-25 -9.5h-22q-17 0 -26.5 9.5zM89.5 339.5q-9.5 9.5 -9.5 26.5v23q0 35 36 35h22q34 0 34 -35v-23q0 -17 -9 -26.5t-25 -9.5h-22q-17 0 -26.5 9.5z" glyph-name="colon" horiz-adv-x="252" unicode=":"/><glyph d="M158 36q0 -10 -3 -18l-55 -115q-10 -20 -29 -20q-14 0 -24 8t-7 23l26 148q2 32 36 32h22q34 0 34 -35v-23zM75.5 339.5q-9.5 9.5 -9.5 26.5v23q0 35 36 35h22q34 0 34 -35v-23q0 -17 -9 -26.5t-25 -9.5h-22q-17 0 -26.5 9.5z" glyph-name="semicolon" horiz-adv-x="238" unicode=";"/><glyph d="M474 160q0 -10 -5 -18q-8 -17 -25 -17q-10 0 -19 5l-286 161q-22 12 -22 38q0 22 22 34l286 159q11 6 19 6q16 0 25 -18q5 -7 5 -18q0 -16 -17 -26l-252 -139l252 -141q17 -10 17 -26z" glyph-name="less" horiz-adv-x="591" unicode="&lt;"/><glyph d="M80 389q0 31 31 31h369q31 0 31 -31t-31 -31h-369q-31 0 -31 31zM80 261q0 31 31 31h369q31 0 31 -31t-31 -31h-369q-31 0 -31 31z" glyph-name="equal" horiz-adv-x="591" unicode="="/><glyph d="M473 329q0 -26 -22 -38l-286 -161q-9 -5 -19 -5q-16 0 -25 17q-5 8 -5 18q0 16 17 26l252 141l-252 139q-17 10 -17 26q0 11 5 18q9 18 25 18q8 0 19 -6l286 -159q22 -12 22 -34z" glyph-name="greater" horiz-adv-x="591" unicode="&gt;"/><glyph d="M196 192q0 49 16 82t37 50.5t53 36.5q28 17 41.5 28.5t21.5 30t8 49.5q0 62 -22.5 84.5t-84.5 22.5h-67q-61 0 -84 -23t-23 -84q0 -36 -36 -36t-36 36q0 91 44 135t135 44h67q92 0 135.5 -43.5t43.5 -135.5q0 -49 -16 -82t-37 -50.5t-53 -36.5q-28 -17 -41.5 -28.5 t-21.5 -30t-8 -49.5q0 -36 -36 -36t-36 36zM195.5 9.5q-9.5 9.5 -9.5 26.5v23q0 35 36 35h22q34 0 34 -35v-23q0 -17 -9 -26.5t-25 -9.5h-22q-17 0 -26.5 9.5z" glyph-name="question" horiz-adv-x="504" unicode="?"/><glyph d="M236 -10q-82 -1 -119 37.5t-37 122.5v253q0 84 37 122.5t119 37.5h260q83 0 120 -38t37 -123v-189q0 -49 -24.5 -71t-77.5 -22q-33 0 -53 11t-31 40q-20 -30 -49 -41.5t-71 -11.5h-7q-68 0 -100.5 32t-32.5 100v39q0 70 32 102.5t100 32.5h41q26 0 43.5 -7t31.5 -27 q6 34 26 34q13 0 22 -9t9 -22v-180q0 -15 2.5 -21t10 -8t26.5 -2t27 2t10.5 8t2.5 21v189q0 40 -8 61t-28 29.5t-59 8.5h-260q-38 1 -58 -7.5t-28 -29.5t-8 -61v-253q0 -40 8 -61t28 -29.5t58 -7.5h275q28 0 46 6t37 22q9 7 20 7q13 0 22 -9t9 -22q0 -15 -11 -24 q-26 -22 -56 -32t-67 -10h-275zM347 180q53 0 78 17t25 53v38q0 31 -5.5 46.5t-20 21.5t-44.5 6h-41q-29 0 -43.5 -6t-20.5 -21t-6 -46v-39q0 -42 14.5 -56t56.5 -14h7z" glyph-name="at" horiz-adv-x="733" unicode="@"/><glyph d="M611 34q0 -21 -23 -30q-9 -4 -18 -4q-20 0 -29 23l-59 141h-317l-57 -141q-9 -23 -30 -23q-9 0 -17 4q-24 9 -24 30q0 9 4 17l241 586q12 28 41 28h2q27 0 39 -28l243 -586q4 -8 4 -17zM194 236h258l-131 315z" glyph-name="A" horiz-adv-x="646" unicode="A"/><glyph d="M593 215v-33q0 -89 -47 -135.5t-136 -46.5h-274q-17 0 -26.5 9.5t-9.5 26.5v593q0 17 9.5 26.5t26.5 9.5h261q77 0 118 -40t41 -116v-27q0 -70 -45 -107q82 -41 82 -160zM172 396h238h6h2q34 0 50 23t16 63v27q0 46 -20 65t-67 19h-225v-197zM521 215q0 59 -25.5 84 t-85.5 25h-238v-252h238q59 0 85 25.5t26 84.5v33z" glyph-name="B" horiz-adv-x="653" unicode="B"/><glyph d="M133 53q-53 53 -53 165v229q0 113 52.5 166t164.5 52h121q93 0 141 -38.5t55 -122.5q2 -18 -7.5 -27.5t-27.5 -9.5q-32 0 -37 36q-5 51 -32.5 70.5t-91.5 19.5h-121q-55 1 -86.5 -12.5t-45 -45.5t-13.5 -88v-229q0 -56 13.5 -87.5t45 -45t87.5 -13.5h120q64 0 91.5 19.5 t32.5 70.5q5 36 37 36q18 0 27.5 -9.5t7.5 -27.5q-7 -84 -55 -122.5t-141 -38.5h-120q-112 0 -165 53z" glyph-name="C" horiz-adv-x="684" unicode="C"/><glyph d="M109.5 9.5q-9.5 9.5 -9.5 26.5v593q0 17 9.5 26.5t26.5 9.5h241q128 0 188 -60t60 -188v-169q0 -128 -60 -188t-188 -60h-241q-17 0 -26.5 9.5zM377 72q66 0 104 17t55 55t17 104v169q0 66 -17 104t-55 55t-104 17h-205v-521h205z" glyph-name="D" horiz-adv-x="705" unicode="D"/><glyph d="M527.5 62.5q9.5 -9.5 9.5 -26.5t-9.5 -26.5t-26.5 -9.5h-365q-17 0 -26.5 9.5t-9.5 26.5v593q0 17 9.5 26.5t26.5 9.5h365q17 0 26.5 -9.5t9.5 -26.5t-9.5 -26.5t-26.5 -9.5h-329v-221h211q17 0 26.5 -9.5t9.5 -26.5t-9.5 -26.5t-26.5 -9.5h-211v-228h329q17 0 26.5 -9.5 z" glyph-name="E" horiz-adv-x="587" unicode="E"/><glyph d="M109.5 9.5q-9.5 9.5 -9.5 26.5v593q0 17 9.5 26.5t26.5 9.5h365q17 0 26.5 -9.5t9.5 -26.5t-9.5 -26.5t-26.5 -9.5h-329v-221h211q17 0 26.5 -9.5t9.5 -26.5t-9.5 -26.5t-26.5 -9.5h-211v-264q0 -17 -9.5 -26.5t-26.5 -9.5t-26.5 9.5z" glyph-name="F" horiz-adv-x="537" unicode="F"/><glyph d="M133 53q-53 53 -53 165v229q0 113 52.5 166t164.5 52h121q93 0 141 -38.5t55 -122.5q2 -18 -7.5 -27.5t-27.5 -9.5q-32 0 -37 36q-5 51 -32.5 70.5t-91.5 19.5h-121q-55 1 -86.5 -12.5t-45 -45.5t-13.5 -88v-229q0 -56 13.5 -87.5t45 -45t87.5 -13.5h120q50 0 76.5 11 t38 38t11.5 77v53l-90 1q-36 0 -36 36q0 17 9.5 26.5t26.5 9.5l126 -1q17 0 26.5 -9.5t9.5 -26.5v-89q0 -103 -47.5 -150.5t-150.5 -47.5h-120q-112 0 -165 53z" glyph-name="G" horiz-adv-x="686" unicode="G"/><glyph d="M110.5 10.5q-10.5 10.5 -10.5 25.5v593q0 15 10.5 25.5t25.5 10.5t25.5 -10.5t10.5 -25.5v-256h412v256q0 15 10.5 25.5t25.5 10.5t25.5 -10.5t10.5 -25.5v-593q0 -15 -10.5 -25.5t-25.5 -10.5t-25.5 10.5t-10.5 25.5v265h-412v-265q0 -15 -10.5 -25.5t-25.5 -10.5 t-25.5 10.5z" glyph-name="H" horiz-adv-x="756" unicode="H"/><glyph d="M100 36v593q0 36 36 36t36 -36v-593q0 -36 -36 -36t-36 36z" glyph-name="I" horiz-adv-x="272" unicode="I"/><glyph d="M85.5 38.5q-47.5 38.5 -55.5 122.5q-1 18 8 27.5t27 9.5q34 0 37 -36q6 -51 33.5 -70.5t91.5 -19.5h67q50 0 76.5 11t38 38t11.5 77v431q0 36 36 36q17 0 26.5 -9.5t9.5 -26.5v-431q0 -103 -47.5 -150.5t-150.5 -47.5h-67q-94 0 -141.5 38.5z" glyph-name="J" horiz-adv-x="582" unicode="J"/><glyph d="M543 37q0 -15 -15 -27q-11 -10 -24 -10q-15 0 -27 16l-250 310l-55 -57v-233q0 -17 -9.5 -26.5t-26.5 -9.5t-26.5 9.5t-9.5 26.5v593q0 17 9.5 26.5t26.5 9.5t26.5 -9.5t9.5 -26.5v-256l271 279q12 13 26 13q13 0 25 -12t12 -26q0 -13 -12 -25l-216 -224l255 -317 q10 -11 10 -24z" glyph-name="K" horiz-adv-x="573" unicode="K"/><glyph d="M100 36v593q0 36 36 36t36 -36v-557h287q36 0 36 -36t-36 -36h-323q-36 0 -36 36z" glyph-name="L" horiz-adv-x="525" unicode="L"/><glyph d="M717 629v-593q0 -17 -9.5 -26.5t-26.5 -9.5t-26.5 9.5t-9.5 26.5v480l-196 -292q-16 -23 -44 -23q-20 0 -36 23l-197 294v-482q0 -17 -9.5 -26.5t-26.5 -9.5t-26.5 9.5t-9.5 26.5v593q0 17 9.5 26.5t26.5 9.5q24 0 40 -23l234 -354l233 354q16 23 44 23q30 0 30 -36z" glyph-name="M" horiz-adv-x="817" unicode="M"/><glyph d="M627.5 655.5q9.5 -9.5 9.5 -26.5v-593q0 -17 -9.5 -26.5t-26.5 -9.5q-10 0 -18.5 5t-17.5 16l-393 506v-491q0 -17 -9.5 -26.5t-26.5 -9.5t-26.5 9.5t-9.5 26.5v593q0 17 9.5 26.5t26.5 9.5q21 0 36 -21l393 -505v490q0 17 9.5 26.5t26.5 9.5t26.5 -9.5z" glyph-name="N" horiz-adv-x="737" unicode="N"/><glyph d="M133 53q-53 53 -53 165v230q0 113 53 165.5t165 51.5h120q113 0 165.5 -52.5t52.5 -165.5v-229q0 -112 -52.5 -165t-165.5 -53h-120q-112 0 -165 53zM418 72q56 0 87.5 13.5t45 45t13.5 87.5v229q0 56 -13.5 87.5t-45 45t-87.5 13.5h-120q-56 1 -87.5 -12.5t-45 -45 t-13.5 -87.5v-230q0 -56 13.5 -87.5t45 -45t87.5 -13.5h120z" glyph-name="O" horiz-adv-x="716" unicode="O"/><glyph d="M506 618q47 -47 47 -136v-30q0 -89 -47 -136t-136 -47h-198v-233q0 -17 -9.5 -26.5t-26.5 -9.5t-26.5 9.5t-9.5 26.5v593q0 17 9.5 26.5t26.5 9.5h234q89 0 136 -47zM481 482q0 59 -26 85t-85 26h-198v-252h198q59 0 85 26t26 85v30z" glyph-name="P" horiz-adv-x="593" unicode="P"/><glyph d="M640 -36q0 -13 -12 -23t-21 -10q-10 0 -23 11l-68 71q-40 -13 -98 -13h-120q-112 0 -165 53t-53 165v230q0 113 53 165.5t165 51.5h120q113 0 165.5 -52.5t52.5 -165.5v-229q0 -122 -62 -174l56 -59q10 -12 10 -21zM458 74l-32 33q-10 12 -10 22q0 11 11 22q10 10 22 10 q10 0 23 -11l52 -54q21 16 30.5 45.5t9.5 76.5v229q0 56 -13.5 87.5t-45 45t-87.5 13.5h-120q-56 1 -87.5 -12.5t-45 -45t-13.5 -87.5v-230q0 -56 13.5 -87.5t45 -45t87.5 -13.5h120q16 0 40 2z" glyph-name="Q" horiz-adv-x="720" unicode="Q"/><glyph d="M555 28q0 -17 -19 -30q-10 -6 -20 -6q-17 0 -29 18l-157 257l-1 2h-157v-233q0 -17 -9.5 -26.5t-26.5 -9.5t-26.5 9.5t-9.5 26.5v593q0 17 9.5 26.5t26.5 9.5h234q89 0 136 -47t47 -136v-30q0 -78 -36 -123.5t-105 -56.5l137 -225q6 -10 6 -19zM172 341h198q59 0 85 26 t26 85v30q0 59 -26 85t-85 26h-198v-252z" glyph-name="R" horiz-adv-x="613" unicode="R"/><glyph d="M134 37q-46 37 -54 114q-1 18 8 27.5t27 9.5q33 0 37 -36q6 -45 32 -62.5t83 -17.5h144q46 0 71 10.5t35.5 35.5t10.5 70q0 46 -11 71t-36 36t-70 11h-129q-91 0 -135.5 44.5t-44.5 135.5q0 92 44 135.5t135 43.5h127q82 0 125.5 -34.5t51.5 -106.5q2 -18 -7.5 -27.5 t-27.5 -9.5q-17 0 -25.5 8.5t-11.5 26.5q-5 39 -29 55t-76 16h-127q-61 0 -84 -22.5t-23 -84.5q0 -61 23.5 -84.5t84.5 -23.5h129q97 0 143 -46.5t46 -143.5t-46 -142.5t-143 -45.5h-144q-87 0 -133 37z" glyph-name="S" horiz-adv-x="680" unicode="S"/><glyph d="M271.5 9.5q-9.5 9.5 -9.5 26.5v557h-201q-17 0 -26.5 9.5t-9.5 26.5t9.5 26.5t26.5 9.5h474q17 0 26.5 -9.5t9.5 -26.5t-9.5 -26.5t-26.5 -9.5h-201v-557q0 -17 -9.5 -26.5t-26.5 -9.5t-26.5 9.5z" glyph-name="T" horiz-adv-x="596" unicode="T"/><glyph d="M143 53q-53 53 -53 165v411q0 17 9.5 26.5t26.5 9.5t26.5 -9.5t9.5 -26.5v-411q0 -56 13.5 -87.5t45 -45t87.5 -13.5h120q56 0 87.5 13.5t45 45t13.5 87.5v411q0 17 9.5 26.5t26.5 9.5t26.5 -9.5t9.5 -26.5v-411q0 -112 -52.5 -165t-165.5 -53h-120q-112 0 -165 53z" glyph-name="U" horiz-adv-x="736" unicode="U"/><glyph d="M276 27l-252 587q-4 8 -4 18q0 20 23 29q8 4 18 4q20 0 29 -23l227 -528l223 528q9 23 29 23q9 0 18 -4q23 -9 23 -30q0 -9 -4 -17l-253 -587q-13 -27 -38 -27h-4q-23 0 -35 27z" glyph-name="V" horiz-adv-x="630" unicode="V"/><glyph d="M862 631q0 -9 -2 -14l-188 -587q-11 -30 -37 -30h-3q-28 0 -37 30l-156 502l-156 -502q-6 -16 -13.5 -23t-23.5 -7h-2q-13 0 -21 7t-12 23l-188 587q-3 8 -3 15q0 21 26 30q9 3 15 3q21 0 30 -26l159 -499l151 495q9 30 41 30h1q30 0 39 -30l151 -495l159 499q8 26 29 26 q7 0 16 -3q25 -7 25 -31z" glyph-name="W" horiz-adv-x="883" unicode="W"/><glyph d="M57 36q0 9 8 22l190 279l-192 270q-8 13 -8 22q0 16 17 28q13 8 22 8q16 0 28 -17l180 -252l183 252q12 17 27 17q11 0 23 -9q17 -12 17 -27q0 -11 -9 -23l-197 -272l196 -275q8 -13 8 -22q0 -17 -17 -29q-13 -8 -22 -8q-16 0 -28 17l-184 258l-175 -258q-12 -17 -27 -17 q-10 0 -23 8q-17 12 -17 28z" glyph-name="X" horiz-adv-x="607" unicode="X"/><glyph d="M567 629q0 -10 -8 -21l-233 -361v-211q0 -17 -9.5 -26.5t-26.5 -9.5t-26.5 9.5t-9.5 26.5v211l-227 361q-7 11 -7 21q0 17 18 29q11 7 22 7q18 0 28 -18l202 -323l209 323q10 18 27 18q11 0 22 -8q19 -11 19 -28z" glyph-name="Y" horiz-adv-x="587" unicode="Y"/><glyph d="M604.5 148q9.5 -10 7.5 -28q-10 -59 -49.5 -89.5t-106.5 -30.5h-359q-17 0 -26.5 9.5t-9.5 26.5q0 12 15 33l398 524h-269q-37 0 -56.5 -12t-25.5 -40q-4 -17 -12.5 -25.5t-25.5 -8.5q-18 0 -28 10t-7 28q10 59 49 89.5t106 30.5h333q36 0 36 -36q0 -15 -14 -35 l-397 -522h293q38 0 57.5 12t25.5 40q4 17 12.5 25.5t25.5 8.5q18 0 27.5 -10z" glyph-name="Z" horiz-adv-x="662" unicode="Z"/><glyph d="M60 -140v783q0 31 31 31h84q13 0 22 -9t9 -22t-9 -22t-22 -9h-53v-721h53q13 0 22 -9t9 -22t-9 -22t-22 -9h-84q-31 0 -31 31z" glyph-name="bracketleft" horiz-adv-x="216" unicode="["/><glyph d="M217 -119l-204 797q-2 5 -2 14q0 15 9.5 23.5t26.5 8.5q28 0 35 -28l205 -797q2 -10 2 -13q0 -15 -10 -24t-27 -9q-28 0 -35 28z" glyph-name="backslash" horiz-adv-x="329" unicode="\"/><glyph d="M41 -171q-13 0 -22 9t-9 22t9 22t22 9h53v721h-53q-13 0 -22 9t-9 22t9 22t22 9h84q31 0 31 -31v-783q0 -31 -31 -31h-84z" glyph-name="bracketright" horiz-adv-x="216" unicode="]"/><glyph d="M89 417q-9 9 -9 22q0 4 2 12l79 204q11 24 36 24h18q26 0 36 -24l79 -204q2 -8 2 -12q0 -13 -9 -22t-22 -9q-10 0 -18 6t-11 14l-66 170l-66 -170q-3 -8 -11 -14t-18 -6q-13 0 -22 9z" glyph-name="asciicircum" horiz-adv-x="412" unicode="^"/><glyph d="M50 -36q0 36 36 36h253q36 0 36 -36t-36 -36h-253q-36 0 -36 36z" glyph-name="underscore" horiz-adv-x="455" unicode="_"/><glyph d="M160 514q-13 0 -23 13l-78 93q-9 11 -9 22q0 13 13 23q11 9 22 9q13 0 23 -13l78 -93q9 -10 9 -22q0 -13 -13 -23q-10 -9 -22 -9z" glyph-name="grave" horiz-adv-x="245" unicode="`"/><glyph d="M484 448q46 -46 46 -144v-268q0 -17 -9.5 -26.5t-26.5 -9.5t-26.5 9.5t-9.5 26.5v32q-53 -68 -162 -68h-56q-82 0 -121 39t-39 121t39 121t121 39h218q-3 58 -29 80t-89 22h-58q-56 0 -82 -9.5t-35 -32.5q-7 -18 -15 -25t-24 -7t-26 8t-10 21q0 5 1 8q12 56 58.5 82.5 t132.5 26.5h58q98 0 144 -46zM458 165v83h-218q-52 0 -70 -18t-18 -70t18 -70t70 -18h56q137 0 158 81q2 8 4 12z" glyph-name="a" horiz-adv-x="620" unicode="a"/><glyph d="M516 448q46 -46 46 -144v-114q0 -97 -46 -143.5t-144 -46.5h-38q-112 0 -162 58v-22q0 -17 -9.5 -26.5t-26.5 -9.5t-26.5 9.5t-9.5 26.5v628q0 17 9.5 26.5t26.5 9.5t26.5 -9.5t9.5 -26.5v-228q50 58 162 58h38q98 0 144 -46zM490 304q0 46 -11 71t-36 36t-71 11h-38 q-74 0 -118 -20.5t-44 -60.5v-188q0 -40 44 -60.5t118 -20.5h38q46 0 71 11t36 36t11 71v114z" glyph-name="b" horiz-adv-x="642" unicode="b"/><glyph d="M126.5 46.5q-46.5 46.5 -46.5 143.5v115q0 98 46.5 144t143.5 45h82q74 0 115.5 -25t51.5 -77q3 -18 -7 -28t-29 -10q-15 0 -23 8t-14 25q-7 19 -28.5 27t-65.5 8h-82q-46 1 -71 -10t-36 -36t-11 -71v-115q0 -46 11 -71t36 -36t71 -11h82q44 0 65.5 8t28.5 27q6 17 14 25 t24 8q18 0 28 -10t7 -28q-10 -52 -51.5 -77t-115.5 -25h-82q-97 0 -143.5 46.5z" glyph-name="c" horiz-adv-x="580" unicode="c"/><glyph d="M532.5 690.5q9.5 -9.5 9.5 -26.5v-628q0 -17 -9.5 -26.5t-26.5 -9.5t-26.5 9.5t-9.5 26.5v19q-47 -55 -162 -55h-38q-97 0 -143.5 46.5t-46.5 143.5v114q0 98 46.5 144t143.5 46h200v170q0 17 9.5 26.5t26.5 9.5t26.5 -9.5zM426 92.5q44 20.5 44 60.5v269h-200 q-46 0 -71 -11t-36 -36t-11 -71v-114q0 -46 11 -71t36 -36t71 -11h38q74 0 118 20.5z" glyph-name="d" horiz-adv-x="632" unicode="d"/><glyph d="M152 218v-29q0 -45 11 -70t36 -36t71 -11h82q56 0 82 12t33 42q4 17 12.5 25.5t25.5 8.5q18 0 27.5 -9.5t6.5 -27.5q-10 -63 -56 -93t-131 -30h-82q-97 0 -143.5 46t-46.5 143v115q0 98 46.5 144.5t143.5 45.5h82q98 0 144 -46t46 -144v-50q0 -17 -9.5 -26.5t-26.5 -9.5 h-354zM152 290h318v14q0 46 -11 71t-36 36t-71 11h-82q-46 1 -71 -10t-36 -36.5t-11 -71.5v-14z" glyph-name="e" unicode="e"/><glyph d="M324.5 484.5q9.5 -9.5 9.5 -26.5t-9.5 -26.5t-26.5 -9.5h-111v-386q0 -17 -9.5 -26.5t-26.5 -9.5t-26.5 9.5t-9.5 26.5v386h-39q-17 0 -26.5 9.5t-9.5 26.5t9.5 26.5t26.5 9.5h39v19q0 96 45.5 141.5t141.5 45.5q32 0 32 -36q0 -17 -8.5 -26.5t-23.5 -9.5 q-65 0 -90 -24.5t-25 -90.5v-19h111q17 0 26.5 -9.5z" glyph-name="f" horiz-adv-x="364" unicode="f"/><glyph d="M532.5 484.5q9.5 -9.5 9.5 -26.5v-520q0 -71 -33.5 -104.5t-104.5 -33.5h-186q-60 0 -93.5 24.5t-41.5 75.5q-3 18 6.5 28t28.5 10q16 0 23.5 -8t13.5 -27q5 -18 19 -24.5t44 -6.5h186q40 0 53 13t13 53v126q-52 -64 -162 -64h-38q-97 0 -143.5 46t-46.5 143v115 q0 98 46.5 144.5t143.5 45.5h82q79 0 118 -46v10q0 17 9.5 26.5t26.5 9.5t26.5 -9.5zM426 92.5q44 20.5 44 60.5v187q0 45 -29 63.5t-89 18.5h-82q-46 1 -71 -10t-36 -36.5t-11 -71.5v-115q0 -45 11 -70t36 -36t71 -11h38q74 0 118 20.5z" glyph-name="g" horiz-adv-x="632" unicode="g"/><glyph d="M506 448q46 -46 46 -144v-268q0 -17 -9.5 -26.5t-26.5 -9.5t-26.5 9.5t-9.5 26.5v268q0 46 -11 71t-36 36t-71 11h-28q-71 0 -109.5 -20t-48.5 -61q-2 -8 -4 -11v-294q0 -17 -9.5 -26.5t-26.5 -9.5t-26.5 9.5t-9.5 26.5v628q0 17 9.5 26.5t26.5 9.5t26.5 -9.5t9.5 -26.5 v-210q60 40 162 40h28q98 0 144 -46z" glyph-name="h" horiz-adv-x="642" unicode="h"/><glyph d="M109.5 9.5q-9.5 9.5 -9.5 26.5v422q0 17 9.5 26.5t26.5 9.5t26.5 -9.5t9.5 -26.5v-422q0 -17 -9.5 -26.5t-26.5 -9.5t-26.5 9.5zM91 590.5q-11 11.5 -11 31.5v28q0 41 43 41h26q20 0 30.5 -10.5t10.5 -30.5v-28q0 -20 -11 -31.5t-30 -11.5h-26q-21 0 -32 11.5z" glyph-name="i" horiz-adv-x="272" unicode="i"/><glyph d="M-0.5 -137.5q9.5 9.5 26.5 9.5q44 0 59 15t15 59v512q0 17 9.5 26.5t26.5 9.5t26.5 -9.5t9.5 -26.5v-512q0 -74 -36 -110t-110 -36q-36 0 -36 36q0 17 9.5 26.5zM92 590.5q-11 11.5 -11 31.5v28q0 41 43 41h26q20 0 30.5 -10.5t10.5 -30.5v-28q0 -20 -11 -31.5t-30 -11.5 h-26q-21 0 -32 11.5z" glyph-name="j" horiz-adv-x="272" unicode="j"/><glyph d="M464 62q11 -11 11 -25q0 -15 -14 -26q-13 -11 -24 -11q-13 0 -27 14l-185 210l-53 -46v-142q0 -17 -9.5 -26.5t-26.5 -9.5t-26.5 9.5t-9.5 26.5v628q0 17 9.5 26.5t26.5 9.5t26.5 -9.5t9.5 -26.5v-390l244 209q13 11 24 11q14 0 27 -15q10 -11 10 -23q0 -15 -14 -27 l-183 -158z" glyph-name="k" horiz-adv-x="497" unicode="k"/><glyph d="M136 36q-36 36 -36 110v518q0 17 9.5 26.5t26.5 9.5t26.5 -9.5t9.5 -26.5v-518q0 -43 15.5 -58.5t58.5 -15.5q18 0 27.5 -9.5t9.5 -26.5t-9.5 -26.5t-27.5 -9.5q-74 0 -110 36z" glyph-name="l" horiz-adv-x="323" unicode="l"/><glyph d="M773 451q39 -43 39 -143v-272q0 -36 -36 -36t-36 36v272q0 61 -22 87.5t-73 26.5h-41q-60 0 -86 -26.5t-26 -87.5v-272q0 -36 -36 -36t-36 36v272q0 61 -22 87.5t-73 26.5h-41q-60 0 -86 -26.5t-26 -87.5v-272q0 -36 -36 -36t-36 36v422q0 36 36 36t36 -36v-29 q25 34 56 49.5t76 15.5h21q59 0 93 -17.5t53 -57.5q24 40 54.5 57.5t78.5 17.5h41q89 0 128 -43z" glyph-name="m" horiz-adv-x="902" unicode="m"/><glyph d="M506 448q46 -46 46 -144v-268q0 -17 -9.5 -26.5t-26.5 -9.5t-26.5 9.5t-9.5 26.5v268q0 46 -11 71t-36 36t-71 11h-28q-74 0 -118 -20.5t-44 -60.5v-305q0 -17 -9.5 -26.5t-26.5 -9.5t-26.5 9.5t-9.5 26.5v422q0 17 9.5 26.5t26.5 9.5t26.5 -9.5t9.5 -26.5v-28 q52 64 162 64h28q98 0 144 -46z" glyph-name="n" horiz-adv-x="642" unicode="n"/><glyph d="M126.5 46q-46.5 46 -46.5 143v115q0 98 46 144t144 46h82q98 0 144 -46t46 -144v-114q0 -97 -46 -143.5t-144 -46.5h-82q-97 0 -143.5 46zM352 72q46 0 71 11t36 36t11 71v114q0 46 -11 71t-36 36t-71 11h-82q-46 0 -71 -10.5t-36 -36t-11 -71.5v-115q0 -45 11 -70 t36 -36t71 -11h82z" glyph-name="o" unicode="o"/><glyph d="M516 448q46 -46 46 -144v-114q0 -97 -46 -143.5t-144 -46.5h-200v-164q0 -17 -9.5 -26.5t-26.5 -9.5t-26.5 9.5t-9.5 26.5v622q0 17 9.5 26.5t26.5 9.5t26.5 -9.5t9.5 -26.5v-23q51 59 162 59h38q98 0 144 -46zM490 304q0 46 -11 71t-36 36t-71 11h-38q-74 0 -118 -20.5 t-44 -60.5v-269h200q46 0 71 11t36 36t11 71v114z" glyph-name="p" horiz-adv-x="642" unicode="p"/><glyph d="M532.5 484.5q9.5 -9.5 9.5 -26.5v-622q0 -17 -9.5 -26.5t-26.5 -9.5t-26.5 9.5t-9.5 26.5v164h-200q-97 0 -143.5 46.5t-46.5 143.5v114q0 98 46.5 144t143.5 46h38q117 0 162 -61v25q0 17 9.5 26.5t26.5 9.5t26.5 -9.5zM470 72v269q0 40 -44 60.5t-118 20.5h-38 q-46 0 -71 -11t-36 -36t-11 -71v-114q0 -46 11 -71t36 -36t71 -11h200z" glyph-name="q" horiz-adv-x="632" unicode="q"/><glyph d="M383.5 484.5q9.5 -9.5 9.5 -26.5t-9.5 -26.5t-26.5 -9.5q-90 0 -137.5 -37t-47.5 -102v-247q0 -17 -9.5 -26.5t-26.5 -9.5t-26.5 9.5t-9.5 26.5v422q0 17 9.5 26.5t26.5 9.5t26.5 -9.5t9.5 -26.5v-53q29 44 76 66.5t109 22.5q17 0 26.5 -9.5z" glyph-name="r" horiz-adv-x="408" unicode="r"/><glyph d="M115 26.5q-35 26.5 -44 79.5q-3 18 7 28t28 10q17 0 25 -8.5t13 -26.5q5 -21 20.5 -29t48.5 -8h164q42 0 57 14.5t15 57.5t-15 57.5t-57 14.5h-161q-139 0 -139 139q0 71 34.5 105t104.5 34h156q116 0 134 -99q3 -18 -7 -28t-28 -10q-16 0 -24.5 8t-13.5 26t-19 24.5 t-42 6.5h-156q-40 0 -53.5 -13t-13.5 -54q0 -39 13.5 -53t53.5 -14h161q73 0 108.5 -35.5t35.5 -108.5t-35.5 -108.5t-108.5 -35.5h-164q-63 0 -98 26.5z" glyph-name="s" horiz-adv-x="591" unicode="s"/><glyph d="M342 36q0 -17 -9.5 -26.5t-26.5 -9.5q-96 0 -141.5 45t-45.5 141v236h-53q-17 0 -26.5 9.5t-9.5 26.5t9.5 26.5t26.5 9.5h53v86q0 36 36 36t36 -36v-86h119q17 0 26.5 -9.5t9.5 -26.5t-9.5 -26.5t-26.5 -9.5h-119v-236q0 -45 10.5 -69.5t35 -34.5t69.5 -10q36 0 36 -36z" glyph-name="t" horiz-adv-x="396" unicode="t"/><glyph d="M532.5 484.5q9.5 -9.5 9.5 -26.5v-422q0 -17 -9.5 -26.5t-26.5 -9.5t-26.5 9.5t-9.5 26.5v28q-52 -64 -162 -64h-28q-97 0 -143.5 46.5t-46.5 143.5v268q0 17 9.5 26.5t26.5 9.5t26.5 -9.5t9.5 -26.5v-268q0 -46 11 -71t36 -36t71 -11h28q74 0 118 20.5t44 60.5v305 q0 17 9.5 26.5t26.5 9.5t26.5 -9.5z" glyph-name="u" horiz-adv-x="642" unicode="u"/><glyph d="M486 461q0 -7 -5 -19l-189 -415q-13 -27 -42 -27q-28 0 -40 28l-176 415q-4 8 -4 18q0 20 23 29q8 4 17 4q21 0 30 -23l152 -357l164 358q9 22 31 22q9 0 17 -4q22 -11 22 -29z" glyph-name="v" horiz-adv-x="516" unicode="v"/><glyph d="M701 461q0 -7 -3 -16l-153 -416q-10 -29 -41 -29q-32 0 -41 30l-102 335l-111 -336q-10 -29 -39 -29t-39 29l-140 417q-2 5 -2 14q0 24 25 31q9 3 15 3q22 0 30 -26l116 -343l110 340q9 29 41 29q30 0 39 -30l103 -339l121 344q9 25 30 25q7 0 16 -3q25 -9 25 -30z" glyph-name="w" horiz-adv-x="731" unicode="w"/><glyph d="M469 36q0 -15 -15 -27q-12 -9 -24 -9q-15 0 -27 16l-146 189l-139 -188q-12 -17 -28 -17q-10 0 -22 9q-17 12 -17 28q0 11 9 23l151 204l-131 170q-9 12 -9 23q0 15 16 28q12 9 23 9q15 0 28 -16l125 -162l126 163q12 15 27 15q11 0 23 -9q16 -12 16 -27q0 -11 -9 -23 l-138 -178l152 -197q9 -12 9 -24z" glyph-name="x" horiz-adv-x="518" unicode="x"/><glyph d="M124 -165.5q-34 34.5 -34 104.5q0 36 36 36t36 -36q0 -40 13 -53.5t53 -13.5h186q40 0 53 13.5t13 53.5v131q-28 -40 -67 -55t-95 -15h-41q-96 0 -141.5 45t-45.5 141v272q0 36 36 36t36 -36v-272q0 -45 10.5 -69.5t35 -34.5t69.5 -10h41q84 0 123 28t39 86v272 q0 36 36 36t36 -36v-519q0 -70 -34 -104.5t-104 -34.5h-186q-70 0 -104 34.5z" glyph-name="y" horiz-adv-x="652" unicode="y"/><glyph d="M491 128q10 -10 7 -28q-10 -49 -44 -74.5t-91 -25.5h-262q-17 0 -26.5 9.5t-9.5 26.5t15 36l281 350h-180q-30 0 -44 -6.5t-19 -24.5t-13 -26.5t-24 -8.5q-19 0 -28.5 10t-6.5 28q8 51 41.5 75.5t93.5 24.5h245q36 0 36 -36q0 -17 -16 -37l-279 -348l196 -1q28 0 42 7 t20 25t14 26t24 8q18 0 28 -10z" glyph-name="z" horiz-adv-x="534" unicode="z"/><glyph d="M177 -131.5q-37 39.5 -37 135.5v170l-56 21q-24 11 -24 36v30q0 26 24 36l56 22v170q0 69 16 109t51.5 58t97.5 18q13 0 22 -9t9 -22t-9 -22t-22 -9q-43 0 -64.5 -10t-30 -35.5t-8.5 -77.5v-186q0 -27 -24 -36l-53 -19v-4l53 -18q24 -7 24 -36v-186q0 -48 8 -71.5 t29.5 -32.5t65.5 -9q13 0 22 -9t9 -22t-9 -22t-22 -9q-91 0 -128 39.5z" glyph-name="braceleft" horiz-adv-x="346" unicode="{"/><glyph d="M89.5 -146.5q-9.5 9.5 -9.5 26.5v794q0 17 9.5 26.5t26.5 9.5t26.5 -9.5t9.5 -26.5v-794q0 -17 -9.5 -26.5t-26.5 -9.5t-26.5 9.5z" glyph-name="bar" horiz-adv-x="232" unicode="|"/><glyph d="M19 -162q-9 9 -9 22t9 22t22 9q44 0 65.5 9t29.5 32.5t8 71.5v186q0 29 24 36l53 18v4l-53 19q-24 9 -24 36v186q0 52 -8.5 77.5t-30 35.5t-64.5 10q-13 0 -22 9t-9 22t9 22t22 9q62 0 97.5 -18t51.5 -58t16 -109v-170l56 -22q24 -10 24 -36v-30q0 -25 -24 -36l-56 -21 v-170q0 -96 -37 -135.5t-128 -39.5q-13 0 -22 9z" glyph-name="braceright" horiz-adv-x="346" unicode="}"/><glyph d="M91.5 272q-8.5 9 -8.5 21q0 10 7 18q35 41 59 55t59 14q31 0 53.5 -8.5t50.5 -25.5q22 -13 36.5 -19t31.5 -6q21 0 36.5 10t39.5 38q9 11 23 11q12 0 20 -8.5t8 -20.5q0 -9 -6 -18q-29 -37 -58 -53.5t-63 -16.5q-29 0 -49 8t-44 23q-24 14 -40 21t-39 7q-21 0 -34 -8 t-40 -41q-8 -10 -22 -10q-12 0 -20.5 9z" glyph-name="asciitilde" horiz-adv-x="591" unicode="~"/><glyph glyph-name="uni00A0" horiz-adv-x="290"/><glyph d="M162.5 511.5q9.5 -9.5 9.5 -26.5v-23q0 -35 -36 -35h-22q-34 0 -34 35v23q0 17 9 26.5t25 9.5h22q17 0 26.5 -9.5zM161 349v-493q0 -36 -36 -36t-36 36v493q0 36 36 36t36 -36z" glyph-name="exclamdown" horiz-adv-x="252" unicode="¡"/><glyph d="M439.5 210.5q10.5 -10.5 10.5 -25.5q0 -66 -38.5 -97.5t-116.5 -32.5v-55q0 -31 -31 -31t-31 31v55q-89 1 -131 43.5t-42 130.5v83q0 89 42.5 132t130.5 43v54q0 31 31 31t31 -31v-54q78 -1 116.5 -32.5t38.5 -97.5q0 -15 -10.5 -25.5t-25.5 -10.5t-25.5 10.5t-10.5 25.5 q0 33 -17 45.5t-66 12.5v-288q49 0 66 12.5t17 45.5q0 15 10.5 25.5t25.5 10.5t25.5 -10.5zM141 167.5q9 -21.5 30.5 -30.5t61.5 -10v288q-58 0 -79.5 -22t-21.5 -81v-83q0 -40 9 -61.5z" glyph-name="cent" horiz-adv-x="490" unicode="¢"/><glyph d="M553 36q0 -36 -36 -36h-471v72q30 0 40.5 15t10.5 59v66h-56q-31 0 -31 31t31 31h56v156q0 113 52.5 165.5t164.5 52.5h21q103 0 150.5 -47.5t47.5 -150.5q0 -36 -36 -36t-36 36q0 50 -11.5 77t-38 38t-76.5 11h-21q-56 0 -87 -13.5t-44.5 -45t-13.5 -87.5v-156h185 q31 0 31 -31t-31 -31h-185v-66q0 -45 -13 -74h361q36 0 36 -36z" glyph-name="sterling" horiz-adv-x="593" unicode="£"/><glyph d="M100.5 137.5q-10.5 10.5 -10.5 25.5q0 16 11 25l47 48q-34 50 -34 111q0 60 34 110l-47 48q-10 10 -10 25t10.5 25.5t25.5 10.5t26 -11l46 -47q48 34 110 34t111 -34l47 48q11 11 26 11t25.5 -10.5t10.5 -25.5t-10 -25l-48 -49q34 -50 34 -110q0 -62 -34 -111l48 -48 q10 -10 10 -25t-10.5 -25.5t-25.5 -10.5t-26 11l-47 47q-50 -34 -111 -34q-60 0 -110 34l-48 -47q-9 -11 -25 -11q-15 0 -25.5 10.5zM397 259q36 36 36 88q0 51 -36 87t-88 36q-51 0 -87 -36t-36 -87q0 -52 36 -88t87 -36q52 0 88 36z" glyph-name="currency" horiz-adv-x="600" unicode="¤"/><glyph d="M568 629q0 -10 -7 -21l-218 -343h89q26 0 26 -26t-26 -26h-102v-39h102q26 0 26 -26t-26 -26h-102v-86q0 -17 -9.5 -26.5t-26.5 -9.5q-36 0 -36 36v86h-103q-26 0 -26 26t26 26h103v39h-103q-26 0 -26 26t26 26h90l-217 342q-8 13 -8 22q0 15 19 28q11 8 21 8 q15 0 28 -19l206 -329l206 330q11 19 28 19q9 0 22 -8q18 -12 18 -29z" glyph-name="yen" horiz-adv-x="588" unicode="¥"/><glyph d="M90.5 363.5q-10.5 10.5 -10.5 25.5v285q0 15 10.5 25.5t25.5 10.5t25.5 -10.5t10.5 -25.5v-285q0 -15 -10.5 -25.5t-25.5 -10.5t-25.5 10.5zM90.5 -145.5q-10.5 10.5 -10.5 25.5v287q0 15 10.5 25.5t25.5 10.5t25.5 -10.5t10.5 -25.5v-287q0 -15 -10.5 -25.5t-25.5 -10.5 t-25.5 10.5z" glyph-name="brokenbar" horiz-adv-x="232" unicode="¦"/><glyph d="M467 126q15 -26 15 -69q0 -72 -35 -107t-107 -35h-114q-72 0 -107 35t-35 107q0 14 10 24t24 10t24 -10t10 -24q0 -43 15.5 -58.5t58.5 -15.5h114q44 0 59 15.5t15 58.5q0 21 -5.5 32.5t-22.5 21t-56 22.5l-124 40q-69 22 -97.5 57t-28.5 98q0 93 76 118q-42 38 -42 100 q0 54 32.5 82t94.5 28h98q125 0 125 -126q0 -14 -10 -24t-24 -10t-24 10t-10 24q0 34 -11.5 46t-45.5 12h-98q-34 0 -46.5 -9t-12.5 -33q0 -29 15 -46t55 -31l99 -35q64 -22 92.5 -57.5t28.5 -94.5q0 -81 -56 -111q36 -19 51 -45zM154.5 285q6.5 -16 22.5 -26.5t49 -21.5 l112 -36q36 1 51 19t15 62q0 36 -15.5 54t-59.5 34l-99 35l-6 2q-43 0 -59.5 -17t-16.5 -62q0 -27 6.5 -43z" glyph-name="section" horiz-adv-x="562" unicode="§"/><glyph d="M59.5 581.5q-9.5 9.5 -9.5 26.5v23q0 35 36 35h22q34 0 34 -35v-23q0 -17 -9 -26.5t-25 -9.5h-22q-17 0 -26.5 9.5zM219.5 581.5q-9.5 9.5 -9.5 26.5v23q0 35 36 35h22q34 0 34 -35v-23q0 -17 -9 -26.5t-25 -9.5h-22q-17 0 -26.5 9.5z" glyph-name="dieresis" horiz-adv-x="352" unicode="¨"/><glyph d="M238 47q-74 42 -116 116t-42 167t42 167t116 116t167 42t167 -42t116 -116t42 -167t-42 -167t-116 -116t-167 -42t-167 42zM541.5 100.5q59.5 33.5 93 93t33.5 136.5t-33.5 136.5t-93 93t-136.5 33.5t-136.5 -33.5t-93 -93t-33.5 -136.5t33.5 -136.5t93 -93t136.5 -33.5 t136.5 33.5zM275 180q-35 35 -35 107v83q0 73 35 108t108 35h48q111 0 126 -74q3 -15 -5 -24t-26 -9q-11 0 -16.5 5t-10 12t-6.5 10q-6 10 -20 14t-42 4h-48q-47 0 -64 -16.5t-17 -64.5v-83q0 -47 17 -63.5t64 -16.5h48q28 0 42.5 4t19.5 14q8 15 14 21t19 6q15 0 23.5 -7 t8.5 -18q0 -5 -1 -8q-18 -74 -126 -74h-48q-73 0 -108 35z" glyph-name="copyright" horiz-adv-x="810" unicode="©"/><glyph d="M363.5 627.5q33.5 -33.5 33.5 -102.5v-189q0 -32 -32 -32t-32 32v15q-30 -47 -102 -47h-55q-116 0 -116 116t116 116h157q-1 35 -17 48t-55 13h-56q-30 0 -46 -4t-23 -13q-12 -18 -18 -22t-18 -4q-14 0 -22.5 6.5t-8.5 18.5q0 6 1 9q10 37 43 55t92 18h56 q69 0 102.5 -33.5zM333 409v63h-157q-31 0 -41.5 -10t-10.5 -42q0 -31 10.5 -41.5t41.5 -10.5h55q102 0 102 41z" glyph-name="ordfeminine" horiz-adv-x="457" unicode="ª"/><glyph d="M511 118l-186 154q-13 11 -13 22t13 22l186 154q9 7 20 7q13 0 22 -9t9 -22q0 -14 -12 -24l-155 -128l155 -128q12 -10 12 -24q0 -13 -9 -22t-22 -9q-11 0 -20 7zM289 118l-186 154q-13 11 -13 22t13 22l186 154q9 7 20 7q13 0 22 -9t9 -22q0 -14 -12 -24l-155 -128 l155 -128q12 -10 12 -24q0 -13 -9 -22t-22 -9q-11 0 -20 7z" glyph-name="guillemotleft" horiz-adv-x="652" unicode="«"/><glyph d="M459.5 216.5q-8.5 8.5 -8.5 20.5v86h-340q-12 0 -20.5 8.5t-8.5 20.5t8.5 20.5t20.5 8.5h369q29 0 29 -29v-115q0 -12 -8.5 -20.5t-20.5 -8.5t-20.5 8.5z" glyph-name="logicalnot" horiz-adv-x="591" unicode="¬"/><glyph d="M89 248q-9 9 -9 22t9 22t22 9h276q13 0 22 -9t9 -22t-9 -22t-22 -9h-276q-13 0 -22 9z" glyph-name="uni00AD" horiz-adv-x="498" unicode="­"/><glyph d="M238 47q-74 42 -116 116t-42 167t42 167t116 116t167 42t167 -42t116 -116t42 -167t-42 -167t-116 -116t-167 -42t-167 42zM541.5 100.5q59.5 33.5 93 93t33.5 136.5t-33.5 136.5t-93 93t-136.5 33.5t-136.5 -33.5t-93 -93t-33.5 -136.5t33.5 -136.5t93 -93t136.5 -33.5 t136.5 33.5zM286 189v293q0 31 31 31h97q50 0 77.5 -27.5t27.5 -77.5v-15q0 -36 -13.5 -60.5t-39.5 -35.5l52 -93q5 -10 5 -17q0 -16 -18 -25q-8 -4 -16 -4q-15 0 -26 17l-62 112h-53v-98q0 -31 -31 -31t-31 31zM414 349q24 0 33.5 9.5t9.5 34.5v15q0 24 -9.5 33.5 t-33.5 9.5h-66v-102h66z" glyph-name="registered" horiz-adv-x="810" unicode="®"/><glyph d="M50 605q0 36 36 36h253q36 0 36 -36t-36 -36h-253q-36 0 -36 36z" glyph-name="macron" horiz-adv-x="425" unicode="¯"/><glyph d="M71 462q-21 21 -21 60v72q0 39 21 60t60 21h23q39 0 60 -21t21 -60v-72q0 -39 -21 -60t-60 -21h-23q-39 0 -60 21zM154 493q17 0 23 6.5t6 22.5v72q0 17 -6 23t-23 6h-23q-16 0 -22.5 -6t-6.5 -23v-72q0 -16 6.5 -22.5t22.5 -6.5h23z" glyph-name="degree" horiz-adv-x="285" unicode="°"/><glyph d="M80 357q0 31 31 31h155v101q0 31 31 31t31 -31v-101h152q31 0 31 -31t-31 -31h-152v-107q0 -31 -31 -31t-31 31v107h-155q-31 0 -31 31zM511 132q0 -31 -31 -31h-369q-31 0 -31 31t31 31h369q31 0 31 -31z" glyph-name="plusminus" horiz-adv-x="591" unicode="±"/><glyph d="M94 304q-35 0 -35 34q0 43 16 72.5t36.5 46t57.5 39.5q44 27 55.5 37t11.5 28q0 21 -5.5 26.5t-26.5 5.5h-50q-27 0 -33 -9q-13 -18 -19.5 -23.5t-18.5 -5.5q-15 0 -24 7t-9 20q0 6 1 9q17 70 103 70h50q100 0 100 -100q0 -31 -13.5 -52.5t-30.5 -34t-55 -36.5 q-36 -22 -51 -34.5t-22 -31.5h145q34 0 34 -34t-34 -34h-183z" glyph-name="uni00B2" horiz-adv-x="370" unicode="²"/><glyph d="M330 414q0 -108 -109 -108h-55q-90 0 -105 72q-1 3 -1 9q0 13 9 20t24 7q14 0 19 -5t18 -25q4 -6 12 -8t24 -2h55q26 0 33.5 7.5t7.5 32.5q0 26 -7.5 33.5t-33.5 7.5h-25q-34 0 -34 34t34 34h22q37 0 37 35q0 24 -6.5 30.5t-29.5 6.5h-51q-24 0 -31 -8q-4 -5 -9.5 -13.5 t-11.5 -12t-15 -3.5q-17 0 -26 7t-9 20q0 6 1 9q15 69 101 69h51q51 0 77.5 -25t26.5 -70q0 -42 -32 -62q39 -27 39 -92z" glyph-name="uni00B3" horiz-adv-x="370" unicode="³"/><glyph d="M48 546q0 12 9 22l78 93q10 13 23 13q11 0 22 -9q13 -10 13 -23q0 -11 -9 -22l-78 -93q-10 -13 -23 -13q-11 0 -22 9q-13 10 -13 23z" glyph-name="acute" horiz-adv-x="243" unicode="´"/><glyph d="M625.5 63.5q8.5 -8.5 8.5 -27.5q0 -17 -9.5 -26.5t-27.5 -9.5q-73 0 -112 64q-27 -31 -71.5 -48t-105.5 -17h-28q-79 0 -118 58v-103q0 -22 -9.5 -34t-26.5 -12t-26.5 9.5t-9.5 26.5v514q0 17 9.5 26.5t26.5 9.5t26.5 -9.5t9.5 -26.5v-269q0 -46 11 -71t36 -36t71 -11h28 q74 0 118 20t44 61v306q0 17 9.5 26.5t26.5 9.5t26.5 -9.5t9.5 -26.5v-331q0 -34 10.5 -44.5t44.5 -10.5q20 0 28.5 -8.5z" glyph-name="uni00B5" horiz-adv-x="674" unicode="µ"/><glyph d="M277 -185q-9 9 -9 22v443h-55q-85 0 -129 44t-44 128v29q0 85 44 129t129 44h216q31 0 31 -31v-786q0 -13 -9 -22t-22 -9t-22 9t-9 22v755h-68v-755q0 -13 -9 -22t-22 -9t-22 9z" glyph-name="paragraph" horiz-adv-x="560" unicode="¶"/><glyph d="M89.5 259.5q-9.5 9.5 -9.5 26.5v23q0 35 36 35h22q34 0 34 -35v-23q0 -17 -9 -26.5t-25 -9.5h-22q-17 0 -26.5 9.5z" glyph-name="periodcentered" horiz-adv-x="252" unicode="·"/><glyph d="M73.5 -186.5q-23.5 23.5 -23.5 69.5q0 31 31 31t31 -31q0 -20 6 -25.5t25 -5.5q31 0 41 10t10 41q0 8 -4 13t-18 15q-22 14 -36.5 32.5t-14.5 51.5q0 31 31 31t31 -31q0 -11 4.5 -17t19.5 -16q21 -14 35 -31.5t14 -47.5q0 -113 -113 -113q-46 0 -69.5 23.5z" glyph-name="cedilla" horiz-adv-x="306" unicode="¸"/><glyph d="M222 639v-299q0 -36 -36 -36q-17 0 -26.5 9.5t-9.5 26.5v206l-27 -26q-12 -12 -25 -12q-14 0 -26 12t-12 25q0 14 13 26l77 76q12 11 21 14.5t24 3.5q27 0 27 -26z" glyph-name="uni00B9" horiz-adv-x="282" unicode="¹"/><glyph d="M40 444v64q0 71 34.5 105.5t105.5 34.5h66q140 0 140 -140v-63q0 -71 -34.5 -106t-105.5 -35h-66q-140 0 -140 140zM246 376q41 0 54.5 14t13.5 55v63q0 41 -13.5 54.5t-54.5 13.5h-66q-41 0 -54.5 -13.5t-13.5 -54.5v-64q0 -40 14 -54t54 -14h66z" glyph-name="ordmasculine" horiz-adv-x="426" unicode="º"/><glyph d="M319 120q-9 9 -9 22q0 14 12 24l155 128l-155 128q-12 10 -12 24q0 13 9 22t22 9q11 0 20 -7l186 -154q13 -10 13 -22t-13 -22l-186 -154q-9 -7 -20 -7q-13 0 -22 9zM99 120q-9 9 -9 22q0 14 12 24l155 128l-155 128q-12 10 -12 24q0 13 9 22t22 9q11 0 20 -7l186 -154 q13 -10 13 -22t-13 -22l-186 -154q-9 -7 -20 -7q-13 0 -22 9z" glyph-name="guillemotright" horiz-adv-x="650" unicode="»"/><glyph d="M222 639v-299q0 -36 -36 -36q-17 0 -26.5 9.5t-9.5 26.5v206l-27 -26q-12 -12 -25 -12q-14 0 -26 12t-12 25q0 14 13 26l77 76q12 11 21 14.5t24 3.5q27 0 27 -26zM122.5 -3.5q-10.5 10.5 -10.5 25.5q0 12 7 22l461 610q12 15 29 15q15 0 25.5 -10.5t10.5 -25.5 q0 -11 -7 -22l-461 -610q-12 -15 -29 -15q-15 0 -25.5 10.5zM748 103q0 -34 -34 -34h-33v-33q0 -34 -34 -34t-34 34v33h-147q-34 0 -34 34q0 17 14 35l166 204q17 21 41 21q30 0 30 -34l-1 -191h32q34 0 34 -35zM522 138h92l1 112z" glyph-name="onequarter" horiz-adv-x="788" unicode="¼"/><glyph d="M222 639v-299q0 -36 -36 -36q-17 0 -26.5 9.5t-9.5 26.5v206l-27 -26q-12 -12 -25 -12q-14 0 -26 12t-12 25q0 14 13 26l77 76q12 11 21 14.5t24 3.5q27 0 27 -26zM122.5 -3.5q-10.5 10.5 -10.5 25.5q0 12 7 22l461 610q12 15 29 15q15 0 25.5 -10.5t10.5 -25.5 q0 -11 -7 -22l-461 -610q-12 -15 -29 -15q-15 0 -25.5 10.5zM528 0q-35 0 -35 34q0 43 16 72.5t36.5 46t57.5 39.5q44 27 55.5 37t11.5 28q0 21 -5.5 26.5t-26.5 5.5h-50q-27 0 -33 -9q-13 -18 -19.5 -23.5t-18.5 -5.5q-15 0 -24 7t-9 20q0 6 1 9q17 70 103 70h50 q100 0 100 -100q0 -31 -13.5 -52.5t-30.5 -34t-55 -36.5q-36 -22 -51 -34.5t-22 -31.5h145q34 0 34 -34t-34 -34h-183z" glyph-name="onehalf" horiz-adv-x="805" unicode="½"/><glyph d="M330 414q0 -108 -109 -108h-55q-90 0 -105 72q-1 3 -1 9q0 13 9 20t24 7q14 0 19 -5t18 -25q4 -6 12 -8t24 -2h55q26 0 33.5 7.5t7.5 32.5q0 26 -7.5 33.5t-33.5 7.5h-25q-34 0 -34 34t34 34h22q37 0 37 35q0 24 -6.5 30.5t-29.5 6.5h-51q-24 0 -31 -8q-4 -5 -9.5 -13.5 t-11.5 -12t-15 -3.5q-17 0 -26 7t-9 20q0 6 1 9q15 69 101 69h51q51 0 77.5 -25t26.5 -70q0 -42 -32 -62q39 -27 39 -92zM210.5 -3.5q-10.5 10.5 -10.5 25.5q0 12 7 22l461 610q12 15 29 15q15 0 25.5 -10.5t10.5 -25.5q0 -11 -7 -22l-461 -610q-12 -15 -29 -15 q-15 0 -25.5 10.5zM836 103q0 -34 -34 -34h-33v-33q0 -34 -34 -34t-34 34v33h-147q-34 0 -34 34q0 17 14 35l166 204q17 21 41 21q30 0 30 -34l-1 -191h32q34 0 34 -35zM610 138h92l1 112z" glyph-name="threequarters" horiz-adv-x="876" unicode="¾"/><glyph d="M309.5 500.5q9.5 -9.5 9.5 -26.5v-23q0 -35 -36 -35h-22q-34 0 -34 35v23q0 17 9 26.5t25 9.5h22q17 0 26.5 -9.5zM309 318q0 -49 -16 -82t-37 -50.5t-53 -36.5q-28 -17 -41.5 -28.5t-21.5 -30t-8 -49.5q0 -62 23 -84.5t84 -22.5h67q61 0 84 23t23 84q0 36 36 36t36 -36 q0 -91 -44 -135t-135 -44h-67q-91 0 -135 43.5t-44 135.5q0 49 16 82t37 50.5t53 36.5q28 17 41.5 28.5t21.5 30t8 49.5q0 36 36 36t36 -36z" glyph-name="questiondown" horiz-adv-x="500" unicode="¿"/><glyph d="M611 34q0 -21 -23 -30q-9 -4 -18 -4q-20 0 -29 23l-59 141h-317l-57 -141q-9 -23 -30 -23q-9 0 -17 4q-24 9 -24 30q0 9 4 17l241 586q12 28 41 28h2q27 0 39 -28l243 -586q4 -8 4 -17zM194 236h258l-131 315zM341 705q-13 0 -23 13l-78 93q-9 11 -9 22q0 13 13 23 q10 9 22 9q13 0 23 -13l78 -93q9 -10 9 -22q0 -13 -13 -23q-11 -9 -22 -9z" glyph-name="Agrave" horiz-adv-x="646" unicode="À"/><glyph d="M611 34q0 -21 -23 -30q-9 -4 -18 -4q-20 0 -29 23l-59 141h-317l-57 -141q-9 -23 -30 -23q-9 0 -17 4q-24 9 -24 30q0 9 4 17l241 586q12 28 41 28h2q27 0 39 -28l243 -586q4 -8 4 -17zM194 236h258l-131 315zM303 737q0 12 9 22l78 93q10 13 23 13q11 0 22 -9 q13 -10 13 -23q0 -11 -9 -22l-78 -93q-10 -13 -23 -13q-12 0 -22 9q-13 10 -13 23z" glyph-name="Aacute" horiz-adv-x="646" unicode="Á"/><glyph d="M611 34q0 -21 -23 -30q-9 -4 -18 -4q-20 0 -29 23l-59 141h-317l-57 -141q-9 -23 -30 -23q-9 0 -17 4q-24 9 -24 30q0 9 4 17l241 586q12 28 41 28h2q27 0 39 -28l243 -586q4 -8 4 -17zM194 236h258l-131 315zM178.5 723q-9.5 10 -9.5 23q0 8 4 15.5t11 12.5l95 79 q18 15 41 15h6q23 0 41 -15l95 -79q7 -5 11 -12.5t4 -15.5q0 -13 -10 -23t-23 -10q-14 0 -24 10l-95 79h-4l-95 -79q-10 -10 -24 -10t-23.5 10z" glyph-name="Acircumflex" horiz-adv-x="646" unicode="Â"/><glyph d="M611 34q0 -21 -23 -30q-9 -4 -18 -4q-20 0 -29 23l-59 141h-317l-57 -141q-9 -23 -30 -23q-9 0 -17 4q-24 9 -24 30q0 9 4 17l241 586q12 28 41 28h2q27 0 39 -28l243 -586q4 -8 4 -17zM194 236h258l-131 315zM348.5 740.5q-17.5 10.5 -35.5 28.5q-13 14 -21 18.5 t-19 4.5q-14 0 -23.5 -7.5t-17.5 -27.5q-8 -23 -26 -23q-4 0 -12 2q-22 6 -22 24q0 7 3 14q16 41 39.5 59.5t58.5 18.5q28 0 46 -11t37 -30q13 -13 20 -17t17 -4q12 0 19.5 7t14.5 24q9 24 27 24q7 0 10 -1q23 -5 23 -25q0 -8 -2 -12q-14 -39 -36 -58t-56 -19 q-27 0 -44.5 10.5z" glyph-name="Atilde" horiz-adv-x="646" unicode="Ã"/><glyph d="M611 34q0 -21 -23 -30q-9 -4 -18 -4q-20 0 -29 23l-59 141h-317l-57 -141q-9 -23 -30 -23q-9 0 -17 4q-24 9 -24 30q0 9 4 17l241 586q12 28 41 28h2q27 0 39 -28l243 -586q4 -8 4 -17zM194 236h258l-131 315zM207.5 752.5q-9.5 9.5 -9.5 26.5v23q0 35 36 35h22 q34 0 34 -35v-23q0 -17 -9 -26.5t-25 -9.5h-22q-17 0 -26.5 9.5zM367.5 752.5q-9.5 9.5 -9.5 26.5v23q0 35 36 35h22q34 0 34 -35v-23q0 -17 -9 -26.5t-25 -9.5h-22q-17 0 -26.5 9.5z" glyph-name="Adieresis" horiz-adv-x="646" unicode="Ä"/><glyph d="M611 34q0 -21 -23 -30q-9 -4 -18 -4q-20 0 -29 23l-59 141h-317l-57 -141q-9 -23 -30 -23q-9 0 -17 4q-24 9 -24 30q0 9 4 17l241 586q12 28 41 28h2q27 0 39 -28l243 -586q4 -8 4 -17zM194 236h258l-131 315zM267.5 739.5q-20.5 20.5 -20.5 56.5t20.5 56.5t56.5 20.5 t56.5 -20.5t20.5 -56.5t-20.5 -56.5t-56.5 -20.5t-56.5 20.5zM344.5 776q3.5 4 3.5 20q0 17 -4 20.5t-20 3.5q-17 0 -20.5 -4t-3.5 -20q0 -17 4 -20.5t20 -3.5q17 0 20.5 4z" glyph-name="Aring" horiz-adv-x="646" unicode="Å"/><glyph d="M421 36v128h-233l-82 -144q-11 -20 -29 -20q-9 0 -20 6q-20 12 -20 29q0 10 6 20l332 585q15 25 43 25h344q17 0 26.5 -9.5t9.5 -26.5t-9.5 -26.5t-26.5 -9.5h-269v-221h151q17 0 26.5 -9.5t9.5 -26.5t-9.5 -26.5t-26.5 -9.5h-151v-228h269q17 0 26.5 -9.5t9.5 -26.5 t-9.5 -26.5t-26.5 -9.5h-305q-36 0 -36 36zM229 236h192v339h-4z" glyph-name="AE" horiz-adv-x="848" unicode="Æ"/><glyph d="M606.5 188.5q9.5 -9.5 7.5 -27.5q-7 -83 -54 -121.5t-138 -39.5q4 -7 21 -18q21 -14 35 -31.5t14 -47.5q0 -113 -113 -113q-46 0 -69.5 23.5t-23.5 69.5q0 31 31 31t31 -31q0 -20 6 -25.5t25 -5.5q31 0 41 10t10 41q0 8 -4 13t-18 15q-20 14 -33 28.5t-17 40.5h-60 q-112 0 -165 53t-53 165v229q0 113 52.5 166t164.5 52h121q93 0 141 -38.5t55 -122.5q2 -18 -7.5 -27.5t-27.5 -9.5q-32 0 -37 36q-5 51 -32.5 70.5t-91.5 19.5h-121q-55 1 -86.5 -12.5t-45 -45.5t-13.5 -88v-229q0 -56 13.5 -87.5t45 -45t87.5 -13.5h120q64 0 91.5 19.5 t32.5 70.5q5 36 37 36q18 0 27.5 -9.5z" glyph-name="Ccedilla" horiz-adv-x="684" unicode="Ç"/><glyph d="M527.5 62.5q9.5 -9.5 9.5 -26.5t-9.5 -26.5t-26.5 -9.5h-365q-17 0 -26.5 9.5t-9.5 26.5v593q0 17 9.5 26.5t26.5 9.5h365q17 0 26.5 -9.5t9.5 -26.5t-9.5 -26.5t-26.5 -9.5h-329v-221h211q17 0 26.5 -9.5t9.5 -26.5t-9.5 -26.5t-26.5 -9.5h-211v-228h329q17 0 26.5 -9.5 zM351 705q-13 0 -23 13l-78 93q-9 11 -9 22q0 13 13 23q10 9 22 9q13 0 23 -13l78 -93q9 -10 9 -22q0 -13 -13 -23q-11 -9 -22 -9z" glyph-name="Egrave" horiz-adv-x="587" unicode="È"/><glyph d="M527.5 62.5q9.5 -9.5 9.5 -26.5t-9.5 -26.5t-26.5 -9.5h-365q-17 0 -26.5 9.5t-9.5 26.5v593q0 17 9.5 26.5t26.5 9.5h365q17 0 26.5 -9.5t9.5 -26.5t-9.5 -26.5t-26.5 -9.5h-329v-221h211q17 0 26.5 -9.5t9.5 -26.5t-9.5 -26.5t-26.5 -9.5h-211v-228h329q17 0 26.5 -9.5 zM297 750q0 12 9 22l78 93q10 13 23 13q11 0 22 -9q13 -10 13 -23q0 -11 -9 -22l-78 -93q-10 -13 -23 -13q-12 0 -22 9q-13 10 -13 23z" glyph-name="Eacute" horiz-adv-x="587" unicode="É"/><glyph d="M527.5 62.5q9.5 -9.5 9.5 -26.5t-9.5 -26.5t-26.5 -9.5h-365q-17 0 -26.5 9.5t-9.5 26.5v593q0 17 9.5 26.5t26.5 9.5h365q17 0 26.5 -9.5t9.5 -26.5t-9.5 -26.5t-26.5 -9.5h-329v-221h211q17 0 26.5 -9.5t9.5 -26.5t-9.5 -26.5t-26.5 -9.5h-211v-228h329q17 0 26.5 -9.5 zM188.5 723q-9.5 10 -9.5 23q0 8 4 15.5t11 12.5l95 79q18 15 41 15h6q23 0 41 -15l95 -79q7 -5 11 -12.5t4 -15.5q0 -13 -10 -23t-23 -10q-14 0 -24 10l-95 79h-4l-95 -79q-10 -10 -24 -10t-23.5 10z" glyph-name="Ecircumflex" horiz-adv-x="587" unicode="Ê"/><glyph d="M527.5 62.5q9.5 -9.5 9.5 -26.5t-9.5 -26.5t-26.5 -9.5h-365q-17 0 -26.5 9.5t-9.5 26.5v593q0 17 9.5 26.5t26.5 9.5h365q17 0 26.5 -9.5t9.5 -26.5t-9.5 -26.5t-26.5 -9.5h-329v-221h211q17 0 26.5 -9.5t9.5 -26.5t-9.5 -26.5t-26.5 -9.5h-211v-228h329q17 0 26.5 -9.5 zM217.5 752.5q-9.5 9.5 -9.5 26.5v23q0 35 36 35h22q34 0 34 -35v-23q0 -17 -9 -26.5t-25 -9.5h-22q-17 0 -26.5 9.5zM377.5 752.5q-9.5 9.5 -9.5 26.5v23q0 35 36 35h22q34 0 34 -35v-23q0 -17 -9 -26.5t-25 -9.5h-22q-17 0 -26.5 9.5z" glyph-name="Edieresis" horiz-adv-x="587" unicode="Ë"/><glyph d="M100 36v593q0 36 36 36t36 -36v-593q0 -36 -36 -36t-36 36zM153 705q-13 0 -23 13l-78 93q-9 11 -9 22q0 13 13 23q10 9 22 9q13 0 23 -13l78 -93q9 -10 9 -22q0 -13 -13 -23q-11 -9 -22 -9z" glyph-name="Igrave" horiz-adv-x="272" unicode="Ì"/><glyph d="M100 36v593q0 36 36 36t36 -36v-593q0 -36 -36 -36t-36 36zM99 750q0 12 9 22l78 93q10 13 23 13q11 0 22 -9q13 -10 13 -23q0 -11 -9 -22l-78 -93q-10 -13 -23 -13q-12 0 -22 9q-13 10 -13 23z" glyph-name="Iacute" horiz-adv-x="272" unicode="Í"/><glyph d="M100 36v593q0 36 36 36t36 -36v-593q0 -36 -36 -36t-36 36zM20 728q-9 9 -9 22q0 11 8 21l75 82q16 17 38 17h10q22 0 38 -17l75 -82q8 -10 8 -21q0 -13 -9 -22t-22 -9q-14 0 -23 10l-67 79h-10l-67 -79q-10 -10 -23 -10t-22 9z" glyph-name="Icircumflex" horiz-adv-x="272" unicode="Î"/><glyph d="M100 36v593q0 36 36 36t36 -36v-593q0 -36 -36 -36t-36 36zM19.5 752.5q-9.5 9.5 -9.5 26.5v23q0 35 36 35h22q34 0 34 -35v-23q0 -17 -9 -26.5t-25 -9.5h-22q-17 0 -26.5 9.5zM179.5 752.5q-9.5 9.5 -9.5 26.5v23q0 35 36 35h22q34 0 34 -35v-23q0 -17 -9 -26.5 t-25 -9.5h-22q-17 0 -26.5 9.5z" glyph-name="Idieresis" horiz-adv-x="272" unicode="Ï"/><glyph d="M565 605q60 -60 60 -188v-169q0 -128 -60 -188t-188 -60h-241q-17 0 -26.5 9.5t-9.5 26.5v266h-50q-31 0 -31 31t31 31h50v265q0 17 9.5 26.5t26.5 9.5h241q128 0 188 -60zM553 417q0 66 -17 104t-55 55t-104 17h-205v-229h139q31 0 31 -31t-31 -31h-139v-230h205 q66 0 104 17t55 55t17 104v169z" glyph-name="Eth" horiz-adv-x="705" unicode="Ð"/><glyph d="M627.5 655.5q9.5 -9.5 9.5 -26.5v-593q0 -17 -9.5 -26.5t-26.5 -9.5q-10 0 -18.5 5t-17.5 16l-393 506v-491q0 -17 -9.5 -26.5t-26.5 -9.5t-26.5 9.5t-9.5 26.5v593q0 17 9.5 26.5t26.5 9.5q21 0 36 -21l393 -505v490q0 17 9.5 26.5t26.5 9.5t26.5 -9.5zM393.5 740.5 q-17.5 10.5 -35.5 28.5q-13 14 -21 18.5t-19 4.5q-14 0 -23.5 -7.5t-17.5 -27.5q-8 -23 -26 -23q-4 0 -12 2q-22 6 -22 24q0 7 3 14q16 41 39.5 59.5t58.5 18.5q28 0 46 -11t37 -30q13 -13 20 -17t17 -4q12 0 19.5 7t14.5 24q9 24 27 24q7 0 10 -1q23 -5 23 -25q0 -8 -2 -12 q-14 -39 -36 -58t-56 -19q-27 0 -44.5 10.5z" glyph-name="Ntilde" horiz-adv-x="737" unicode="Ñ"/><glyph d="M133 53q-53 53 -53 165v230q0 113 53 165.5t165 51.5h120q113 0 165.5 -52.5t52.5 -165.5v-229q0 -112 -52.5 -165t-165.5 -53h-120q-112 0 -165 53zM418 72q56 0 87.5 13.5t45 45t13.5 87.5v229q0 56 -13.5 87.5t-45 45t-87.5 13.5h-120q-56 1 -87.5 -12.5t-45 -45 t-13.5 -87.5v-230q0 -56 13.5 -87.5t45 -45t87.5 -13.5h120zM375 705q-13 0 -23 13l-78 93q-9 11 -9 22q0 13 13 23q10 9 22 9q13 0 23 -13l78 -93q9 -10 9 -22q0 -13 -13 -23q-11 -9 -22 -9z" glyph-name="Ograve" horiz-adv-x="716" unicode="Ò"/><glyph d="M133 53q-53 53 -53 165v230q0 113 53 165.5t165 51.5h120q113 0 165.5 -52.5t52.5 -165.5v-229q0 -112 -52.5 -165t-165.5 -53h-120q-112 0 -165 53zM418 72q56 0 87.5 13.5t45 45t13.5 87.5v229q0 56 -13.5 87.5t-45 45t-87.5 13.5h-120q-56 1 -87.5 -12.5t-45 -45 t-13.5 -87.5v-230q0 -56 13.5 -87.5t45 -45t87.5 -13.5h120zM321 750q0 12 9 22l78 93q10 13 23 13q11 0 22 -9q13 -10 13 -23q0 -11 -9 -22l-78 -93q-10 -13 -23 -13q-12 0 -22 9q-13 10 -13 23z" glyph-name="Oacute" horiz-adv-x="716" unicode="Ó"/><glyph d="M133 53q-53 53 -53 165v230q0 113 53 165.5t165 51.5h120q113 0 165.5 -52.5t52.5 -165.5v-229q0 -112 -52.5 -165t-165.5 -53h-120q-112 0 -165 53zM418 72q56 0 87.5 13.5t45 45t13.5 87.5v229q0 56 -13.5 87.5t-45 45t-87.5 13.5h-120q-56 1 -87.5 -12.5t-45 -45 t-13.5 -87.5v-230q0 -56 13.5 -87.5t45 -45t87.5 -13.5h120zM212.5 723q-9.5 10 -9.5 23q0 8 4 15.5t11 12.5l95 79q18 15 41 15h6q23 0 41 -15l95 -79q7 -5 11 -12.5t4 -15.5q0 -13 -10 -23t-23 -10q-14 0 -24 10l-95 79h-4l-95 -79q-10 -10 -24 -10t-23.5 10z" glyph-name="Ocircumflex" horiz-adv-x="716" unicode="Ô"/><glyph d="M133 53q-53 53 -53 165v230q0 113 53 165.5t165 51.5h120q113 0 165.5 -52.5t52.5 -165.5v-229q0 -112 -52.5 -165t-165.5 -53h-120q-112 0 -165 53zM418 72q56 0 87.5 13.5t45 45t13.5 87.5v229q0 56 -13.5 87.5t-45 45t-87.5 13.5h-120q-56 1 -87.5 -12.5t-45 -45 t-13.5 -87.5v-230q0 -56 13.5 -87.5t45 -45t87.5 -13.5h120zM382.5 740.5q-17.5 10.5 -35.5 28.5q-13 14 -21 18.5t-19 4.5q-14 0 -23.5 -7.5t-17.5 -27.5q-8 -23 -26 -23q-4 0 -12 2q-22 6 -22 24q0 7 3 14q16 41 39.5 59.5t58.5 18.5q28 0 46 -11t37 -30q13 -13 20 -17 t17 -4q12 0 19.5 7t14.5 24q9 24 27 24q7 0 10 -1q23 -5 23 -25q0 -8 -2 -12q-14 -39 -36 -58t-56 -19q-27 0 -44.5 10.5z" glyph-name="Otilde" horiz-adv-x="716" unicode="Õ"/><glyph d="M133 53q-53 53 -53 165v230q0 113 53 165.5t165 51.5h120q113 0 165.5 -52.5t52.5 -165.5v-229q0 -112 -52.5 -165t-165.5 -53h-120q-112 0 -165 53zM418 72q56 0 87.5 13.5t45 45t13.5 87.5v229q0 56 -13.5 87.5t-45 45t-87.5 13.5h-120q-56 1 -87.5 -12.5t-45 -45 t-13.5 -87.5v-230q0 -56 13.5 -87.5t45 -45t87.5 -13.5h120zM241.5 752.5q-9.5 9.5 -9.5 26.5v23q0 35 36 35h22q34 0 34 -35v-23q0 -17 -9 -26.5t-25 -9.5h-22q-17 0 -26.5 9.5zM401.5 752.5q-9.5 9.5 -9.5 26.5v23q0 35 36 35h22q34 0 34 -35v-23q0 -17 -9 -26.5t-25 -9.5 h-22q-17 0 -26.5 9.5z" glyph-name="Odieresis" horiz-adv-x="716" unicode="Ö"/><glyph d="M448 218q11 -11 11 -22t-11 -22q-10 -10 -22 -10t-22 10l-107 108l-110 -110q-10 -10 -22 -10t-22 10t-10 22t10 22l110 110l-110 109q-10 10 -10 22t10 22q11 11 22 11t22 -11l110 -109l107 107q11 11 22 11t22 -11t11 -22t-11 -22l-107 -107z" glyph-name="multiply" horiz-adv-x="591" unicode="×"/><glyph d="M636 447v-229q0 -112 -52.5 -165t-165.5 -53h-120q-62 0 -105 15l-20 -33q-10 -18 -27 -18q-10 0 -20 7q-18 12 -18 27q0 10 6 20l20 33q-54 53 -54 167v230q0 113 53 165.5t165 51.5h120q51 0 85 -10l21 34q11 18 27 18q10 0 20 -7q18 -10 18 -27q0 -10 -7 -20l-16 -26 q70 -51 70 -180zM174 116l290 474q-21 3 -46 3h-120q-56 1 -87.5 -12.5t-45 -45t-13.5 -87.5v-230q0 -70 22 -102zM564 447q0 45 -8.5 73.5t-27.5 44.5l-296 -486q25 -7 66 -7h120q56 0 87.5 13.5t45 45t13.5 87.5v229z" glyph-name="Oslash" horiz-adv-x="716" unicode="Ø"/><glyph d="M143 53q-53 53 -53 165v411q0 17 9.5 26.5t26.5 9.5t26.5 -9.5t9.5 -26.5v-411q0 -56 13.5 -87.5t45 -45t87.5 -13.5h120q56 0 87.5 13.5t45 45t13.5 87.5v411q0 17 9.5 26.5t26.5 9.5t26.5 -9.5t9.5 -26.5v-411q0 -112 -52.5 -165t-165.5 -53h-120q-112 0 -165 53z M385 705q-13 0 -23 13l-78 93q-9 11 -9 22q0 13 13 23q10 9 22 9q13 0 23 -13l78 -93q9 -10 9 -22q0 -13 -13 -23q-11 -9 -22 -9z" glyph-name="Ugrave" horiz-adv-x="736" unicode="Ù"/><glyph d="M143 53q-53 53 -53 165v411q0 17 9.5 26.5t26.5 9.5t26.5 -9.5t9.5 -26.5v-411q0 -56 13.5 -87.5t45 -45t87.5 -13.5h120q56 0 87.5 13.5t45 45t13.5 87.5v411q0 17 9.5 26.5t26.5 9.5t26.5 -9.5t9.5 -26.5v-411q0 -112 -52.5 -165t-165.5 -53h-120q-112 0 -165 53z M331 750q0 12 9 22l78 93q10 13 23 13q11 0 22 -9q13 -10 13 -23q0 -11 -9 -22l-78 -93q-10 -13 -23 -13q-12 0 -22 9q-13 10 -13 23z" glyph-name="Uacute" horiz-adv-x="736" unicode="Ú"/><glyph d="M143 53q-53 53 -53 165v411q0 17 9.5 26.5t26.5 9.5t26.5 -9.5t9.5 -26.5v-411q0 -56 13.5 -87.5t45 -45t87.5 -13.5h120q56 0 87.5 13.5t45 45t13.5 87.5v411q0 17 9.5 26.5t26.5 9.5t26.5 -9.5t9.5 -26.5v-411q0 -112 -52.5 -165t-165.5 -53h-120q-112 0 -165 53z M222.5 723q-9.5 10 -9.5 23q0 8 4 15.5t11 12.5l95 79q18 15 41 15h6q23 0 41 -15l95 -79q7 -5 11 -12.5t4 -15.5q0 -13 -10 -23t-23 -10q-14 0 -24 10l-95 79h-4l-95 -79q-10 -10 -24 -10t-23.5 10z" glyph-name="Ucircumflex" horiz-adv-x="736" unicode="Û"/><glyph d="M143 53q-53 53 -53 165v411q0 17 9.5 26.5t26.5 9.5t26.5 -9.5t9.5 -26.5v-411q0 -56 13.5 -87.5t45 -45t87.5 -13.5h120q56 0 87.5 13.5t45 45t13.5 87.5v411q0 17 9.5 26.5t26.5 9.5t26.5 -9.5t9.5 -26.5v-411q0 -112 -52.5 -165t-165.5 -53h-120q-112 0 -165 53z M251.5 752.5q-9.5 9.5 -9.5 26.5v23q0 35 36 35h22q34 0 34 -35v-23q0 -17 -9 -26.5t-25 -9.5h-22q-17 0 -26.5 9.5zM411.5 752.5q-9.5 9.5 -9.5 26.5v23q0 35 36 35h22q34 0 34 -35v-23q0 -17 -9 -26.5t-25 -9.5h-22q-17 0 -26.5 9.5z" glyph-name="Udieresis" horiz-adv-x="736" unicode="Ü"/><glyph d="M567 629q0 -10 -8 -21l-233 -361v-211q0 -17 -9.5 -26.5t-26.5 -9.5t-26.5 9.5t-9.5 26.5v211l-227 361q-7 11 -7 21q0 17 18 29q11 7 22 7q18 0 28 -18l202 -323l209 323q10 18 27 18q11 0 22 -8q19 -11 19 -28zM256 750q0 12 9 22l78 93q10 13 23 13q11 0 22 -9 q13 -10 13 -23q0 -11 -9 -22l-78 -93q-10 -13 -23 -13q-12 0 -22 9q-13 10 -13 23z" glyph-name="Yacute" horiz-adv-x="587" unicode="Ý"/><glyph d="M458 519q47 -47 47 -136v-30q0 -89 -47 -136t-136 -47h-150v-134q0 -17 -9.5 -26.5t-26.5 -9.5t-26.5 9.5t-9.5 26.5v593q0 17 9.5 26.5t26.5 9.5t26.5 -9.5t9.5 -26.5v-63h150q89 0 136 -47zM433 383q0 59 -26 85t-85 26h-150v-252h150q59 0 85 26t26 85v30z" glyph-name="Thorn" horiz-adv-x="545" unicode="Þ"/><glyph d="M100 36v485q0 92 44 135.5t135 43.5t134.5 -43.5t43.5 -134.5q0 -89 -72 -127q70 -16 101 -56.5t31 -110.5v-40q0 -97 -45.5 -142.5t-142.5 -45.5h-61q-36 0 -36 36t36 36h61q45 0 70 10.5t35.5 35.5t10.5 70v40q0 45 -10.5 70t-35.5 35.5t-70 10.5h-14q-36 0 -36 37 q0 33 35 37q40 5 55.5 28.5t15.5 75.5q0 61 -22.5 83.5t-83.5 22.5t-84 -22.5t-23 -84.5v-485q0 -36 -36 -36t-36 36z" glyph-name="germandbls" horiz-adv-x="567" unicode="ß"/><glyph d="M484 448q46 -46 46 -144v-268q0 -17 -9.5 -26.5t-26.5 -9.5t-26.5 9.5t-9.5 26.5v32q-53 -68 -162 -68h-56q-82 0 -121 39t-39 121t39 121t121 39h218q-3 58 -29 80t-89 22h-58q-56 0 -82 -9.5t-35 -32.5q-7 -18 -15 -25t-24 -7t-26 8t-10 21q0 5 1 8q12 56 58.5 82.5 t132.5 26.5h58q98 0 144 -46zM458 165v83h-218q-52 0 -70 -18t-18 -70t18 -70t70 -18h56q137 0 158 81q2 8 4 12zM320 534q-13 0 -23 13l-78 93q-9 11 -9 22q0 13 13 23q10 9 22 9q13 0 23 -13l78 -93q9 -10 9 -22q0 -13 -13 -23q-11 -9 -22 -9z" glyph-name="agrave" horiz-adv-x="620" unicode="à"/><glyph d="M484 448q46 -46 46 -144v-268q0 -17 -9.5 -26.5t-26.5 -9.5t-26.5 9.5t-9.5 26.5v32q-53 -68 -162 -68h-56q-82 0 -121 39t-39 121t39 121t121 39h218q-3 58 -29 80t-89 22h-58q-56 0 -82 -9.5t-35 -32.5q-7 -18 -15 -25t-24 -7t-26 8t-10 21q0 5 1 8q12 56 58.5 82.5 t132.5 26.5h58q98 0 144 -46zM458 165v83h-218q-52 0 -70 -18t-18 -70t18 -70t70 -18h56q137 0 158 81q2 8 4 12zM266 579q0 12 9 22l78 93q10 13 23 13q11 0 22 -9q13 -10 13 -23q0 -11 -9 -22l-78 -93q-10 -13 -23 -13q-12 0 -22 9q-13 10 -13 23z" glyph-name="aacute" horiz-adv-x="620" unicode="á"/><glyph d="M484 448q46 -46 46 -144v-268q0 -17 -9.5 -26.5t-26.5 -9.5t-26.5 9.5t-9.5 26.5v32q-53 -68 -162 -68h-56q-82 0 -121 39t-39 121t39 121t121 39h218q-3 58 -29 80t-89 22h-58q-56 0 -82 -9.5t-35 -32.5q-7 -18 -15 -25t-24 -7t-26 8t-10 21q0 5 1 8q12 56 58.5 82.5 t132.5 26.5h58q98 0 144 -46zM458 165v83h-218q-52 0 -70 -18t-18 -70t18 -70t70 -18h56q137 0 158 81q2 8 4 12zM187 557q-9 9 -9 22q0 11 8 21l75 82q16 17 38 17h10q22 0 38 -17l75 -82q8 -10 8 -21q0 -13 -9 -22t-22 -9q-14 0 -23 10l-67 79h-10l-67 -79 q-10 -10 -23 -10t-22 9z" glyph-name="acircumflex" horiz-adv-x="620" unicode="â"/><glyph d="M484 448q46 -46 46 -144v-268q0 -17 -9.5 -26.5t-26.5 -9.5t-26.5 9.5t-9.5 26.5v32q-53 -68 -162 -68h-56q-82 0 -121 39t-39 121t39 121t121 39h218q-3 58 -29 80t-89 22h-58q-56 0 -82 -9.5t-35 -32.5q-7 -18 -15 -25t-24 -7t-26 8t-10 21q0 5 1 8q12 56 58.5 82.5 t132.5 26.5h58q98 0 144 -46zM458 165v83h-218q-52 0 -70 -18t-18 -70t18 -70t70 -18h56q137 0 158 81q2 8 4 12zM327.5 569.5q-17.5 10.5 -35.5 28.5q-13 14 -21 18.5t-19 4.5q-14 0 -23.5 -7.5t-17.5 -27.5q-8 -23 -26 -23q-4 0 -12 2q-22 6 -22 24q0 7 3 14 q16 41 39.5 59.5t58.5 18.5q28 0 46 -11t37 -30q13 -13 20 -17t17 -4q12 0 19.5 7t14.5 24q9 24 27 24q7 0 10 -1q23 -5 23 -25q0 -8 -2 -12q-14 -39 -36 -58t-56 -19q-27 0 -44.5 10.5z" glyph-name="atilde" horiz-adv-x="620" unicode="ã"/><glyph d="M484 448q46 -46 46 -144v-268q0 -17 -9.5 -26.5t-26.5 -9.5t-26.5 9.5t-9.5 26.5v32q-53 -68 -162 -68h-56q-82 0 -121 39t-39 121t39 121t121 39h218q-3 58 -29 80t-89 22h-58q-56 0 -82 -9.5t-35 -32.5q-7 -18 -15 -25t-24 -7t-26 8t-10 21q0 5 1 8q12 56 58.5 82.5 t132.5 26.5h58q98 0 144 -46zM458 165v83h-218q-52 0 -70 -18t-18 -70t18 -70t70 -18h56q137 0 158 81q2 8 4 12zM186.5 581.5q-9.5 9.5 -9.5 26.5v23q0 35 36 35h22q34 0 34 -35v-23q0 -17 -9 -26.5t-25 -9.5h-22q-17 0 -26.5 9.5zM346.5 581.5q-9.5 9.5 -9.5 26.5v23 q0 35 36 35h22q34 0 34 -35v-23q0 -17 -9 -26.5t-25 -9.5h-22q-17 0 -26.5 9.5z" glyph-name="adieresis" horiz-adv-x="620" unicode="ä"/><glyph d="M484 448q46 -46 46 -144v-268q0 -17 -9.5 -26.5t-26.5 -9.5t-26.5 9.5t-9.5 26.5v32q-53 -68 -162 -68h-56q-82 0 -121 39t-39 121t39 121t121 39h218q-3 58 -29 80t-89 22h-58q-56 0 -82 -9.5t-35 -32.5q-7 -18 -15 -25t-24 -7t-26 8t-10 21q0 5 1 8q12 56 58.5 82.5 t132.5 26.5h58q98 0 144 -46zM458 165v83h-218q-52 0 -70 -18t-18 -70t18 -70t70 -18h56q137 0 158 81q2 8 4 12zM246.5 568.5q-20.5 20.5 -20.5 56.5t20.5 56.5t56.5 20.5t56.5 -20.5t20.5 -56.5t-20.5 -56.5t-56.5 -20.5t-56.5 20.5zM323.5 605q3.5 4 3.5 20q0 17 -4 20.5 t-20 3.5q-17 0 -20.5 -4t-3.5 -20q0 -17 4 -20.5t20 -3.5q17 0 20.5 4z" glyph-name="aring" horiz-adv-x="620" unicode="å"/><glyph d="M467 71q-59 -85 -191 -85h-36q-82 0 -121 39t-39 121t39 121t121 39h198q-4 56 -29.5 77.5t-88.5 21.5h-38q-48 0 -74.5 -7t-37 -23t-10.5 -44q0 -15 -10.5 -25.5t-25.5 -10.5t-25.5 10.5t-10.5 25.5q0 75 47.5 110.5t146.5 35.5h38q108 0 154 -78q44 78 150 77h60 q95 0 140.5 -50.5t45.5 -155.5q0 -17 -9.5 -26.5t-27.5 -9.5h-323v-58q0 -47 10.5 -72.5t35 -36.5t67.5 -11h61q45 0 69.5 7.5t34.5 24.5t10 47q0 15 10.5 25.5t25.5 10.5t25.5 -10.5t10.5 -25.5q0 -78 -45.5 -114.5t-140.5 -36.5h-61q-112 0 -156 87zM796 306 q-5 54 -30.5 76t-81.5 22h-60q-60 1 -85 -20.5t-28 -77.5h285zM276 58q84 0 123 28t39 86v62h-198q-52 0 -70 -18t-18 -70t18 -70t70 -18h36z" glyph-name="ae" horiz-adv-x="950" unicode="æ"/><glyph d="M512 130q10 -10 7 -28q-19 -94 -143 -101q4 -8 21 -19q21 -14 35 -31.5t14 -47.5q0 -113 -113 -113q-46 0 -69.5 23.5t-23.5 69.5q0 31 31 31t31 -31q0 -20 6 -25.5t25 -5.5q31 0 41 10t10 41q0 8 -4 13t-18 15q-20 14 -33 28.5t-17 40.5h-42q-97 0 -143.5 46.5 t-46.5 143.5v115q0 98 46.5 144t143.5 45h82q74 0 115.5 -25t51.5 -77q3 -18 -7 -28t-29 -10q-15 0 -23 8t-14 25q-7 19 -28.5 27t-65.5 8h-82q-46 1 -71 -10t-36 -36t-11 -71v-115q0 -46 11 -71t36 -36t71 -11h82q44 0 65.5 8t28.5 27q6 17 14 25t24 8q18 0 28 -10z" glyph-name="ccedilla" horiz-adv-x="580" unicode="ç"/><glyph d="M152 218v-29q0 -45 11 -70t36 -36t71 -11h82q56 0 82 12t33 42q4 17 12.5 25.5t25.5 8.5q18 0 27.5 -9.5t6.5 -27.5q-10 -63 -56 -93t-131 -30h-82q-97 0 -143.5 46t-46.5 143v115q0 98 46.5 144.5t143.5 45.5h82q98 0 144 -46t46 -144v-50q0 -17 -9.5 -26.5t-26.5 -9.5 h-354zM152 290h318v14q0 46 -11 71t-36 36t-71 11h-82q-46 1 -71 -10t-36 -36.5t-11 -71.5v-14zM331 534q-13 0 -23 13l-78 93q-9 11 -9 22q0 13 13 23q10 9 22 9q13 0 23 -13l78 -93q9 -10 9 -22q0 -13 -13 -23q-11 -9 -22 -9z" glyph-name="egrave" unicode="è"/><glyph d="M152 218v-29q0 -45 11 -70t36 -36t71 -11h82q56 0 82 12t33 42q4 17 12.5 25.5t25.5 8.5q18 0 27.5 -9.5t6.5 -27.5q-10 -63 -56 -93t-131 -30h-82q-97 0 -143.5 46t-46.5 143v115q0 98 46.5 144.5t143.5 45.5h82q98 0 144 -46t46 -144v-50q0 -17 -9.5 -26.5t-26.5 -9.5 h-354zM152 290h318v14q0 46 -11 71t-36 36t-71 11h-82q-46 1 -71 -10t-36 -36.5t-11 -71.5v-14zM277 579q0 12 9 22l78 93q10 13 23 13q11 0 22 -9q13 -10 13 -23q0 -11 -9 -22l-78 -93q-10 -13 -23 -13q-12 0 -22 9q-13 10 -13 23z" glyph-name="eacute" unicode="é"/><glyph d="M152 218v-29q0 -45 11 -70t36 -36t71 -11h82q56 0 82 12t33 42q4 17 12.5 25.5t25.5 8.5q18 0 27.5 -9.5t6.5 -27.5q-10 -63 -56 -93t-131 -30h-82q-97 0 -143.5 46t-46.5 143v115q0 98 46.5 144.5t143.5 45.5h82q98 0 144 -46t46 -144v-50q0 -17 -9.5 -26.5t-26.5 -9.5 h-354zM152 290h318v14q0 46 -11 71t-36 36t-71 11h-82q-46 1 -71 -10t-36 -36.5t-11 -71.5v-14zM198 557q-9 9 -9 22q0 11 8 21l75 82q16 17 38 17h10q22 0 38 -17l75 -82q8 -10 8 -21q0 -13 -9 -22t-22 -9q-14 0 -23 10l-67 79h-10l-67 -79q-10 -10 -23 -10t-22 9z" glyph-name="ecircumflex" unicode="ê"/><glyph d="M152 218v-29q0 -45 11 -70t36 -36t71 -11h82q56 0 82 12t33 42q4 17 12.5 25.5t25.5 8.5q18 0 27.5 -9.5t6.5 -27.5q-10 -63 -56 -93t-131 -30h-82q-97 0 -143.5 46t-46.5 143v115q0 98 46.5 144.5t143.5 45.5h82q98 0 144 -46t46 -144v-50q0 -17 -9.5 -26.5t-26.5 -9.5 h-354zM152 290h318v14q0 46 -11 71t-36 36t-71 11h-82q-46 1 -71 -10t-36 -36.5t-11 -71.5v-14zM197.5 581.5q-9.5 9.5 -9.5 26.5v23q0 35 36 35h22q34 0 34 -35v-23q0 -17 -9 -26.5t-25 -9.5h-22q-17 0 -26.5 9.5zM357.5 581.5q-9.5 9.5 -9.5 26.5v23q0 35 36 35h22 q34 0 34 -35v-23q0 -17 -9 -26.5t-25 -9.5h-22q-17 0 -26.5 9.5z" glyph-name="edieresis" unicode="ë"/><glyph d="M109.5 9.5q-9.5 9.5 -9.5 26.5v422q0 17 9.5 26.5t26.5 9.5t26.5 -9.5t9.5 -26.5v-422q0 -17 -9.5 -26.5t-26.5 -9.5t-26.5 9.5zM152 534q-13 0 -23 13l-78 93q-9 11 -9 22q0 13 13 23q10 9 22 9q13 0 23 -13l78 -93q9 -10 9 -22q0 -13 -13 -23q-11 -9 -22 -9z" glyph-name="igrave" horiz-adv-x="272" unicode="ì"/><glyph d="M109.5 9.5q-9.5 9.5 -9.5 26.5v422q0 17 9.5 26.5t26.5 9.5t26.5 -9.5t9.5 -26.5v-422q0 -17 -9.5 -26.5t-26.5 -9.5t-26.5 9.5zM98 579q0 12 9 22l78 93q10 13 23 13q11 0 22 -9q13 -10 13 -23q0 -11 -9 -22l-78 -93q-10 -13 -23 -13q-12 0 -22 9q-13 10 -13 23z" glyph-name="iacute" horiz-adv-x="272" unicode="í"/><glyph d="M109.5 9.5q-9.5 9.5 -9.5 26.5v422q0 17 9.5 26.5t26.5 9.5t26.5 -9.5t9.5 -26.5v-422q0 -17 -9.5 -26.5t-26.5 -9.5t-26.5 9.5zM19 557q-9 9 -9 22q0 11 8 21l75 82q16 17 38 17h10q22 0 38 -17l75 -82q8 -10 8 -21q0 -13 -9 -22t-22 -9q-14 0 -23 10l-67 79h-10 l-67 -79q-10 -10 -23 -10t-22 9z" glyph-name="icircumflex" horiz-adv-x="272" unicode="î"/><glyph d="M109.5 9.5q-9.5 9.5 -9.5 26.5v422q0 17 9.5 26.5t26.5 9.5t26.5 -9.5t9.5 -26.5v-422q0 -17 -9.5 -26.5t-26.5 -9.5t-26.5 9.5zM18.5 581.5q-9.5 9.5 -9.5 26.5v23q0 35 36 35h22q34 0 34 -35v-23q0 -17 -9 -26.5t-25 -9.5h-22q-17 0 -26.5 9.5zM178.5 581.5 q-9.5 9.5 -9.5 26.5v23q0 35 36 35h22q34 0 34 -35v-23q0 -17 -9 -26.5t-25 -9.5h-22q-17 0 -26.5 9.5z" glyph-name="idieresis" horiz-adv-x="272" unicode="ï"/><glyph d="M506.5 572q32.5 -79 35.5 -241v-141q0 -97 -46 -143.5t-144 -46.5h-82q-97 0 -143.5 46t-46.5 143v115q0 98 46 144t144 46h82q67 0 111 -45q-8 76 -26.5 108.5t-52.5 40.5l-78 20l-61 -57q-11 -11 -22 -11q-12 0 -23 12q-10 10 -10 22q0 13 11 23l31 29l-81 21 q-28 8 -28 31q0 3 2 13q8 28 31 28q3 0 13 -2l126 -32l55 52q11 11 22 11q12 0 23 -12q10 -10 10 -22q0 -13 -11 -23l-26 -24l34 -9q72 -17 104.5 -96zM470 304q0 46 -11 71t-36 36t-71 11h-82q-46 0 -71 -10.5t-36 -36t-11 -71.5v-115q0 -45 11 -70t36 -36t71 -11h82 q46 0 71 11t36 36t11 71v114z" glyph-name="eth" unicode="ð"/><glyph d="M506 448q46 -46 46 -144v-268q0 -17 -9.5 -26.5t-26.5 -9.5t-26.5 9.5t-9.5 26.5v268q0 46 -11 71t-36 36t-71 11h-28q-74 0 -118 -20.5t-44 -60.5v-305q0 -17 -9.5 -26.5t-26.5 -9.5t-26.5 9.5t-9.5 26.5v422q0 17 9.5 26.5t26.5 9.5t26.5 -9.5t9.5 -26.5v-28 q52 64 162 64h28q98 0 144 -46zM371.5 569.5q-17.5 10.5 -35.5 28.5q-13 14 -21 18.5t-19 4.5q-14 0 -23.5 -7.5t-17.5 -27.5q-8 -23 -26 -23q-4 0 -12 2q-22 6 -22 24q0 7 3 14q16 41 39.5 59.5t58.5 18.5q28 0 46 -11t37 -30q13 -13 20 -17t17 -4q12 0 19.5 7t14.5 24 q9 24 27 24q7 0 10 -1q23 -5 23 -25q0 -8 -2 -12q-14 -39 -36 -58t-56 -19q-27 0 -44.5 10.5z" glyph-name="ntilde" horiz-adv-x="642" unicode="ñ"/><glyph d="M126.5 46q-46.5 46 -46.5 143v115q0 98 46 144t144 46h82q98 0 144 -46t46 -144v-114q0 -97 -46 -143.5t-144 -46.5h-82q-97 0 -143.5 46zM352 72q46 0 71 11t36 36t11 71v114q0 46 -11 71t-36 36t-71 11h-82q-46 0 -71 -10.5t-36 -36t-11 -71.5v-115q0 -45 11 -70 t36 -36t71 -11h82zM328 534q-13 0 -23 13l-78 93q-9 11 -9 22q0 13 13 23q10 9 22 9q13 0 23 -13l78 -93q9 -10 9 -22q0 -13 -13 -23q-11 -9 -22 -9z" glyph-name="ograve" unicode="ò"/><glyph d="M126.5 46q-46.5 46 -46.5 143v115q0 98 46 144t144 46h82q98 0 144 -46t46 -144v-114q0 -97 -46 -143.5t-144 -46.5h-82q-97 0 -143.5 46zM352 72q46 0 71 11t36 36t11 71v114q0 46 -11 71t-36 36t-71 11h-82q-46 0 -71 -10.5t-36 -36t-11 -71.5v-115q0 -45 11 -70 t36 -36t71 -11h82zM274 579q0 12 9 22l78 93q10 13 23 13q11 0 22 -9q13 -10 13 -23q0 -11 -9 -22l-78 -93q-10 -13 -23 -13q-12 0 -22 9q-13 10 -13 23z" glyph-name="oacute" unicode="ó"/><glyph d="M126.5 46q-46.5 46 -46.5 143v115q0 98 46 144t144 46h82q98 0 144 -46t46 -144v-114q0 -97 -46 -143.5t-144 -46.5h-82q-97 0 -143.5 46zM352 72q46 0 71 11t36 36t11 71v114q0 46 -11 71t-36 36t-71 11h-82q-46 0 -71 -10.5t-36 -36t-11 -71.5v-115q0 -45 11 -70 t36 -36t71 -11h82zM195 557q-9 9 -9 22q0 11 8 21l75 82q16 17 38 17h10q22 0 38 -17l75 -82q8 -10 8 -21q0 -13 -9 -22t-22 -9q-14 0 -23 10l-67 79h-10l-67 -79q-10 -10 -23 -10t-22 9z" glyph-name="ocircumflex" unicode="ô"/><glyph d="M126.5 46q-46.5 46 -46.5 143v115q0 98 46 144t144 46h82q98 0 144 -46t46 -144v-114q0 -97 -46 -143.5t-144 -46.5h-82q-97 0 -143.5 46zM352 72q46 0 71 11t36 36t11 71v114q0 46 -11 71t-36 36t-71 11h-82q-46 0 -71 -10.5t-36 -36t-11 -71.5v-115q0 -45 11 -70 t36 -36t71 -11h82zM335.5 569.5q-17.5 10.5 -35.5 28.5q-13 14 -21 18.5t-19 4.5q-14 0 -23.5 -7.5t-17.5 -27.5q-8 -23 -26 -23q-4 0 -12 2q-22 6 -22 24q0 7 3 14q16 41 39.5 59.5t58.5 18.5q28 0 46 -11t37 -30q13 -13 20 -17t17 -4q12 0 19.5 7t14.5 24q9 24 27 24 q7 0 10 -1q23 -5 23 -25q0 -8 -2 -12q-14 -39 -36 -58t-56 -19q-27 0 -44.5 10.5z" glyph-name="otilde" unicode="õ"/><glyph d="M126.5 46q-46.5 46 -46.5 143v115q0 98 46 144t144 46h82q98 0 144 -46t46 -144v-114q0 -97 -46 -143.5t-144 -46.5h-82q-97 0 -143.5 46zM352 72q46 0 71 11t36 36t11 71v114q0 46 -11 71t-36 36t-71 11h-82q-46 0 -71 -10.5t-36 -36t-11 -71.5v-115q0 -45 11 -70 t36 -36t71 -11h82zM194.5 581.5q-9.5 9.5 -9.5 26.5v23q0 35 36 35h22q34 0 34 -35v-23q0 -17 -9 -26.5t-25 -9.5h-22q-17 0 -26.5 9.5zM354.5 581.5q-9.5 9.5 -9.5 26.5v23q0 35 36 35h22q34 0 34 -35v-23q0 -17 -9 -26.5t-25 -9.5h-22q-17 0 -26.5 9.5z" glyph-name="odieresis" unicode="ö"/><glyph d="M80 327q0 31 31 31h369q31 0 31 -31t-31 -31h-369q-31 0 -31 31zM257.5 163.5q-9.5 9.5 -9.5 26.5v23q0 35 36 35h22q34 0 34 -35v-23q0 -17 -9 -26.5t-25 -9.5h-22q-17 0 -26.5 9.5zM257.5 493.5q-9.5 9.5 -9.5 26.5v23q0 35 36 35h22q34 0 34 -35v-23q0 -17 -9 -26.5 t-25 -9.5h-22q-17 0 -26.5 9.5z" glyph-name="divide" horiz-adv-x="591" unicode="÷"/><glyph d="M542 304v-114q0 -97 -46 -143.5t-144 -46.5h-82q-38 0 -72 8l-36 -59q-11 -17 -25 -17q-8 0 -19 6q-17 11 -17 25q0 8 6 19l33 52q-60 45 -60 155v115q0 98 46 144t144 46h82q37 0 71 -8l23 38q10 16 25 16q9 0 19 -6q16 -10 16 -24q0 -9 -6 -20l-18 -30q60 -45 60 -156z M152 189q0 -36 7 -59.5t22 -35.5l204 326q-10 2 -33 2h-82q-46 0 -71 -10.5t-36 -36t-11 -71.5v-115zM470 304q0 37 -7 60t-22 36l-204 -326q10 -2 33 -2h82q46 0 71 11t36 36t11 71v114z" glyph-name="oslash" unicode="ø"/><glyph d="M532.5 484.5q9.5 -9.5 9.5 -26.5v-422q0 -17 -9.5 -26.5t-26.5 -9.5t-26.5 9.5t-9.5 26.5v28q-52 -64 -162 -64h-28q-97 0 -143.5 46.5t-46.5 143.5v268q0 17 9.5 26.5t26.5 9.5t26.5 -9.5t9.5 -26.5v-268q0 -46 11 -71t36 -36t71 -11h28q74 0 118 20.5t44 60.5v305 q0 17 9.5 26.5t26.5 9.5t26.5 -9.5zM333 534q-13 0 -23 13l-78 93q-9 11 -9 22q0 13 13 23q10 9 22 9q13 0 23 -13l78 -93q9 -10 9 -22q0 -13 -13 -23q-11 -9 -22 -9z" glyph-name="ugrave" horiz-adv-x="642" unicode="ù"/><glyph d="M532.5 484.5q9.5 -9.5 9.5 -26.5v-422q0 -17 -9.5 -26.5t-26.5 -9.5t-26.5 9.5t-9.5 26.5v28q-52 -64 -162 -64h-28q-97 0 -143.5 46.5t-46.5 143.5v268q0 17 9.5 26.5t26.5 9.5t26.5 -9.5t9.5 -26.5v-268q0 -46 11 -71t36 -36t71 -11h28q74 0 118 20.5t44 60.5v305 q0 17 9.5 26.5t26.5 9.5t26.5 -9.5zM279 579q0 12 9 22l78 93q10 13 23 13q11 0 22 -9q13 -10 13 -23q0 -11 -9 -22l-78 -93q-10 -13 -23 -13q-12 0 -22 9q-13 10 -13 23z" glyph-name="uacute" horiz-adv-x="642" unicode="ú"/><glyph d="M532.5 484.5q9.5 -9.5 9.5 -26.5v-422q0 -17 -9.5 -26.5t-26.5 -9.5t-26.5 9.5t-9.5 26.5v28q-52 -64 -162 -64h-28q-97 0 -143.5 46.5t-46.5 143.5v268q0 17 9.5 26.5t26.5 9.5t26.5 -9.5t9.5 -26.5v-268q0 -46 11 -71t36 -36t71 -11h28q74 0 118 20.5t44 60.5v305 q0 17 9.5 26.5t26.5 9.5t26.5 -9.5zM200 557q-9 9 -9 22q0 11 8 21l75 82q16 17 38 17h10q22 0 38 -17l75 -82q8 -10 8 -21q0 -13 -9 -22t-22 -9q-14 0 -23 10l-67 79h-10l-67 -79q-10 -10 -23 -10t-22 9z" glyph-name="ucircumflex" horiz-adv-x="642" unicode="û"/><glyph d="M532.5 484.5q9.5 -9.5 9.5 -26.5v-422q0 -17 -9.5 -26.5t-26.5 -9.5t-26.5 9.5t-9.5 26.5v28q-52 -64 -162 -64h-28q-97 0 -143.5 46.5t-46.5 143.5v268q0 17 9.5 26.5t26.5 9.5t26.5 -9.5t9.5 -26.5v-268q0 -46 11 -71t36 -36t71 -11h28q74 0 118 20.5t44 60.5v305 q0 17 9.5 26.5t26.5 9.5t26.5 -9.5zM199.5 581.5q-9.5 9.5 -9.5 26.5v23q0 35 36 35h22q34 0 34 -35v-23q0 -17 -9 -26.5t-25 -9.5h-22q-17 0 -26.5 9.5zM359.5 581.5q-9.5 9.5 -9.5 26.5v23q0 35 36 35h22q34 0 34 -35v-23q0 -17 -9 -26.5t-25 -9.5h-22q-17 0 -26.5 9.5z" glyph-name="udieresis" horiz-adv-x="642" unicode="ü"/><glyph d="M124 -165.5q-34 34.5 -34 104.5q0 36 36 36t36 -36q0 -40 13 -53.5t53 -13.5h186q40 0 53 13.5t13 53.5v131q-28 -40 -67 -55t-95 -15h-41q-96 0 -141.5 45t-45.5 141v272q0 36 36 36t36 -36v-272q0 -45 10.5 -69.5t35 -34.5t69.5 -10h41q84 0 123 28t39 86v272 q0 36 36 36t36 -36v-519q0 -70 -34 -104.5t-104 -34.5h-186q-70 0 -104 34.5zM284 579q0 12 9 22l78 93q10 13 23 13q11 0 22 -9q13 -10 13 -23q0 -11 -9 -22l-78 -93q-10 -13 -23 -13q-12 0 -22 9q-13 10 -13 23z" glyph-name="yacute" horiz-adv-x="652" unicode="ý"/><glyph d="M108.5 -192q-8.5 8 -8.5 28v802q0 20 8.5 28t27.5 8q20 0 28 -8t8 -28v-216q59 70 162 70h38q98 0 144 -46t46 -144v-111q0 -97 -46 -143.5t-144 -46.5h-200v-165q0 -20 -8 -28t-28 -8q-19 0 -27.5 8zM372 73q46 0 71 11t36 36t11 71v111q0 46 -11 71t-36 36t-71 11h-38 q-84 0 -123 -28t-39 -86v-233h200z" glyph-name="thorn" horiz-adv-x="642" unicode="þ"/><glyph d="M124 -165.5q-34 34.5 -34 104.5q0 36 36 36t36 -36q0 -40 13 -53.5t53 -13.5h186q40 0 53 13.5t13 53.5v131q-28 -40 -67 -55t-95 -15h-41q-96 0 -141.5 45t-45.5 141v272q0 36 36 36t36 -36v-272q0 -45 10.5 -69.5t35 -34.5t69.5 -10h41q84 0 123 28t39 86v272 q0 36 36 36t36 -36v-519q0 -70 -34 -104.5t-104 -34.5h-186q-70 0 -104 34.5zM204.5 581.5q-9.5 9.5 -9.5 26.5v23q0 35 36 35h22q34 0 34 -35v-23q0 -17 -9 -26.5t-25 -9.5h-22q-17 0 -26.5 9.5zM364.5 581.5q-9.5 9.5 -9.5 26.5v23q0 35 36 35h22q34 0 34 -35v-23 q0 -17 -9 -26.5t-25 -9.5h-22q-17 0 -26.5 9.5z" glyph-name="ydieresis" horiz-adv-x="652" unicode="ÿ"/><glyph d="M611 34q0 -21 -23 -30q-9 -4 -18 -4q-20 0 -29 23l-59 141h-317l-57 -141q-9 -23 -30 -23q-9 0 -17 4q-24 9 -24 30q0 9 4 17l241 586q12 28 41 28h2q27 0 39 -28l243 -586q4 -8 4 -17zM194 236h258l-131 315zM158 796q0 36 36 36h253q36 0 36 -36t-36 -36h-253 q-36 0 -36 36z" glyph-name="Amacron" horiz-adv-x="646" unicode="Ā"/><glyph d="M484 448q46 -46 46 -144v-268q0 -17 -9.5 -26.5t-26.5 -9.5t-26.5 9.5t-9.5 26.5v32q-53 -68 -162 -68h-56q-82 0 -121 39t-39 121t39 121t121 39h218q-3 58 -29 80t-89 22h-58q-56 0 -82 -9.5t-35 -32.5q-7 -18 -15 -25t-24 -7t-26 8t-10 21q0 5 1 8q12 56 58.5 82.5 t132.5 26.5h58q98 0 144 -46zM458 165v83h-218q-52 0 -70 -18t-18 -70t18 -70t70 -18h56q137 0 158 81q2 8 4 12zM137 625q0 36 36 36h253q36 0 36 -36t-36 -36h-253q-36 0 -36 36z" glyph-name="amacron" horiz-adv-x="620" unicode="ā"/><glyph d="M611 34q0 -21 -23 -30q-9 -4 -18 -4q-20 0 -29 23l-59 141h-317l-57 -141q-9 -23 -30 -23q-9 0 -17 4q-24 9 -24 30q0 9 4 17l241 586q12 28 41 28h2q27 0 39 -28l243 -586q4 -8 4 -17zM194 236h258l-131 315zM236.5 741.5q-34.5 26.5 -34.5 76.5v16q0 32 32 32t32 -32 v-16q0 -23 15 -33t54 -10t54 10t15 33v24q0 24 32 24t32 -32v-16q0 -50 -34.5 -76.5t-98.5 -26.5t-98.5 26.5z" glyph-name="Abreve" horiz-adv-x="646" unicode="Ă"/><glyph d="M484 448q46 -46 46 -144v-268q0 -17 -9.5 -26.5t-26.5 -9.5t-26.5 9.5t-9.5 26.5v32q-53 -68 -162 -68h-56q-82 0 -121 39t-39 121t39 121t121 39h218q-3 58 -29 80t-89 22h-58q-56 0 -82 -9.5t-35 -32.5q-7 -18 -15 -25t-24 -7t-26 8t-10 21q0 5 1 8q12 56 58.5 82.5 t132.5 26.5h58q98 0 144 -46zM458 165v83h-218q-52 0 -70 -18t-18 -70t18 -70t70 -18h56q137 0 158 81q2 8 4 12zM215.5 570.5q-34.5 26.5 -34.5 76.5v16q0 32 32 32t32 -32v-16q0 -23 15 -33t54 -10t54 10t15 33v24q0 24 32 24t32 -32v-16q0 -50 -34.5 -76.5t-98.5 -26.5 t-98.5 26.5z" glyph-name="abreve" horiz-adv-x="620" unicode="ă"/><glyph d="M674 -98.5q9 -9.5 9 -22.5q0 -14 -9 -23q-21 -20 -46.5 -31.5t-50.5 -11.5q-42 0 -70.5 26t-28.5 64q0 33 24 65l39 55l-59 141h-317l-57 -141q-9 -23 -30 -23q-9 0 -17 4q-24 9 -24 30q0 9 4 17l241 586q12 28 41 28h2q27 0 39 -28l243 -586q4 -9 4 -20q1 -3 1 -9 q0 -11 -6 -19l-52 -73q-12 -15 -12 -27q0 -11 9.5 -18.5t25.5 -7.5q27 0 51 25q11 9 23 9q14 0 23 -9.5zM194 236h258l-131 315z" glyph-name="Aogonek" horiz-adv-x="646" unicode="Ą"/><glyph d="M588 -93.5q9 -9.5 9 -22.5q0 -14 -9 -23q-21 -20 -46.5 -31.5t-50.5 -11.5q-42 0 -70.5 26t-28.5 64q0 33 24 65l42 59v4v32q-53 -68 -162 -68h-56q-82 0 -121 39t-39 121t39 121t121 39h218q-3 58 -29 80t-89 22h-58q-56 0 -82 -9.5t-35 -32.5q-7 -18 -15 -25t-24 -7 t-26 8t-10 21q0 5 1 8q12 56 58.5 82.5t132.5 26.5h58q98 0 144 -46t46 -144v-268q0 -15 -8 -25l-2 -3l-52 -73q-12 -15 -12 -27q0 -11 9.5 -18.5t25.5 -7.5q27 0 51 25q11 9 23 9q14 0 23 -9.5zM458 165v83h-218q-52 0 -70 -18t-18 -70t18 -70t70 -18h56q137 0 158 81 q2 8 4 12z" glyph-name="aogonek" horiz-adv-x="620" unicode="ą"/><glyph d="M133 53q-53 53 -53 165v229q0 113 52.5 166t164.5 52h121q93 0 141 -38.5t55 -122.5q2 -18 -7.5 -27.5t-27.5 -9.5q-32 0 -37 36q-5 51 -32.5 70.5t-91.5 19.5h-121q-55 1 -86.5 -12.5t-45 -45.5t-13.5 -88v-229q0 -56 13.5 -87.5t45 -45t87.5 -13.5h120q64 0 91.5 19.5 t32.5 70.5q5 36 37 36q18 0 27.5 -9.5t7.5 -27.5q-7 -84 -55 -122.5t-141 -38.5h-120q-112 0 -165 53zM324 750q0 12 9 22l78 93q10 13 23 13q11 0 22 -9q13 -10 13 -23q0 -11 -9 -22l-78 -93q-10 -13 -23 -13q-12 0 -22 9q-13 10 -13 23z" glyph-name="Cacute" horiz-adv-x="684" unicode="Ć"/><glyph d="M126.5 46.5q-46.5 46.5 -46.5 143.5v115q0 98 46.5 144t143.5 45h82q74 0 115.5 -25t51.5 -77q3 -18 -7 -28t-29 -10q-15 0 -23 8t-14 25q-7 19 -28.5 27t-65.5 8h-82q-46 1 -71 -10t-36 -36t-11 -71v-115q0 -46 11 -71t36 -36t71 -11h82q44 0 65.5 8t28.5 27q6 17 14 25 t24 8q18 0 28 -10t7 -28q-10 -52 -51.5 -77t-115.5 -25h-82q-97 0 -143.5 46.5zM274 579q0 12 9 22l78 93q10 13 23 13q11 0 22 -9q13 -10 13 -23q0 -11 -9 -22l-78 -93q-10 -13 -23 -13q-12 0 -22 9q-13 10 -13 23z" glyph-name="cacute" horiz-adv-x="580" unicode="ć"/><glyph d="M133 53q-53 53 -53 165v229q0 113 52.5 166t164.5 52h121q93 0 141 -38.5t55 -122.5q2 -18 -7.5 -27.5t-27.5 -9.5q-32 0 -37 36q-5 51 -32.5 70.5t-91.5 19.5h-121q-55 1 -86.5 -12.5t-45 -45.5t-13.5 -88v-229q0 -56 13.5 -87.5t45 -45t87.5 -13.5h120q64 0 91.5 19.5 t32.5 70.5q5 36 37 36q18 0 27.5 -9.5t7.5 -27.5q-7 -84 -55 -122.5t-141 -38.5h-120q-112 0 -165 53zM245 728q-9 9 -9 22q0 11 8 21l75 82q16 17 38 17h10q22 0 38 -17l75 -82q8 -10 8 -21q0 -13 -9 -22t-22 -9q-14 0 -23 10l-67 79h-10l-67 -79q-10 -10 -23 -10t-22 9z" glyph-name="Ccircumflex" horiz-adv-x="684" unicode="Ĉ"/><glyph d="M126.5 46.5q-46.5 46.5 -46.5 143.5v115q0 98 46.5 144t143.5 45h82q74 0 115.5 -25t51.5 -77q3 -18 -7 -28t-29 -10q-15 0 -23 8t-14 25q-7 19 -28.5 27t-65.5 8h-82q-46 1 -71 -10t-36 -36t-11 -71v-115q0 -46 11 -71t36 -36t71 -11h82q44 0 65.5 8t28.5 27q6 17 14 25 t24 8q18 0 28 -10t7 -28q-10 -52 -51.5 -77t-115.5 -25h-82q-97 0 -143.5 46.5zM195 557q-9 9 -9 22q0 11 8 21l75 82q16 17 38 17h10q22 0 38 -17l75 -82q8 -10 8 -21q0 -13 -9 -22t-22 -9q-14 0 -23 10l-67 79h-10l-67 -79q-10 -10 -23 -10t-22 9z" glyph-name="ccircumflex" horiz-adv-x="580" unicode="ĉ"/><glyph d="M133 53q-53 53 -53 165v229q0 113 52.5 166t164.5 52h121q93 0 141 -38.5t55 -122.5q2 -18 -7.5 -27.5t-27.5 -9.5q-32 0 -37 36q-5 51 -32.5 70.5t-91.5 19.5h-121q-55 1 -86.5 -12.5t-45 -45.5t-13.5 -88v-229q0 -56 13.5 -87.5t45 -45t87.5 -13.5h120q64 0 91.5 19.5 t32.5 70.5q5 36 37 36q18 0 27.5 -9.5t7.5 -27.5q-7 -84 -55 -122.5t-141 -38.5h-120q-112 0 -165 53zM317 761.5q-11 11.5 -11 31.5v28q0 41 43 41h26q20 0 30.5 -10.5t10.5 -30.5v-28q0 -20 -11 -31.5t-30 -11.5h-26q-21 0 -32 11.5z" glyph-name="Cdotaccent" horiz-adv-x="684" unicode="Ċ"/><glyph d="M126.5 46.5q-46.5 46.5 -46.5 143.5v115q0 98 46.5 144t143.5 45h82q74 0 115.5 -25t51.5 -77q3 -18 -7 -28t-29 -10q-15 0 -23 8t-14 25q-7 19 -28.5 27t-65.5 8h-82q-46 1 -71 -10t-36 -36t-11 -71v-115q0 -46 11 -71t36 -36t71 -11h82q44 0 65.5 8t28.5 27q6 17 14 25 t24 8q18 0 28 -10t7 -28q-10 -52 -51.5 -77t-115.5 -25h-82q-97 0 -143.5 46.5zM267 590.5q-11 11.5 -11 31.5v28q0 41 43 41h26q20 0 30.5 -10.5t10.5 -30.5v-28q0 -20 -11 -31.5t-30 -11.5h-26q-21 0 -32 11.5z" glyph-name="cdotaccent" horiz-adv-x="580" unicode="ċ"/><glyph d="M133 53q-53 53 -53 165v229q0 113 52.5 166t164.5 52h121q93 0 141 -38.5t55 -122.5q2 -18 -7.5 -27.5t-27.5 -9.5q-32 0 -37 36q-5 51 -32.5 70.5t-91.5 19.5h-121q-55 1 -86.5 -12.5t-45 -45.5t-13.5 -88v-229q0 -56 13.5 -87.5t45 -45t87.5 -13.5h120q64 0 91.5 19.5 t32.5 70.5q5 36 37 36q18 0 27.5 -9.5t7.5 -27.5q-7 -84 -55 -122.5t-141 -38.5h-120q-112 0 -165 53zM265 858l95 -79h4l95 79q10 10 24 10q13 0 23 -9.5t10 -23.5q0 -8 -4 -15.5t-11 -12.5l-95 -79q-18 -15 -41 -15h-6q-23 0 -41 15l-95 79q-7 5 -11 12.5t-4 15.5 q0 14 9.5 23.5t23.5 9.5t24 -10z" glyph-name="Ccaron" horiz-adv-x="684" unicode="Č"/><glyph d="M126.5 46.5q-46.5 46.5 -46.5 143.5v115q0 98 46.5 144t143.5 45h82q74 0 115.5 -25t51.5 -77q3 -18 -7 -28t-29 -10q-15 0 -23 8t-14 25q-7 19 -28.5 27t-65.5 8h-82q-46 1 -71 -10t-36 -36t-11 -71v-115q0 -46 11 -71t36 -36t71 -11h82q44 0 65.5 8t28.5 27q6 17 14 25 t24 8q18 0 28 -10t7 -28q-10 -52 -51.5 -77t-115.5 -25h-82q-97 0 -143.5 46.5zM238 689l67 -79h10l67 79q9 10 23 10q13 0 22 -9t9 -22q0 -11 -8 -21l-75 -82q-16 -17 -38 -17h-10q-22 0 -38 17l-75 82q-8 10 -8 21q0 13 9 22t22 9t23 -10z" glyph-name="ccaron" horiz-adv-x="580" unicode="č"/><glyph d="M109.5 9.5q-9.5 9.5 -9.5 26.5v593q0 17 9.5 26.5t26.5 9.5h241q128 0 188 -60t60 -188v-169q0 -128 -60 -188t-188 -60h-241q-17 0 -26.5 9.5zM377 72q66 0 104 17t55 55t17 104v169q0 66 -17 104t-55 55t-104 17h-205v-521h205zM241 858l95 -79h4l95 79q10 10 24 10 q13 0 23 -9.5t10 -23.5q0 -8 -4 -15.5t-11 -12.5l-95 -79q-18 -15 -41 -15h-6q-23 0 -41 15l-95 79q-7 5 -11 12.5t-4 15.5q0 14 9.5 23.5t23.5 9.5t24 -10z" glyph-name="Dcaron" horiz-adv-x="705" unicode="Ď"/><glyph d="M532.5 690.5q9.5 -9.5 9.5 -26.5v-628q0 -17 -9.5 -26.5t-26.5 -9.5t-26.5 9.5t-9.5 26.5v19q-47 -55 -162 -55h-38q-97 0 -143.5 46.5t-46.5 143.5v114q0 98 46.5 144t143.5 46h200v170q0 17 9.5 26.5t26.5 9.5t26.5 -9.5zM426 92.5q44 20.5 44 60.5v269h-200 q-46 0 -71 -11t-36 -36t-11 -71v-114q0 -46 11 -71t36 -36t71 -11h38q74 0 118 20.5zM721 661q0 -8 -3 -14h1l-43 -90q-9 -16 -23 -16q-12 0 -19 6.5t-5 18.5l20 114q1 27 28 27h17q13 0 20 -7.5t7 -20.5v-18z" glyph-name="dcaron" horiz-adv-x="672" unicode="ď"/><glyph d="M565 605q60 -60 60 -188v-169q0 -128 -60 -188t-188 -60h-241q-17 0 -26.5 9.5t-9.5 26.5v266h-50q-31 0 -31 31t31 31h50v265q0 17 9.5 26.5t26.5 9.5h241q128 0 188 -60zM553 417q0 66 -17 104t-55 55t-104 17h-205v-229h139q31 0 31 -31t-31 -31h-139v-230h205 q66 0 104 17t55 55t17 104v169z" glyph-name="Dcroat" horiz-adv-x="705" unicode="Đ"/><glyph d="M626 588q0 -31 -31 -31h-53v-521q0 -17 -9.5 -26.5t-26.5 -9.5t-26.5 9.5t-9.5 26.5v19q-47 -55 -162 -55h-38q-97 0 -143.5 46.5t-46.5 143.5v114q0 98 46.5 144t143.5 46h200v63h-136q-31 0 -31 31t31 31h136v45q0 17 9.5 26.5t26.5 9.5t26.5 -9.5t9.5 -26.5v-45h53 q31 0 31 -31zM426 92.5q44 20.5 44 60.5v269h-200q-46 0 -71 -11t-36 -36t-11 -71v-114q0 -46 11 -71t36 -36t71 -11h38q74 0 118 20.5z" glyph-name="dcroat" horiz-adv-x="632" unicode="đ"/><glyph d="M527.5 62.5q9.5 -9.5 9.5 -26.5t-9.5 -26.5t-26.5 -9.5h-365q-17 0 -26.5 9.5t-9.5 26.5v593q0 17 9.5 26.5t26.5 9.5h365q17 0 26.5 -9.5t9.5 -26.5t-9.5 -26.5t-26.5 -9.5h-329v-221h211q17 0 26.5 -9.5t9.5 -26.5t-9.5 -26.5t-26.5 -9.5h-211v-228h329q17 0 26.5 -9.5 zM168 796q0 36 36 36h253q36 0 36 -36t-36 -36h-253q-36 0 -36 36z" glyph-name="Emacron" horiz-adv-x="587" unicode="Ē"/><glyph d="M152 218v-29q0 -45 11 -70t36 -36t71 -11h82q56 0 82 12t33 42q4 17 12.5 25.5t25.5 8.5q18 0 27.5 -9.5t6.5 -27.5q-10 -63 -56 -93t-131 -30h-82q-97 0 -143.5 46t-46.5 143v115q0 98 46.5 144.5t143.5 45.5h82q98 0 144 -46t46 -144v-50q0 -17 -9.5 -26.5t-26.5 -9.5 h-354zM152 290h318v14q0 46 -11 71t-36 36t-71 11h-82q-46 1 -71 -10t-36 -36.5t-11 -71.5v-14zM148 625q0 36 36 36h253q36 0 36 -36t-36 -36h-253q-36 0 -36 36z" glyph-name="emacron" unicode="ē"/><glyph d="M527.5 62.5q9.5 -9.5 9.5 -26.5t-9.5 -26.5t-26.5 -9.5h-365q-17 0 -26.5 9.5t-9.5 26.5v593q0 17 9.5 26.5t26.5 9.5h365q17 0 26.5 -9.5t9.5 -26.5t-9.5 -26.5t-26.5 -9.5h-329v-221h211q17 0 26.5 -9.5t9.5 -26.5t-9.5 -26.5t-26.5 -9.5h-211v-228h329q17 0 26.5 -9.5 zM246.5 741.5q-34.5 26.5 -34.5 76.5v16q0 32 32 32t32 -32v-16q0 -23 15 -33t54 -10t54 10t15 33v24q0 24 32 24t32 -32v-16q0 -50 -34.5 -76.5t-98.5 -26.5t-98.5 26.5z" glyph-name="Ebreve" horiz-adv-x="587" unicode="Ĕ"/><glyph d="M152 218v-29q0 -45 11 -70t36 -36t71 -11h82q56 0 82 12t33 42q4 17 12.5 25.5t25.5 8.5q18 0 27.5 -9.5t6.5 -27.5q-10 -63 -56 -93t-131 -30h-82q-97 0 -143.5 46t-46.5 143v115q0 98 46.5 144.5t143.5 45.5h82q98 0 144 -46t46 -144v-50q0 -17 -9.5 -26.5t-26.5 -9.5 h-354zM152 290h318v14q0 46 -11 71t-36 36t-71 11h-82q-46 1 -71 -10t-36 -36.5t-11 -71.5v-14zM226.5 570.5q-34.5 26.5 -34.5 76.5v16q0 32 32 32t32 -32v-16q0 -23 15 -33t54 -10t54 10t15 33v24q0 24 32 24t32 -32v-16q0 -50 -34.5 -76.5t-98.5 -26.5t-98.5 26.5z" glyph-name="ebreve" unicode="ĕ"/><glyph d="M527.5 62.5q9.5 -9.5 9.5 -26.5t-9.5 -26.5t-26.5 -9.5h-365q-17 0 -26.5 9.5t-9.5 26.5v593q0 17 9.5 26.5t26.5 9.5h365q17 0 26.5 -9.5t9.5 -26.5t-9.5 -26.5t-26.5 -9.5h-329v-221h211q17 0 26.5 -9.5t9.5 -26.5t-9.5 -26.5t-26.5 -9.5h-211v-228h329q17 0 26.5 -9.5 zM290 761.5q-11 11.5 -11 31.5v28q0 41 43 41h26q20 0 30.5 -10.5t10.5 -30.5v-28q0 -20 -11 -31.5t-30 -11.5h-26q-21 0 -32 11.5z" glyph-name="Edotaccent" horiz-adv-x="587" unicode="Ė"/><glyph d="M152 218v-29q0 -45 11 -70t36 -36t71 -11h82q56 0 82 12t33 42q4 17 12.5 25.5t25.5 8.5q18 0 27.5 -9.5t6.5 -27.5q-10 -63 -56 -93t-131 -30h-82q-97 0 -143.5 46t-46.5 143v115q0 98 46.5 144.5t143.5 45.5h82q98 0 144 -46t46 -144v-50q0 -17 -9.5 -26.5t-26.5 -9.5 h-354zM152 290h318v14q0 46 -11 71t-36 36t-71 11h-82q-46 1 -71 -10t-36 -36.5t-11 -71.5v-14zM270 590.5q-11 11.5 -11 31.5v28q0 41 43 41h26q20 0 30.5 -10.5t10.5 -30.5v-28q0 -20 -11 -31.5t-30 -11.5h-26q-21 0 -32 11.5z" glyph-name="edotaccent" unicode="ė"/><glyph d="M615 -69.5q9 -9.5 9 -22.5q0 -14 -9 -23q-21 -20 -46.5 -31.5t-50.5 -11.5q-42 0 -70.5 26t-28.5 64q0 33 24 65l2 3h-309q-17 0 -26.5 9.5t-9.5 26.5v593q0 17 9.5 26.5t26.5 9.5h365q17 0 26.5 -9.5t9.5 -26.5t-9.5 -26.5t-26.5 -9.5h-329v-221h211q17 0 26.5 -9.5 t9.5 -26.5t-9.5 -26.5t-26.5 -9.5h-211v-228h325q9 11 24 11q14 0 23 -9t9 -23q0 -11 -6 -19l-52 -73q-12 -15 -12 -27q0 -11 9.5 -18.5t25.5 -7.5q27 0 51 25q11 9 23 9q14 0 23 -9.5z" glyph-name="Eogonek" horiz-adv-x="587" unicode="Ę"/><glyph d="M537 -90.5q8 -9.5 8 -24.5q0 -14 -14 -22q-33 -22 -70 -22q-42 0 -70.5 26t-28.5 64q0 33 24 65l4 6q-24 -2 -38 -2h-82q-97 0 -143.5 46t-46.5 143v115q0 98 46.5 144.5t143.5 45.5h82q98 0 144 -46t46 -144v-50q0 -17 -9.5 -26.5t-26.5 -9.5h-354v-29q0 -45 11 -70 t36 -36t71 -11h82q56 0 82 12t33 42q4 17 12.5 25.5t25.5 8.5q18 0 27.5 -9.5t6.5 -27.5q-5 -30 -16 -50q-4 -8 -7 -12l-78 -103q-12 -15 -12 -27q0 -11 9.5 -18.5t25.5 -7.5q12 0 22.5 4.5t14.5 6.5q8 3 14 3q17 0 25 -9.5zM152 290h318v14q0 46 -11 71t-36 36t-71 11h-82 q-46 1 -71 -10t-36 -36.5t-11 -71.5v-14z" glyph-name="eogonek" unicode="ę"/><glyph d="M527.5 62.5q9.5 -9.5 9.5 -26.5t-9.5 -26.5t-26.5 -9.5h-365q-17 0 -26.5 9.5t-9.5 26.5v593q0 17 9.5 26.5t26.5 9.5h365q17 0 26.5 -9.5t9.5 -26.5t-9.5 -26.5t-26.5 -9.5h-329v-221h211q17 0 26.5 -9.5t9.5 -26.5t-9.5 -26.5t-26.5 -9.5h-211v-228h329q17 0 26.5 -9.5 zM238 858l95 -79h4l95 79q10 10 24 10q13 0 23 -9.5t10 -23.5q0 -8 -4 -15.5t-11 -12.5l-95 -79q-18 -15 -41 -15h-6q-23 0 -41 15l-95 79q-7 5 -11 12.5t-4 15.5q0 14 9.5 23.5t23.5 9.5t24 -10z" glyph-name="Ecaron" horiz-adv-x="587" unicode="Ě"/><glyph d="M152 218v-29q0 -45 11 -70t36 -36t71 -11h82q56 0 82 12t33 42q4 17 12.5 25.5t25.5 8.5q18 0 27.5 -9.5t6.5 -27.5q-10 -63 -56 -93t-131 -30h-82q-97 0 -143.5 46t-46.5 143v115q0 98 46.5 144.5t143.5 45.5h82q98 0 144 -46t46 -144v-50q0 -17 -9.5 -26.5t-26.5 -9.5 h-354zM152 290h318v14q0 46 -11 71t-36 36t-71 11h-82q-46 1 -71 -10t-36 -36.5t-11 -71.5v-14zM241 689l67 -79h10l67 79q9 10 23 10q13 0 22 -9t9 -22q0 -11 -8 -21l-75 -82q-16 -17 -38 -17h-10q-22 0 -38 17l-75 82q-8 10 -8 21q0 13 9 22t22 9t23 -10z" glyph-name="ecaron" unicode="ě"/><glyph d="M133 53q-53 53 -53 165v229q0 113 52.5 166t164.5 52h121q93 0 141 -38.5t55 -122.5q2 -18 -7.5 -27.5t-27.5 -9.5q-32 0 -37 36q-5 51 -32.5 70.5t-91.5 19.5h-121q-55 1 -86.5 -12.5t-45 -45.5t-13.5 -88v-229q0 -56 13.5 -87.5t45 -45t87.5 -13.5h120q50 0 76.5 11 t38 38t11.5 77v53l-90 1q-36 0 -36 36q0 17 9.5 26.5t26.5 9.5l126 -1q17 0 26.5 -9.5t9.5 -26.5v-89q0 -103 -47.5 -150.5t-150.5 -47.5h-120q-112 0 -165 53zM240 728q-9 9 -9 22q0 11 8 21l75 82q16 17 38 17h10q22 0 38 -17l75 -82q8 -10 8 -21q0 -13 -9 -22t-22 -9 q-14 0 -23 10l-67 79h-10l-67 -79q-10 -10 -23 -10t-22 9z" glyph-name="Gcircumflex" horiz-adv-x="686" unicode="Ĝ"/><glyph d="M532.5 484.5q9.5 -9.5 9.5 -26.5v-520q0 -71 -33.5 -104.5t-104.5 -33.5h-186q-60 0 -93.5 24.5t-41.5 75.5q-3 18 6.5 28t28.5 10q16 0 23.5 -8t13.5 -27q5 -18 19 -24.5t44 -6.5h186q40 0 53 13t13 53v126q-52 -64 -162 -64h-38q-97 0 -143.5 46t-46.5 143v115 q0 98 46.5 144.5t143.5 45.5h82q79 0 118 -46v10q0 17 9.5 26.5t26.5 9.5t26.5 -9.5zM426 92.5q44 20.5 44 60.5v187q0 45 -29 63.5t-89 18.5h-82q-46 1 -71 -10t-36 -36.5t-11 -71.5v-115q0 -45 11 -70t36 -36t71 -11h38q74 0 118 20.5zM193 557q-9 9 -9 22q0 11 8 21 l75 82q16 17 38 17h10q22 0 38 -17l75 -82q8 -10 8 -21q0 -13 -9 -22t-22 -9q-14 0 -23 10l-67 79h-10l-67 -79q-10 -10 -23 -10t-22 9z" glyph-name="gcircumflex" horiz-adv-x="632" unicode="ĝ"/><glyph d="M133 53q-53 53 -53 165v229q0 113 52.5 166t164.5 52h121q93 0 141 -38.5t55 -122.5q2 -18 -7.5 -27.5t-27.5 -9.5q-32 0 -37 36q-5 51 -32.5 70.5t-91.5 19.5h-121q-55 1 -86.5 -12.5t-45 -45.5t-13.5 -88v-229q0 -56 13.5 -87.5t45 -45t87.5 -13.5h120q50 0 76.5 11 t38 38t11.5 77v53l-90 1q-36 0 -36 36q0 17 9.5 26.5t26.5 9.5l126 -1q17 0 26.5 -9.5t9.5 -26.5v-89q0 -103 -47.5 -150.5t-150.5 -47.5h-120q-112 0 -165 53zM268.5 741.5q-34.5 26.5 -34.5 76.5v16q0 32 32 32t32 -32v-16q0 -23 15 -33t54 -10t54 10t15 33v24q0 24 32 24 t32 -32v-16q0 -50 -34.5 -76.5t-98.5 -26.5t-98.5 26.5z" glyph-name="Gbreve" horiz-adv-x="686" unicode="Ğ"/><glyph d="M532.5 484.5q9.5 -9.5 9.5 -26.5v-520q0 -71 -33.5 -104.5t-104.5 -33.5h-186q-60 0 -93.5 24.5t-41.5 75.5q-3 18 6.5 28t28.5 10q16 0 23.5 -8t13.5 -27q5 -18 19 -24.5t44 -6.5h186q40 0 53 13t13 53v126q-52 -64 -162 -64h-38q-97 0 -143.5 46t-46.5 143v115 q0 98 46.5 144.5t143.5 45.5h82q79 0 118 -46v10q0 17 9.5 26.5t26.5 9.5t26.5 -9.5zM426 92.5q44 20.5 44 60.5v187q0 45 -29 63.5t-89 18.5h-82q-46 1 -71 -10t-36 -36.5t-11 -71.5v-115q0 -45 11 -70t36 -36t71 -11h38q74 0 118 20.5zM221.5 570.5q-34.5 26.5 -34.5 76.5 v16q0 32 32 32t32 -32v-16q0 -23 15 -33t54 -10t54 10t15 33v24q0 24 32 24t32 -32v-16q0 -50 -34.5 -76.5t-98.5 -26.5t-98.5 26.5z" glyph-name="gbreve" horiz-adv-x="632" unicode="ğ"/><glyph d="M133 53q-53 53 -53 165v229q0 113 52.5 166t164.5 52h121q93 0 141 -38.5t55 -122.5q2 -18 -7.5 -27.5t-27.5 -9.5q-32 0 -37 36q-5 51 -32.5 70.5t-91.5 19.5h-121q-55 1 -86.5 -12.5t-45 -45.5t-13.5 -88v-229q0 -56 13.5 -87.5t45 -45t87.5 -13.5h120q50 0 76.5 11 t38 38t11.5 77v53l-90 1q-36 0 -36 36q0 17 9.5 26.5t26.5 9.5l126 -1q17 0 26.5 -9.5t9.5 -26.5v-89q0 -103 -47.5 -150.5t-150.5 -47.5h-120q-112 0 -165 53zM312 761.5q-11 11.5 -11 31.5v28q0 41 43 41h26q20 0 30.5 -10.5t10.5 -30.5v-28q0 -20 -11 -31.5t-30 -11.5 h-26q-21 0 -32 11.5z" glyph-name="Gdotaccent" horiz-adv-x="686" unicode="Ġ"/><glyph d="M532.5 484.5q9.5 -9.5 9.5 -26.5v-520q0 -71 -33.5 -104.5t-104.5 -33.5h-186q-60 0 -93.5 24.5t-41.5 75.5q-3 18 6.5 28t28.5 10q16 0 23.5 -8t13.5 -27q5 -18 19 -24.5t44 -6.5h186q40 0 53 13t13 53v126q-52 -64 -162 -64h-38q-97 0 -143.5 46t-46.5 143v115 q0 98 46.5 144.5t143.5 45.5h82q79 0 118 -46v10q0 17 9.5 26.5t26.5 9.5t26.5 -9.5zM426 92.5q44 20.5 44 60.5v187q0 45 -29 63.5t-89 18.5h-82q-46 1 -71 -10t-36 -36.5t-11 -71.5v-115q0 -45 11 -70t36 -36t71 -11h38q74 0 118 20.5zM265 590.5q-11 11.5 -11 31.5v28 q0 41 43 41h26q20 0 30.5 -10.5t10.5 -30.5v-28q0 -20 -11 -31.5t-30 -11.5h-26q-21 0 -32 11.5z" glyph-name="gdotaccent" horiz-adv-x="632" unicode="ġ"/><glyph d="M133 53q-53 53 -53 165v229q0 113 52.5 166t164.5 52h121q93 0 141 -38.5t55 -122.5q2 -18 -7.5 -27.5t-27.5 -9.5q-32 0 -37 36q-5 51 -32.5 70.5t-91.5 19.5h-121q-55 1 -86.5 -12.5t-45 -45.5t-13.5 -88v-229q0 -56 13.5 -87.5t45 -45t87.5 -13.5h120q50 0 76.5 11 t38 38t11.5 77v53l-90 1q-36 0 -36 36q0 17 9.5 26.5t26.5 9.5l126 -1q17 0 26.5 -9.5t9.5 -26.5v-89q0 -103 -47.5 -150.5t-150.5 -47.5h-120q-112 0 -165 53zM420 -96q0 -11 -5 -18l-42 -89q-9 -16 -23 -16q-12 0 -19.5 6.5t-5.5 18.5l21 118q2 26 29 26h17q28 0 28 -28 v-18z" glyph-name="Gcommaaccent" horiz-adv-x="686" unicode="Ģ"/><glyph d="M532.5 484.5q9.5 -9.5 9.5 -26.5v-520q0 -71 -33.5 -104.5t-104.5 -33.5h-186q-60 0 -93.5 24.5t-41.5 75.5q-3 18 6.5 28t28.5 10q16 0 23.5 -8t13.5 -27q5 -18 19 -24.5t44 -6.5h186q40 0 53 13t13 53v126q-52 -64 -162 -64h-38q-97 0 -143.5 46t-46.5 143v115 q0 98 46.5 144.5t143.5 45.5h82q79 0 118 -46v10q0 17 9.5 26.5t26.5 9.5t26.5 -9.5zM426 92.5q44 20.5 44 60.5v187q0 45 -29 63.5t-89 18.5h-82q-46 1 -71 -10t-36 -36.5t-11 -71.5v-115q0 -45 11 -70t36 -36t71 -11h38q74 0 118 20.5zM338.5 731.5q7.5 -6.5 5.5 -18.5 l-21 -118q-2 -26 -29 -26h-17q-28 0 -28 28v18q0 11 5 18l42 89q9 16 23 16q12 0 19.5 -6.5z" glyph-name="gcommaaccent" horiz-adv-x="632" unicode="ģ"/><glyph d="M110.5 10.5q-10.5 10.5 -10.5 25.5v593q0 15 10.5 25.5t25.5 10.5t25.5 -10.5t10.5 -25.5v-256h412v256q0 15 10.5 25.5t25.5 10.5t25.5 -10.5t10.5 -25.5v-593q0 -15 -10.5 -25.5t-25.5 -10.5t-25.5 10.5t-10.5 25.5v265h-412v-265q0 -15 -10.5 -25.5t-25.5 -10.5 t-25.5 10.5zM262 728q-9 9 -9 22q0 11 8 21l75 82q16 17 38 17h10q22 0 38 -17l75 -82q8 -10 8 -21q0 -13 -9 -22t-22 -9q-14 0 -23 10l-67 79h-10l-67 -79q-10 -10 -23 -10t-22 9z" glyph-name="Hcircumflex" horiz-adv-x="756" unicode="Ĥ"/><glyph d="M506 448q46 -46 46 -144v-268q0 -17 -9.5 -26.5t-26.5 -9.5t-26.5 9.5t-9.5 26.5v268q0 46 -11 71t-36 36t-71 11h-28q-71 0 -109.5 -20t-48.5 -61q-2 -8 -4 -11v-294q0 -17 -9.5 -26.5t-26.5 -9.5t-26.5 9.5t-9.5 26.5v628q0 17 9.5 26.5t26.5 9.5t26.5 -9.5t9.5 -26.5 v-210q60 40 162 40h28q98 0 144 -46zM21 763q-9 9 -9 22q0 11 8 21l75 82q16 17 38 17h10q22 0 38 -17l75 -82q8 -10 8 -21q0 -13 -9 -22t-22 -9q-14 0 -23 10l-67 79h-10l-67 -79q-10 -10 -23 -10t-22 9z" glyph-name="hcircumflex" horiz-adv-x="642" unicode="ĥ"/><glyph d="M715 497q0 -29 -29 -29h-30v-432q0 -15 -10.5 -25.5t-25.5 -10.5t-25.5 10.5t-10.5 25.5v265h-412v-265q0 -15 -10.5 -25.5t-25.5 -10.5t-25.5 10.5t-10.5 25.5v432h-31q-29 0 -29 29t29 29h31v103q0 15 10.5 25.5t25.5 10.5t25.5 -10.5t10.5 -25.5v-103h412v103 q0 15 10.5 25.5t25.5 10.5t25.5 -10.5t10.5 -25.5v-103h30q29 0 29 -29zM584 373v95h-412v-95h412z" glyph-name="Hbar" horiz-adv-x="756" unicode="Ħ"/><glyph d="M506 448q46 -46 46 -144v-268q0 -17 -9.5 -26.5t-26.5 -9.5t-26.5 9.5t-9.5 26.5v268q0 46 -11 71t-36 36t-71 11h-28q-71 0 -109.5 -20t-48.5 -61q-2 -8 -4 -11v-294q0 -17 -9.5 -26.5t-26.5 -9.5t-26.5 9.5t-9.5 26.5v513h-44q-31 0 -31 31t31 31h44v53q0 17 9.5 26.5 t26.5 9.5t26.5 -9.5t9.5 -26.5v-53h145q31 0 31 -31t-31 -31h-145v-95q60 40 162 40h28q98 0 144 -46z" glyph-name="hbar" horiz-adv-x="642" unicode="ħ"/><glyph d="M100 36v593q0 36 36 36t36 -36v-593q0 -36 -36 -36t-36 36zM159.5 741.5q-12.5 8.5 -30.5 24.5q-22 22 -33 22q-10 0 -17 -6.5t-14 -24.5q-9 -22 -27 -22q-3 0 -11 2q-22 6 -22 24q0 7 3 14q15 38 34.5 54.5t49.5 16.5q15 0 28.5 -8.5t34.5 -26.5q9 -8 18 -14.5t14 -6.5 q7 0 11 5t11 19q9 23 27 23q6 0 10 -1q23 -6 23 -24q0 -8 -2 -13q-26 -66 -79 -66q-16 0 -28.5 8.5z" glyph-name="Itilde" horiz-adv-x="272" unicode="Ĩ"/><glyph d="M109.5 9.5q-9.5 9.5 -9.5 26.5v422q0 17 9.5 26.5t26.5 9.5t26.5 -9.5t9.5 -26.5v-422q0 -17 -9.5 -26.5t-26.5 -9.5t-26.5 9.5zM158.5 570.5q-12.5 8.5 -30.5 24.5q-22 22 -33 22q-10 0 -17 -6.5t-14 -24.5q-9 -22 -27 -22q-3 0 -11 2q-22 6 -22 24q0 7 3 14 q15 38 34.5 54.5t49.5 16.5q15 0 28.5 -8.5t34.5 -26.5q9 -8 18 -14.5t14 -6.5q7 0 11 5t11 19q9 23 27 23q6 0 10 -1q23 -6 23 -24q0 -8 -2 -13q-26 -66 -79 -66q-16 0 -28.5 8.5z" glyph-name="itilde" horiz-adv-x="272" unicode="ĩ"/><glyph d="M100 36v593q0 36 36 36t36 -36v-593q0 -36 -36 -36t-36 36zM28 796q0 35 35 35h147q35 0 35 -35t-35 -35h-147q-35 0 -35 35z" glyph-name="Imacron" horiz-adv-x="272" unicode="Ī"/><glyph d="M109.5 9.5q-9.5 9.5 -9.5 26.5v422q0 17 9.5 26.5t26.5 9.5t26.5 -9.5t9.5 -26.5v-422q0 -17 -9.5 -26.5t-26.5 -9.5t-26.5 9.5zM27 625q0 35 35 35h147q35 0 35 -35t-35 -35h-147q-35 0 -35 35z" glyph-name="imacron" horiz-adv-x="272" unicode="ī"/><glyph d="M100 36v593q0 36 36 36t36 -36v-593q0 -36 -36 -36t-36 36zM48.5 741.5q-34.5 26.5 -34.5 76.5v16q0 32 32 32t32 -32v-16q0 -23 15 -33t54 -10t54 10t15 33v24q0 24 32 24t32 -32v-16q0 -50 -34.5 -76.5t-98.5 -26.5t-98.5 26.5z" glyph-name="Ibreve" horiz-adv-x="272" unicode="Ĭ"/><glyph d="M109.5 9.5q-9.5 9.5 -9.5 26.5v422q0 17 9.5 26.5t26.5 9.5t26.5 -9.5t9.5 -26.5v-422q0 -17 -9.5 -26.5t-26.5 -9.5t-26.5 9.5zM47.5 570.5q-34.5 26.5 -34.5 76.5v16q0 32 32 32t32 -32v-16q0 -23 15 -33t54 -10t54 10t15 33v24q0 24 32 24t32 -32v-16 q0 -50 -34.5 -76.5t-98.5 -26.5t-98.5 26.5z" glyph-name="ibreve" horiz-adv-x="272" unicode="ĭ"/><glyph d="M230 -93.5q9 -9.5 9 -22.5q0 -14 -9 -23q-21 -20 -46.5 -31.5t-50.5 -11.5q-42 0 -70.5 26t-28.5 64q0 33 24 65l42 59v4v593q0 36 36 36t36 -36v-593q0 -19 -10 -28l-52 -73q-12 -15 -12 -27q0 -11 9.5 -18.5t25.5 -7.5q27 0 51 25q11 9 23 9q14 0 23 -9.5z" glyph-name="Iogonek" horiz-adv-x="272" unicode="Į"/><glyph d="M91 590.5q-11 11.5 -11 31.5v28q0 41 43 41h26q20 0 30.5 -10.5t10.5 -30.5v-28q0 -20 -11 -31.5t-30 -11.5h-26q-21 0 -32 11.5zM230 -93.5q9 -9.5 9 -22.5q0 -14 -9 -23q-21 -20 -46.5 -31.5t-50.5 -11.5q-42 0 -70.5 26t-28.5 64q0 33 24 65l42 59v4v422 q0 17 9.5 26.5t26.5 9.5t26.5 -9.5t9.5 -26.5v-422q0 -15 -8 -25l-2 -3l-52 -73q-12 -15 -12 -27q0 -11 9.5 -18.5t25.5 -7.5q27 0 51 25q11 9 23 9q14 0 23 -9.5z" glyph-name="iogonek" horiz-adv-x="272" unicode="į"/><glyph d="M100 36v593q0 36 36 36t36 -36v-593q0 -36 -36 -36t-36 36zM92 761.5q-11 11.5 -11 31.5v28q0 41 43 41h26q20 0 30.5 -10.5t10.5 -30.5v-28q0 -20 -11 -31.5t-30 -11.5h-26q-21 0 -32 11.5z" glyph-name="Idotaccent" horiz-adv-x="272" unicode="İ"/><glyph d="M109.5 9.5q-9.5 9.5 -9.5 26.5v422q0 17 9.5 26.5t26.5 9.5t26.5 -9.5t9.5 -26.5v-422q0 -17 -9.5 -26.5t-26.5 -9.5t-26.5 9.5z" glyph-name="dotlessi" horiz-adv-x="272" unicode="ı"/><glyph d="M85.5 38.5q-47.5 38.5 -55.5 122.5q-1 18 8 27.5t27 9.5q34 0 37 -36q6 -51 33.5 -70.5t91.5 -19.5h67q50 0 76.5 11t38 38t11.5 77v431q0 36 36 36q17 0 26.5 -9.5t9.5 -26.5v-431q0 -103 -47.5 -150.5t-150.5 -47.5h-67q-94 0 -141.5 38.5zM340 728q-9 9 -9 22 q0 11 8 21l75 82q16 17 38 17h10q22 0 38 -17l75 -82q8 -10 8 -21q0 -13 -9 -22t-22 -9q-14 0 -23 10l-67 79h-10l-67 -79q-10 -10 -23 -10t-22 9z" glyph-name="Jcircumflex" horiz-adv-x="582" unicode="Ĵ"/><glyph d="M-0.5 -137.5q9.5 9.5 26.5 9.5q44 0 59 15t15 59v512q0 17 9.5 26.5t26.5 9.5t26.5 -9.5t9.5 -26.5v-512q0 -74 -36 -110t-110 -36q-36 0 -36 36q0 17 9.5 26.5zM20 557q-9 9 -9 22q0 11 8 21l75 82q16 17 38 17h10q22 0 38 -17l75 -82q8 -10 8 -21q0 -13 -9 -22t-22 -9 q-14 0 -23 10l-67 79h-10l-67 -79q-10 -10 -23 -10t-22 9z" glyph-name="jcircumflex" horiz-adv-x="272" unicode="ĵ"/><glyph d="M543 37q0 -15 -15 -27q-11 -10 -24 -10q-15 0 -27 16l-250 310l-55 -57v-233q0 -17 -9.5 -26.5t-26.5 -9.5t-26.5 9.5t-9.5 26.5v593q0 17 9.5 26.5t26.5 9.5t26.5 -9.5t9.5 -26.5v-256l271 279q12 13 26 13q13 0 25 -12t12 -26q0 -13 -12 -25l-216 -224l255 -317 q10 -11 10 -24zM346 -96q0 -11 -5 -18l-42 -89q-9 -16 -23 -16q-12 0 -19.5 6.5t-5.5 18.5l21 118q2 26 29 26h17q28 0 28 -28v-18z" glyph-name="Kcommaaccent" horiz-adv-x="573" unicode="Ķ"/><glyph d="M464 62q11 -11 11 -25q0 -15 -14 -26q-13 -11 -24 -11q-13 0 -27 14l-185 210l-53 -46v-142q0 -17 -9.5 -26.5t-26.5 -9.5t-26.5 9.5t-9.5 26.5v628q0 17 9.5 26.5t26.5 9.5t26.5 -9.5t9.5 -26.5v-390l244 209q13 11 24 11q14 0 27 -15q10 -11 10 -23q0 -15 -14 -27 l-183 -158zM308 -96q0 -11 -5 -18l-42 -89q-9 -16 -23 -16q-12 0 -19.5 6.5t-5.5 18.5l21 118q2 26 29 26h17q28 0 28 -28v-18z" glyph-name="kcommaaccent" horiz-adv-x="497" unicode="ķ"/><glyph d="M464 62q11 -11 11 -25q0 -15 -14 -26q-13 -11 -24 -11q-13 0 -27 14l-185 210l-53 -46v-142q0 -17 -9.5 -26.5t-26.5 -9.5t-26.5 9.5t-9.5 26.5v422q0 17 9.5 26.5t26.5 9.5t26.5 -9.5t9.5 -26.5v-184l244 209q13 11 24 11q14 0 27 -15q10 -11 10 -23q0 -15 -14 -27 l-183 -158z" glyph-name="kgreenlandic" horiz-adv-x="497" unicode="ĸ"/><glyph d="M100 36v593q0 36 36 36t36 -36v-557h287q36 0 36 -36t-36 -36h-323q-36 0 -36 36zM99 750q0 12 9 22l78 93q10 13 23 13q11 0 22 -9q13 -10 13 -23q0 -11 -9 -22l-78 -93q-10 -13 -23 -13q-12 0 -22 9q-13 10 -13 23z" glyph-name="Lacute" horiz-adv-x="525" unicode="Ĺ"/><glyph d="M136 36q-36 36 -36 110v518q0 17 9.5 26.5t26.5 9.5t26.5 -9.5t9.5 -26.5v-518q0 -43 15.5 -58.5t58.5 -15.5q18 0 27.5 -9.5t9.5 -26.5t-9.5 -26.5t-27.5 -9.5q-74 0 -110 36zM115 772q0 12 9 22l78 93q10 13 23 13q11 0 22 -9q13 -10 13 -23q0 -11 -9 -22l-78 -93 q-10 -13 -23 -13q-12 0 -22 9q-13 10 -13 23z" glyph-name="lacute" horiz-adv-x="323" unicode="ĺ"/><glyph d="M100 36v593q0 36 36 36t36 -36v-557h287q36 0 36 -36t-36 -36h-323q-36 0 -36 36zM367 -96q0 -11 -5 -18l-42 -89q-9 -16 -23 -16q-12 0 -19.5 6.5t-5.5 18.5l21 118q2 26 29 26h17q28 0 28 -28v-18z" glyph-name="Lcommaaccent" horiz-adv-x="525" unicode="Ļ"/><glyph d="M136 36q-36 36 -36 110v518q0 17 9.5 26.5t26.5 9.5t26.5 -9.5t9.5 -26.5v-518q0 -43 15.5 -58.5t58.5 -15.5q18 0 27.5 -9.5t9.5 -26.5t-9.5 -26.5t-27.5 -9.5q-74 0 -110 36zM265 -96q0 -11 -5 -18l-42 -89q-9 -16 -23 -16q-12 0 -19.5 6.5t-5.5 18.5l21 118 q2 26 29 26h17q28 0 28 -28v-18z" glyph-name="lcommaaccent" horiz-adv-x="323" unicode="ļ"/><glyph d="M100 36v593q0 36 36 36t36 -36v-557h287q36 0 36 -36t-36 -36h-323q-36 0 -36 36zM365 610q0 -8 -3 -14h1l-43 -90q-9 -16 -23 -16q-12 0 -19 6.5t-5 18.5l20 114q1 27 28 27h17q13 0 20 -7.5t7 -20.5v-18z" glyph-name="Lcaron" horiz-adv-x="525" unicode="Ľ"/><glyph d="M136 36q-36 36 -36 110v518q0 17 9.5 26.5t26.5 9.5t26.5 -9.5t9.5 -26.5v-518q0 -43 15.5 -58.5t58.5 -15.5q18 0 27.5 -9.5t9.5 -26.5t-9.5 -26.5t-27.5 -9.5q-74 0 -110 36zM347 654q0 -8 -3 -14h1l-43 -90q-9 -16 -23 -16q-12 0 -19 6.5t-5 18.5l20 114q1 27 28 27 h17q13 0 20 -7.5t7 -20.5v-18z" glyph-name="lcaron" horiz-adv-x="387" unicode="ľ"/><glyph d="M100 36v593q0 36 36 36t36 -36v-557h287q36 0 36 -36t-36 -36h-323q-36 0 -36 36zM319.5 315.5q-9.5 9.5 -9.5 26.5v23q0 35 36 35h22q34 0 34 -35v-23q0 -17 -9 -26.5t-25 -9.5h-22q-17 0 -26.5 9.5z" glyph-name="Ldot" horiz-adv-x="525" unicode="Ŀ"/><glyph d="M136 36q-36 36 -36 110v518q0 17 9.5 26.5t26.5 9.5t26.5 -9.5t9.5 -26.5v-518q0 -43 15.5 -58.5t58.5 -15.5q18 0 27.5 -9.5t9.5 -26.5t-9.5 -26.5t-27.5 -9.5q-74 0 -110 36zM256.5 339.5q-9.5 9.5 -9.5 26.5v23q0 35 36 35h22q34 0 34 -35v-23q0 -17 -9 -26.5 t-25 -9.5h-22q-17 0 -26.5 9.5z" glyph-name="ldot" horiz-adv-x="399" unicode="ŀ"/><glyph d="M495 36q0 -36 -36 -36h-323q-36 0 -36 36v199l-35 -27q-11 -8 -22 -8q-14 0 -26 15q-8 11 -8 22q0 14 15 26l76 58v308q0 36 36 36t36 -36v-254l85 65q9 8 21 8q15 0 26 -15q9 -12 9 -22q0 -14 -15 -26l-126 -96v-217h287q36 0 36 -36z" glyph-name="Lslash" horiz-adv-x="525" unicode="Ł"/><glyph d="M172 338v-192q0 -43 15.5 -58.5t58.5 -15.5q18 0 27.5 -9.5t9.5 -26.5t-9.5 -26.5t-27.5 -9.5q-74 0 -110 36t-36 110v139l-57 -43q-6 -5 -16 -5t-18 8t-8 18q0 13 11 21l88 66v314q0 17 9.5 26.5t26.5 9.5t26.5 -9.5t9.5 -26.5v-260l78 58q6 5 16 5q11 0 18.5 -7.5 t7.5 -18.5q0 -13 -11 -21z" glyph-name="lslash" horiz-adv-x="332" unicode="ł"/><glyph d="M627.5 655.5q9.5 -9.5 9.5 -26.5v-593q0 -17 -9.5 -26.5t-26.5 -9.5q-10 0 -18.5 5t-17.5 16l-393 506v-491q0 -17 -9.5 -26.5t-26.5 -9.5t-26.5 9.5t-9.5 26.5v593q0 17 9.5 26.5t26.5 9.5q21 0 36 -21l393 -505v490q0 17 9.5 26.5t26.5 9.5t26.5 -9.5zM332 750 q0 12 9 22l78 93q10 13 23 13q11 0 22 -9q13 -10 13 -23q0 -11 -9 -22l-78 -93q-10 -13 -23 -13q-12 0 -22 9q-13 10 -13 23z" glyph-name="Nacute" horiz-adv-x="737" unicode="Ń"/><glyph d="M506 448q46 -46 46 -144v-268q0 -17 -9.5 -26.5t-26.5 -9.5t-26.5 9.5t-9.5 26.5v268q0 46 -11 71t-36 36t-71 11h-28q-74 0 -118 -20.5t-44 -60.5v-305q0 -17 -9.5 -26.5t-26.5 -9.5t-26.5 9.5t-9.5 26.5v422q0 17 9.5 26.5t26.5 9.5t26.5 -9.5t9.5 -26.5v-28 q52 64 162 64h28q98 0 144 -46zM310 579q0 12 9 22l78 93q10 13 23 13q11 0 22 -9q13 -10 13 -23q0 -11 -9 -22l-78 -93q-10 -13 -23 -13q-12 0 -22 9q-13 10 -13 23z" glyph-name="nacute" horiz-adv-x="642" unicode="ń"/><glyph d="M627.5 655.5q9.5 -9.5 9.5 -26.5v-593q0 -17 -9.5 -26.5t-26.5 -9.5q-10 0 -18.5 5t-17.5 16l-393 506v-491q0 -17 -9.5 -26.5t-26.5 -9.5t-26.5 9.5t-9.5 26.5v593q0 17 9.5 26.5t26.5 9.5q21 0 36 -21l393 -505v490q0 17 9.5 26.5t26.5 9.5t26.5 -9.5zM428 -96 q0 -11 -5 -18l-42 -89q-9 -16 -23 -16q-12 0 -19.5 6.5t-5.5 18.5l21 118q2 26 29 26h17q28 0 28 -28v-18z" glyph-name="Ncommaaccent" horiz-adv-x="737" unicode="Ņ"/><glyph d="M506 448q46 -46 46 -144v-268q0 -17 -9.5 -26.5t-26.5 -9.5t-26.5 9.5t-9.5 26.5v268q0 46 -11 71t-36 36t-71 11h-28q-74 0 -118 -20.5t-44 -60.5v-305q0 -17 -9.5 -26.5t-26.5 -9.5t-26.5 9.5t-9.5 26.5v422q0 17 9.5 26.5t26.5 9.5t26.5 -9.5t9.5 -26.5v-28 q52 64 162 64h28q98 0 144 -46zM406 -96q0 -11 -5 -18l-42 -89q-9 -16 -23 -16q-12 0 -19.5 6.5t-5.5 18.5l21 118q2 26 29 26h17q28 0 28 -28v-18z" glyph-name="ncommaaccent" horiz-adv-x="642" unicode="ņ"/><glyph d="M627.5 655.5q9.5 -9.5 9.5 -26.5v-593q0 -17 -9.5 -26.5t-26.5 -9.5q-10 0 -18.5 5t-17.5 16l-393 506v-491q0 -17 -9.5 -26.5t-26.5 -9.5t-26.5 9.5t-9.5 26.5v593q0 17 9.5 26.5t26.5 9.5q21 0 36 -21l393 -505v490q0 17 9.5 26.5t26.5 9.5t26.5 -9.5zM273 858l95 -79 h4l95 79q10 10 24 10q13 0 23 -9.5t10 -23.5q0 -8 -4 -15.5t-11 -12.5l-95 -79q-18 -15 -41 -15h-6q-23 0 -41 15l-95 79q-7 5 -11 12.5t-4 15.5q0 14 9.5 23.5t23.5 9.5t24 -10z" glyph-name="Ncaron" horiz-adv-x="737" unicode="Ň"/><glyph d="M506 448q46 -46 46 -144v-268q0 -17 -9.5 -26.5t-26.5 -9.5t-26.5 9.5t-9.5 26.5v268q0 46 -11 71t-36 36t-71 11h-28q-74 0 -118 -20.5t-44 -60.5v-305q0 -17 -9.5 -26.5t-26.5 -9.5t-26.5 9.5t-9.5 26.5v422q0 17 9.5 26.5t26.5 9.5t26.5 -9.5t9.5 -26.5v-28 q52 64 162 64h28q98 0 144 -46zM274 689l67 -79h10l67 79q9 10 23 10q13 0 22 -9t9 -22q0 -11 -8 -21l-75 -82q-16 -17 -38 -17h-10q-22 0 -38 17l-75 82q-8 10 -8 21q0 13 9 22t22 9t23 -10z" glyph-name="ncaron" horiz-adv-x="642" unicode="ň"/><glyph d="M627.5 655.5q9.5 -9.5 9.5 -26.5v-691q0 -71 -33.5 -104.5t-104.5 -33.5h-116q-60 0 -93.5 24.5t-41.5 75.5q-3 18 6.5 28t28.5 10q16 0 23.5 -8t13.5 -27q5 -18 19 -24.5t44 -6.5h116q40 0 53 13t13 53v83l-393 506v-491q0 -17 -9.5 -26.5t-26.5 -9.5t-26.5 9.5 t-9.5 26.5v593q0 17 9.5 26.5t26.5 9.5q21 0 36 -21l393 -505v490q0 17 9.5 26.5t26.5 9.5t26.5 -9.5z" glyph-name="Eng" horiz-adv-x="737" unicode="Ŋ"/><glyph d="M506 448q46 -46 46 -144v-366q0 -71 -33.5 -104.5t-104.5 -33.5h-96q-60 0 -93.5 24.5t-41.5 75.5q-3 18 6.5 28t28.5 10q16 0 23.5 -8t13.5 -27q5 -18 19 -24.5t44 -6.5h96q40 0 53 13t13 53v366q0 46 -11 71t-36 36t-71 11h-28q-74 0 -118 -20.5t-44 -60.5v-305 q0 -17 -9.5 -26.5t-26.5 -9.5t-26.5 9.5t-9.5 26.5v422q0 17 9.5 26.5t26.5 9.5t26.5 -9.5t9.5 -26.5v-28q52 64 162 64h28q98 0 144 -46z" glyph-name="eng" horiz-adv-x="642" unicode="ŋ"/><glyph d="M133 53q-53 53 -53 165v230q0 113 53 165.5t165 51.5h120q113 0 165.5 -52.5t52.5 -165.5v-229q0 -112 -52.5 -165t-165.5 -53h-120q-112 0 -165 53zM418 72q56 0 87.5 13.5t45 45t13.5 87.5v229q0 56 -13.5 87.5t-45 45t-87.5 13.5h-120q-56 1 -87.5 -12.5t-45 -45 t-13.5 -87.5v-230q0 -56 13.5 -87.5t45 -45t87.5 -13.5h120zM192 796q0 36 36 36h253q36 0 36 -36t-36 -36h-253q-36 0 -36 36z" glyph-name="Omacron" horiz-adv-x="716" unicode="Ō"/><glyph d="M126.5 46q-46.5 46 -46.5 143v115q0 98 46 144t144 46h82q98 0 144 -46t46 -144v-114q0 -97 -46 -143.5t-144 -46.5h-82q-97 0 -143.5 46zM352 72q46 0 71 11t36 36t11 71v114q0 46 -11 71t-36 36t-71 11h-82q-46 0 -71 -10.5t-36 -36t-11 -71.5v-115q0 -45 11 -70 t36 -36t71 -11h82zM145 625q0 36 36 36h253q36 0 36 -36t-36 -36h-253q-36 0 -36 36z" glyph-name="omacron" unicode="ō"/><glyph d="M133 53q-53 53 -53 165v230q0 113 53 165.5t165 51.5h120q113 0 165.5 -52.5t52.5 -165.5v-229q0 -112 -52.5 -165t-165.5 -53h-120q-112 0 -165 53zM418 72q56 0 87.5 13.5t45 45t13.5 87.5v229q0 56 -13.5 87.5t-45 45t-87.5 13.5h-120q-56 1 -87.5 -12.5t-45 -45 t-13.5 -87.5v-230q0 -56 13.5 -87.5t45 -45t87.5 -13.5h120zM270.5 741.5q-34.5 26.5 -34.5 76.5v16q0 32 32 32t32 -32v-16q0 -23 15 -33t54 -10t54 10t15 33v24q0 24 32 24t32 -32v-16q0 -50 -34.5 -76.5t-98.5 -26.5t-98.5 26.5z" glyph-name="Obreve" horiz-adv-x="716" unicode="Ŏ"/><glyph d="M126.5 46q-46.5 46 -46.5 143v115q0 98 46 144t144 46h82q98 0 144 -46t46 -144v-114q0 -97 -46 -143.5t-144 -46.5h-82q-97 0 -143.5 46zM352 72q46 0 71 11t36 36t11 71v114q0 46 -11 71t-36 36t-71 11h-82q-46 0 -71 -10.5t-36 -36t-11 -71.5v-115q0 -45 11 -70 t36 -36t71 -11h82zM223.5 570.5q-34.5 26.5 -34.5 76.5v16q0 32 32 32t32 -32v-16q0 -23 15 -33t54 -10t54 10t15 33v24q0 24 32 24t32 -32v-16q0 -50 -34.5 -76.5t-98.5 -26.5t-98.5 26.5z" glyph-name="obreve" unicode="ŏ"/><glyph d="M133 53q-53 53 -53 165v230q0 113 53 165.5t165 51.5h120q113 0 165.5 -52.5t52.5 -165.5v-229q0 -112 -52.5 -165t-165.5 -53h-120q-112 0 -165 53zM418 72q56 0 87.5 13.5t45 45t13.5 87.5v229q0 56 -13.5 87.5t-45 45t-87.5 13.5h-120q-56 1 -87.5 -12.5t-45 -45 t-13.5 -87.5v-230q0 -56 13.5 -87.5t45 -45t87.5 -13.5h120zM255 750q0 12 9 22l78 93q10 13 23 13q11 0 22 -9q13 -10 13 -23q0 -11 -9 -22l-78 -93q-10 -13 -23 -13q-11 0 -22 9q-13 10 -13 23zM397 750q0 12 9 22l78 93q10 13 23 13q11 0 22 -9q13 -10 13 -23 q0 -11 -9 -22l-78 -93q-10 -13 -23 -13q-11 0 -22 9q-13 10 -13 23z" glyph-name="Ohungarumlaut" horiz-adv-x="716" unicode="Ő"/><glyph d="M126.5 46q-46.5 46 -46.5 143v115q0 98 46 144t144 46h82q98 0 144 -46t46 -144v-114q0 -97 -46 -143.5t-144 -46.5h-82q-97 0 -143.5 46zM352 72q46 0 71 11t36 36t11 71v114q0 46 -11 71t-36 36t-71 11h-82q-46 0 -71 -10.5t-36 -36t-11 -71.5v-115q0 -45 11 -70 t36 -36t71 -11h82zM208 579q0 12 9 22l78 93q10 13 23 13q11 0 22 -9q13 -10 13 -23q0 -11 -9 -22l-78 -93q-10 -13 -23 -13q-11 0 -22 9q-13 10 -13 23zM350 579q0 12 9 22l78 93q10 13 23 13q11 0 22 -9q13 -10 13 -23q0 -11 -9 -22l-78 -93q-10 -13 -23 -13q-11 0 -22 9 q-13 10 -13 23z" glyph-name="ohungarumlaut" unicode="ő"/><glyph d="M807.5 62.5q9.5 -9.5 9.5 -26.5t-9.5 -26.5t-26.5 -9.5h-483q-112 0 -165 53t-53 165v230q0 113 53 165t165 52h483q17 0 26.5 -9.5t9.5 -26.5t-9.5 -26.5t-26.5 -9.5h-289v-221h171q17 0 26.5 -9.5t9.5 -26.5t-9.5 -26.5t-26.5 -9.5h-171v-228h289q17 0 26.5 -9.5z M165.5 130.5q13.5 -31.5 45 -45t87.5 -13.5h122v521h-122q-56 0 -87.5 -13.5t-45 -44.5t-13.5 -87v-230q0 -56 13.5 -87.5z" glyph-name="OE" horiz-adv-x="867" unicode="Œ"/><glyph d="M126.5 32q-46.5 46 -46.5 143v112q0 98 46.5 144.5t143.5 45.5h52q57 0 94 -17.5t59 -59.5q22 43 58.5 60.5t92.5 16.5h60q96 0 141 -52.5t45 -162.5q0 -17 -9.5 -26.5t-27.5 -9.5h-323v-48q0 -47 10.5 -72.5t35 -36.5t67.5 -11h61q45 0 69.5 7.5t34.5 24.5t10 47 q0 15 10.5 25.5t25.5 10.5t25.5 -10.5t10.5 -25.5q0 -78 -45.5 -114.5t-140.5 -36.5h-61q-55 0 -91 17.5t-58 60.5q-22 -43 -59.5 -60.5t-94.5 -17.5h-52q-97 0 -143.5 46zM322 58q46 0 71 11t36 36t11 71v111q0 46 -11 71t-36 36t-71 11h-52q-46 1 -71 -10t-36 -36.5 t-11 -71.5v-112q0 -45 11 -70t36 -36t71 -11h52zM799 298q-5 60 -30.5 83.5t-82.5 23.5h-60q-63 1 -88 -22t-26 -85h287z" glyph-name="oe" horiz-adv-x="952" unicode="œ"/><glyph d="M555 28q0 -17 -19 -30q-10 -6 -20 -6q-17 0 -29 18l-157 257l-1 2h-157v-233q0 -17 -9.5 -26.5t-26.5 -9.5t-26.5 9.5t-9.5 26.5v593q0 17 9.5 26.5t26.5 9.5h234q89 0 136 -47t47 -136v-30q0 -78 -36 -123.5t-105 -56.5l137 -225q6 -10 6 -19zM172 341h198q59 0 85 26 t26 85v30q0 59 -26 85t-85 26h-198v-252zM270 750q0 12 9 22l78 93q10 13 23 13q11 0 22 -9q13 -10 13 -23q0 -11 -9 -22l-78 -93q-10 -13 -23 -13q-12 0 -22 9q-13 10 -13 23z" glyph-name="Racute" horiz-adv-x="613" unicode="Ŕ"/><glyph d="M383.5 484.5q9.5 -9.5 9.5 -26.5t-9.5 -26.5t-26.5 -9.5q-90 0 -137.5 -37t-47.5 -102v-247q0 -17 -9.5 -26.5t-26.5 -9.5t-26.5 9.5t-9.5 26.5v422q0 17 9.5 26.5t26.5 9.5t26.5 -9.5t9.5 -26.5v-53q29 44 76 66.5t109 22.5q17 0 26.5 -9.5zM204 579q0 12 9 22l78 93 q10 13 23 13q11 0 22 -9q13 -10 13 -23q0 -11 -9 -22l-78 -93q-10 -13 -23 -13q-12 0 -22 9q-13 10 -13 23z" glyph-name="racute" horiz-adv-x="408" unicode="ŕ"/><glyph d="M555 28q0 -17 -19 -30q-10 -6 -20 -6q-17 0 -29 18l-157 257l-1 2h-157v-233q0 -17 -9.5 -26.5t-26.5 -9.5t-26.5 9.5t-9.5 26.5v593q0 17 9.5 26.5t26.5 9.5h234q89 0 136 -47t47 -136v-30q0 -78 -36 -123.5t-105 -56.5l137 -225q6 -10 6 -19zM172 341h198q59 0 85 26 t26 85v30q0 59 -26 85t-85 26h-198v-252zM366 -96q0 -11 -5 -18l-42 -89q-9 -16 -23 -16q-12 0 -19.5 6.5t-5.5 18.5l21 118q2 26 29 26h17q28 0 28 -28v-18z" glyph-name="Rcommaaccent" horiz-adv-x="613" unicode="Ŗ"/><glyph d="M383.5 484.5q9.5 -9.5 9.5 -26.5t-9.5 -26.5t-26.5 -9.5q-90 0 -137.5 -37t-47.5 -102v-247q0 -17 -9.5 -26.5t-26.5 -9.5t-26.5 9.5t-9.5 26.5v422q0 17 9.5 26.5t26.5 9.5t26.5 -9.5t9.5 -26.5v-53q29 44 76 66.5t109 22.5q17 0 26.5 -9.5zM195 -96q0 -11 -5 -18 l-42 -89q-9 -16 -23 -16q-12 0 -19.5 6.5t-5.5 18.5l21 118q2 26 29 26h17q28 0 28 -28v-18z" glyph-name="rcommaaccent" horiz-adv-x="408" unicode="ŗ"/><glyph d="M555 28q0 -17 -19 -30q-10 -6 -20 -6q-17 0 -29 18l-157 257l-1 2h-157v-233q0 -17 -9.5 -26.5t-26.5 -9.5t-26.5 9.5t-9.5 26.5v593q0 17 9.5 26.5t26.5 9.5h234q89 0 136 -47t47 -136v-30q0 -78 -36 -123.5t-105 -56.5l137 -225q6 -10 6 -19zM172 341h198q59 0 85 26 t26 85v30q0 59 -26 85t-85 26h-198v-252zM211 858l95 -79h4l95 79q10 10 24 10q13 0 23 -9.5t10 -23.5q0 -8 -4 -15.5t-11 -12.5l-95 -79q-18 -15 -41 -15h-6q-23 0 -41 15l-95 79q-7 5 -11 12.5t-4 15.5q0 14 9.5 23.5t23.5 9.5t24 -10z" glyph-name="Rcaron" horiz-adv-x="613" unicode="Ř"/><glyph d="M383.5 484.5q9.5 -9.5 9.5 -26.5t-9.5 -26.5t-26.5 -9.5q-90 0 -137.5 -37t-47.5 -102v-247q0 -17 -9.5 -26.5t-26.5 -9.5t-26.5 9.5t-9.5 26.5v422q0 17 9.5 26.5t26.5 9.5t26.5 -9.5t9.5 -26.5v-53q29 44 76 66.5t109 22.5q17 0 26.5 -9.5zM168 689l67 -79h10l67 79 q9 10 23 10q13 0 22 -9t9 -22q0 -11 -8 -21l-75 -82q-16 -17 -38 -17h-10q-22 0 -38 17l-75 82q-8 10 -8 21q0 13 9 22t22 9t23 -10z" glyph-name="rcaron" horiz-adv-x="408" unicode="ř"/><glyph d="M134 37q-46 37 -54 114q-1 18 8 27.5t27 9.5q33 0 37 -36q6 -45 32 -62.5t83 -17.5h144q46 0 71 10.5t35.5 35.5t10.5 70q0 46 -11 71t-36 36t-70 11h-129q-91 0 -135.5 44.5t-44.5 135.5q0 92 44 135.5t135 43.5h127q82 0 125.5 -34.5t51.5 -106.5q2 -18 -7.5 -27.5 t-27.5 -9.5q-17 0 -25.5 8.5t-11.5 26.5q-5 39 -29 55t-76 16h-127q-61 0 -84 -22.5t-23 -84.5q0 -61 23.5 -84.5t84.5 -23.5h129q97 0 143 -46.5t46 -143.5t-46 -142.5t-143 -45.5h-144q-87 0 -133 37zM308 750q0 12 9 22l78 93q10 13 23 13q11 0 22 -9q13 -10 13 -23 q0 -11 -9 -22l-78 -93q-10 -13 -23 -13q-12 0 -22 9q-13 10 -13 23z" glyph-name="Sacute" horiz-adv-x="680" unicode="Ś"/><glyph d="M115 26.5q-35 26.5 -44 79.5q-3 18 7 28t28 10q17 0 25 -8.5t13 -26.5q5 -21 20.5 -29t48.5 -8h164q42 0 57 14.5t15 57.5t-15 57.5t-57 14.5h-161q-139 0 -139 139q0 71 34.5 105t104.5 34h156q116 0 134 -99q3 -18 -7 -28t-28 -10q-16 0 -24.5 8t-13.5 26t-19 24.5 t-42 6.5h-156q-40 0 -53.5 -13t-13.5 -54q0 -39 13.5 -53t53.5 -14h161q73 0 108.5 -35.5t35.5 -108.5t-35.5 -108.5t-108.5 -35.5h-164q-63 0 -98 26.5zM265 579q0 12 9 22l78 93q10 13 23 13q11 0 22 -9q13 -10 13 -23q0 -11 -9 -22l-78 -93q-10 -13 -23 -13q-12 0 -22 9 q-13 10 -13 23z" glyph-name="sacute" horiz-adv-x="591" unicode="ś"/><glyph d="M134 37q-46 37 -54 114q-1 18 8 27.5t27 9.5q33 0 37 -36q6 -45 32 -62.5t83 -17.5h144q46 0 71 10.5t35.5 35.5t10.5 70q0 46 -11 71t-36 36t-70 11h-129q-91 0 -135.5 44.5t-44.5 135.5q0 92 44 135.5t135 43.5h127q82 0 125.5 -34.5t51.5 -106.5q2 -18 -7.5 -27.5 t-27.5 -9.5q-17 0 -25.5 8.5t-11.5 26.5q-5 39 -29 55t-76 16h-127q-61 0 -84 -22.5t-23 -84.5q0 -61 23.5 -84.5t84.5 -23.5h129q97 0 143 -46.5t46 -143.5t-46 -142.5t-143 -45.5h-144q-87 0 -133 37zM229 728q-9 9 -9 22q0 11 8 21l75 82q16 17 38 17h10q22 0 38 -17 l75 -82q8 -10 8 -21q0 -13 -9 -22t-22 -9q-14 0 -23 10l-67 79h-10l-67 -79q-10 -10 -23 -10t-22 9z" glyph-name="Scircumflex" horiz-adv-x="680" unicode="Ŝ"/><glyph d="M115 26.5q-35 26.5 -44 79.5q-3 18 7 28t28 10q17 0 25 -8.5t13 -26.5q5 -21 20.5 -29t48.5 -8h164q42 0 57 14.5t15 57.5t-15 57.5t-57 14.5h-161q-139 0 -139 139q0 71 34.5 105t104.5 34h156q116 0 134 -99q3 -18 -7 -28t-28 -10q-16 0 -24.5 8t-13.5 26t-19 24.5 t-42 6.5h-156q-40 0 -53.5 -13t-13.5 -54q0 -39 13.5 -53t53.5 -14h161q73 0 108.5 -35.5t35.5 -108.5t-35.5 -108.5t-108.5 -35.5h-164q-63 0 -98 26.5zM186 557q-9 9 -9 22q0 11 8 21l75 82q16 17 38 17h10q22 0 38 -17l75 -82q8 -10 8 -21q0 -13 -9 -22t-22 -9 q-14 0 -23 10l-67 79h-10l-67 -79q-10 -10 -23 -10t-22 9z" glyph-name="scircumflex" horiz-adv-x="591" unicode="ŝ"/><glyph d="M554 45.5q-46 -45.5 -143 -45.5h-2q4 -7 21 -18q21 -14 35 -31.5t14 -47.5q0 -113 -113 -113q-46 0 -69.5 23.5t-23.5 69.5q0 31 31 31t31 -31q0 -20 6 -25.5t25 -5.5q31 0 41 10t10 41q0 8 -4 13t-18 15q-20 14 -33 28.5t-17 40.5h-78q-87 0 -133 37t-54 114 q-1 18 8 27.5t27 9.5q33 0 37 -36q6 -45 32 -62.5t83 -17.5h144q46 0 71 10.5t35.5 35.5t10.5 70q0 46 -11 71t-36 36t-70 11h-129q-91 0 -135.5 44.5t-44.5 135.5q0 92 44 135.5t135 43.5h127q82 0 125.5 -34.5t51.5 -106.5q2 -18 -7.5 -27.5t-27.5 -9.5q-17 0 -25.5 8.5 t-11.5 26.5q-5 39 -29 55t-76 16h-127q-61 0 -84 -22.5t-23 -84.5q0 -61 23.5 -84.5t84.5 -23.5h129q97 0 143 -46.5t46 -143.5t-46 -142.5z" glyph-name="Scedilla" horiz-adv-x="680" unicode="Ş"/><glyph d="M485.5 35.5q-35.5 -35.5 -108.5 -35.5h-11q4 -7 21 -18q21 -14 35 -31.5t14 -47.5q0 -113 -113 -113q-46 0 -69.5 23.5t-23.5 69.5q0 31 31 31t31 -31q0 -20 6 -25.5t25 -5.5q31 0 41 10t10 41q0 8 -4 13t-18 15q-20 14 -33 28.5t-17 40.5h-89q-63 0 -98 26.5t-44 79.5 q-3 18 7 28t28 10q17 0 25 -8.5t13 -26.5q5 -21 20.5 -29t48.5 -8h164q42 0 57 14.5t15 57.5t-15 57.5t-57 14.5h-161q-139 0 -139 139q0 71 34.5 105t104.5 34h156q116 0 134 -99q3 -18 -7 -28t-28 -10q-16 0 -24.5 8t-13.5 26t-19 24.5t-42 6.5h-156q-40 0 -53.5 -13 t-13.5 -54q0 -39 13.5 -53t53.5 -14h161q73 0 108.5 -35.5t35.5 -108.5t-35.5 -108.5z" glyph-name="scedilla" horiz-adv-x="591" unicode="ş"/><glyph d="M134 37q-46 37 -54 114q-1 18 8 27.5t27 9.5q33 0 37 -36q6 -45 32 -62.5t83 -17.5h144q46 0 71 10.5t35.5 35.5t10.5 70q0 46 -11 71t-36 36t-70 11h-129q-91 0 -135.5 44.5t-44.5 135.5q0 92 44 135.5t135 43.5h127q82 0 125.5 -34.5t51.5 -106.5q2 -18 -7.5 -27.5 t-27.5 -9.5q-17 0 -25.5 8.5t-11.5 26.5q-5 39 -29 55t-76 16h-127q-61 0 -84 -22.5t-23 -84.5q0 -61 23.5 -84.5t84.5 -23.5h129q97 0 143 -46.5t46 -143.5t-46 -142.5t-143 -45.5h-144q-87 0 -133 37zM249 858l95 -79h4l95 79q10 10 24 10q13 0 23 -9.5t10 -23.5 q0 -8 -4 -15.5t-11 -12.5l-95 -79q-18 -15 -41 -15h-6q-23 0 -41 15l-95 79q-7 5 -11 12.5t-4 15.5q0 14 9.5 23.5t23.5 9.5t24 -10z" glyph-name="Scaron" horiz-adv-x="680" unicode="Š"/><glyph d="M115 26.5q-35 26.5 -44 79.5q-3 18 7 28t28 10q17 0 25 -8.5t13 -26.5q5 -21 20.5 -29t48.5 -8h164q42 0 57 14.5t15 57.5t-15 57.5t-57 14.5h-161q-139 0 -139 139q0 71 34.5 105t104.5 34h156q116 0 134 -99q3 -18 -7 -28t-28 -10q-16 0 -24.5 8t-13.5 26t-19 24.5 t-42 6.5h-156q-40 0 -53.5 -13t-13.5 -54q0 -39 13.5 -53t53.5 -14h161q73 0 108.5 -35.5t35.5 -108.5t-35.5 -108.5t-108.5 -35.5h-164q-63 0 -98 26.5zM229 689l67 -79h10l67 79q9 10 23 10q13 0 22 -9t9 -22q0 -11 -8 -21l-75 -82q-16 -17 -38 -17h-10q-22 0 -38 17 l-75 82q-8 10 -8 21q0 13 9 22t22 9t23 -10z" glyph-name="scaron" horiz-adv-x="591" unicode="š"/><glyph d="M561.5 655.5q9.5 -9.5 9.5 -26.5t-9.5 -26.5t-26.5 -9.5h-201v-557q0 -15 -8 -25q1 -8 5.5 -13.5t18.5 -15.5q21 -14 35 -31.5t14 -47.5q0 -113 -113 -113q-46 0 -69.5 23.5t-23.5 69.5q0 31 31 31t31 -31q0 -20 6 -25.5t25 -5.5q31 0 41 10t10 41q0 8 -4 13t-18 15 q-22 14 -36.5 32.5t-14.5 51.5v6q-2 8 -2 15v557h-201q-17 0 -26.5 9.5t-9.5 26.5t9.5 26.5t26.5 9.5h474q17 0 26.5 -9.5z" glyph-name="uni0162" horiz-adv-x="596" unicode="Ţ"/><glyph d="M342 36q0 -17 -9.5 -26.5t-26.5 -9.5q-32 0 -55 4q1 -5 7 -10.5t16 -11.5q21 -14 35 -31.5t14 -47.5q0 -113 -113 -113q-46 0 -69.5 23.5t-23.5 69.5q0 31 31 31t31 -31q0 -20 6 -25.5t25 -5.5q31 0 41 10t10 41q0 8 -4 13t-18 15q-22 14 -36.5 32.5t-14.5 51.5q0 8 1 11 q-70 42 -70 160v236h-53q-17 0 -26.5 9.5t-9.5 26.5t9.5 26.5t26.5 9.5h53v86q0 36 36 36t36 -36v-86h119q17 0 26.5 -9.5t9.5 -26.5t-9.5 -26.5t-26.5 -9.5h-119v-236q0 -45 10.5 -69.5t35 -34.5t69.5 -10q36 0 36 -36z" glyph-name="uni0163" horiz-adv-x="396" unicode="ţ"/><glyph d="M271.5 9.5q-9.5 9.5 -9.5 26.5v557h-201q-17 0 -26.5 9.5t-9.5 26.5t9.5 26.5t26.5 9.5h474q17 0 26.5 -9.5t9.5 -26.5t-9.5 -26.5t-26.5 -9.5h-201v-557q0 -17 -9.5 -26.5t-26.5 -9.5t-26.5 9.5zM202 858l95 -79h4l95 79q10 10 24 10q13 0 23 -9.5t10 -23.5 q0 -8 -4 -15.5t-11 -12.5l-95 -79q-18 -15 -41 -15h-6q-23 0 -41 15l-95 79q-7 5 -11 12.5t-4 15.5q0 14 9.5 23.5t23.5 9.5t24 -10z" glyph-name="Tcaron" horiz-adv-x="596" unicode="Ť"/><glyph d="M342 36q0 -17 -9.5 -26.5t-26.5 -9.5q-96 0 -141.5 45t-45.5 141v236h-53q-17 0 -26.5 9.5t-9.5 26.5t9.5 26.5t26.5 9.5h53v86q0 36 36 36t36 -36v-86h119q17 0 26.5 -9.5t9.5 -26.5t-9.5 -26.5t-26.5 -9.5h-119v-236q0 -45 10.5 -69.5t35 -34.5t69.5 -10q36 0 36 -36z M364 661q0 -8 -3 -14h1l-43 -90q-9 -16 -23 -16q-12 0 -19 6.5t-5 18.5l20 114q1 27 28 27h17q13 0 20 -7.5t7 -20.5v-18z" glyph-name="tcaron" horiz-adv-x="396" unicode="ť"/><glyph d="M561.5 655.5q9.5 -9.5 9.5 -26.5t-9.5 -26.5t-26.5 -9.5h-201v-229h95q31 0 31 -31t-31 -31h-95v-266q0 -17 -9.5 -26.5t-26.5 -9.5t-26.5 9.5t-9.5 26.5v266h-94q-31 0 -31 31t31 31h94v229h-201q-17 0 -26.5 9.5t-9.5 26.5t9.5 26.5t26.5 9.5h474q17 0 26.5 -9.5z" glyph-name="Tbar" horiz-adv-x="596" unicode="Ŧ"/><glyph d="M191 280v-94q0 -45 10.5 -69.5t35 -34.5t69.5 -10q36 0 36 -36q0 -17 -9.5 -26.5t-26.5 -9.5q-96 0 -141.5 45t-45.5 141v94h-58q-31 0 -31 31t31 31h58v80h-53q-17 0 -26.5 9.5t-9.5 26.5t9.5 26.5t26.5 9.5h53v86q0 36 36 36t36 -36v-86h119q17 0 26.5 -9.5t9.5 -26.5 t-9.5 -26.5t-26.5 -9.5h-119v-80h124q31 0 31 -31t-31 -31h-124z" glyph-name="tbar" horiz-adv-x="386" unicode="ŧ"/><glyph d="M143 53q-53 53 -53 165v411q0 17 9.5 26.5t26.5 9.5t26.5 -9.5t9.5 -26.5v-411q0 -56 13.5 -87.5t45 -45t87.5 -13.5h120q56 0 87.5 13.5t45 45t13.5 87.5v411q0 17 9.5 26.5t26.5 9.5t26.5 -9.5t9.5 -26.5v-411q0 -112 -52.5 -165t-165.5 -53h-120q-112 0 -165 53z M392.5 740.5q-17.5 10.5 -35.5 28.5q-13 14 -21 18.5t-19 4.5q-14 0 -23.5 -7.5t-17.5 -27.5q-8 -23 -26 -23q-4 0 -12 2q-22 6 -22 24q0 7 3 14q16 41 39.5 59.5t58.5 18.5q28 0 46 -11t37 -30q13 -13 20 -17t17 -4q12 0 19.5 7t14.5 24q9 24 27 24q7 0 10 -1q23 -5 23 -25 q0 -8 -2 -12q-14 -39 -36 -58t-56 -19q-27 0 -44.5 10.5z" glyph-name="Utilde" horiz-adv-x="736" unicode="Ũ"/><glyph d="M532.5 484.5q9.5 -9.5 9.5 -26.5v-422q0 -17 -9.5 -26.5t-26.5 -9.5t-26.5 9.5t-9.5 26.5v28q-52 -64 -162 -64h-28q-97 0 -143.5 46.5t-46.5 143.5v268q0 17 9.5 26.5t26.5 9.5t26.5 -9.5t9.5 -26.5v-268q0 -46 11 -71t36 -36t71 -11h28q74 0 118 20.5t44 60.5v305 q0 17 9.5 26.5t26.5 9.5t26.5 -9.5zM340.5 569.5q-17.5 10.5 -35.5 28.5q-13 14 -21 18.5t-19 4.5q-14 0 -23.5 -7.5t-17.5 -27.5q-8 -23 -26 -23q-4 0 -12 2q-22 6 -22 24q0 7 3 14q16 41 39.5 59.5t58.5 18.5q28 0 46 -11t37 -30q13 -13 20 -17t17 -4q12 0 19.5 7t14.5 24 q9 24 27 24q7 0 10 -1q23 -5 23 -25q0 -8 -2 -12q-14 -39 -36 -58t-56 -19q-27 0 -44.5 10.5z" glyph-name="utilde" horiz-adv-x="642" unicode="ũ"/><glyph d="M143 53q-53 53 -53 165v411q0 17 9.5 26.5t26.5 9.5t26.5 -9.5t9.5 -26.5v-411q0 -56 13.5 -87.5t45 -45t87.5 -13.5h120q56 0 87.5 13.5t45 45t13.5 87.5v411q0 17 9.5 26.5t26.5 9.5t26.5 -9.5t9.5 -26.5v-411q0 -112 -52.5 -165t-165.5 -53h-120q-112 0 -165 53z M202 796q0 36 36 36h253q36 0 36 -36t-36 -36h-253q-36 0 -36 36z" glyph-name="Umacron" horiz-adv-x="736" unicode="Ū"/><glyph d="M532.5 484.5q9.5 -9.5 9.5 -26.5v-422q0 -17 -9.5 -26.5t-26.5 -9.5t-26.5 9.5t-9.5 26.5v28q-52 -64 -162 -64h-28q-97 0 -143.5 46.5t-46.5 143.5v268q0 17 9.5 26.5t26.5 9.5t26.5 -9.5t9.5 -26.5v-268q0 -46 11 -71t36 -36t71 -11h28q74 0 118 20.5t44 60.5v305 q0 17 9.5 26.5t26.5 9.5t26.5 -9.5zM150 625q0 36 36 36h253q36 0 36 -36t-36 -36h-253q-36 0 -36 36z" glyph-name="umacron" horiz-adv-x="642" unicode="ū"/><glyph d="M143 53q-53 53 -53 165v411q0 17 9.5 26.5t26.5 9.5t26.5 -9.5t9.5 -26.5v-411q0 -56 13.5 -87.5t45 -45t87.5 -13.5h120q56 0 87.5 13.5t45 45t13.5 87.5v411q0 17 9.5 26.5t26.5 9.5t26.5 -9.5t9.5 -26.5v-411q0 -112 -52.5 -165t-165.5 -53h-120q-112 0 -165 53z M280.5 741.5q-34.5 26.5 -34.5 76.5v16q0 32 32 32t32 -32v-16q0 -23 15 -33t54 -10t54 10t15 33v24q0 24 32 24t32 -32v-16q0 -50 -34.5 -76.5t-98.5 -26.5t-98.5 26.5z" glyph-name="Ubreve" horiz-adv-x="736" unicode="Ŭ"/><glyph d="M532.5 484.5q9.5 -9.5 9.5 -26.5v-422q0 -17 -9.5 -26.5t-26.5 -9.5t-26.5 9.5t-9.5 26.5v28q-52 -64 -162 -64h-28q-97 0 -143.5 46.5t-46.5 143.5v268q0 17 9.5 26.5t26.5 9.5t26.5 -9.5t9.5 -26.5v-268q0 -46 11 -71t36 -36t71 -11h28q74 0 118 20.5t44 60.5v305 q0 17 9.5 26.5t26.5 9.5t26.5 -9.5zM228.5 570.5q-34.5 26.5 -34.5 76.5v16q0 32 32 32t32 -32v-16q0 -23 15 -33t54 -10t54 10t15 33v24q0 24 32 24t32 -32v-16q0 -50 -34.5 -76.5t-98.5 -26.5t-98.5 26.5z" glyph-name="ubreve" horiz-adv-x="642" unicode="ŭ"/><glyph d="M143 53q-53 53 -53 165v411q0 17 9.5 26.5t26.5 9.5t26.5 -9.5t9.5 -26.5v-411q0 -56 13.5 -87.5t45 -45t87.5 -13.5h120q56 0 87.5 13.5t45 45t13.5 87.5v411q0 17 9.5 26.5t26.5 9.5t26.5 -9.5t9.5 -26.5v-411q0 -112 -52.5 -165t-165.5 -53h-120q-112 0 -165 53z M311.5 739.5q-20.5 20.5 -20.5 56.5t20.5 56.5t56.5 20.5t56.5 -20.5t20.5 -56.5t-20.5 -56.5t-56.5 -20.5t-56.5 20.5zM388.5 776q3.5 4 3.5 20q0 17 -4 20.5t-20 3.5q-17 0 -20.5 -4t-3.5 -20q0 -17 4 -20.5t20 -3.5q17 0 20.5 4z" glyph-name="Uring" horiz-adv-x="736" unicode="Ů"/><glyph d="M532.5 484.5q9.5 -9.5 9.5 -26.5v-422q0 -17 -9.5 -26.5t-26.5 -9.5t-26.5 9.5t-9.5 26.5v28q-52 -64 -162 -64h-28q-97 0 -143.5 46.5t-46.5 143.5v268q0 17 9.5 26.5t26.5 9.5t26.5 -9.5t9.5 -26.5v-268q0 -46 11 -71t36 -36t71 -11h28q74 0 118 20.5t44 60.5v305 q0 17 9.5 26.5t26.5 9.5t26.5 -9.5zM259.5 568.5q-20.5 20.5 -20.5 56.5t20.5 56.5t56.5 20.5t56.5 -20.5t20.5 -56.5t-20.5 -56.5t-56.5 -20.5t-56.5 20.5zM336.5 605q3.5 4 3.5 20q0 17 -4 20.5t-20 3.5q-17 0 -20.5 -4t-3.5 -20q0 -17 4 -20.5t20 -3.5q17 0 20.5 4z" glyph-name="uring" horiz-adv-x="642" unicode="ů"/><glyph d="M143 53q-53 53 -53 165v411q0 17 9.5 26.5t26.5 9.5t26.5 -9.5t9.5 -26.5v-411q0 -56 13.5 -87.5t45 -45t87.5 -13.5h120q56 0 87.5 13.5t45 45t13.5 87.5v411q0 17 9.5 26.5t26.5 9.5t26.5 -9.5t9.5 -26.5v-411q0 -112 -52.5 -165t-165.5 -53h-120q-112 0 -165 53z M265 750q0 12 9 22l78 93q10 13 23 13q11 0 22 -9q13 -10 13 -23q0 -11 -9 -22l-78 -93q-10 -13 -23 -13q-11 0 -22 9q-13 10 -13 23zM407 750q0 12 9 22l78 93q10 13 23 13q11 0 22 -9q13 -10 13 -23q0 -11 -9 -22l-78 -93q-10 -13 -23 -13q-11 0 -22 9q-13 10 -13 23z" glyph-name="Uhungarumlaut" horiz-adv-x="736" unicode="Ű"/><glyph d="M532.5 484.5q9.5 -9.5 9.5 -26.5v-422q0 -17 -9.5 -26.5t-26.5 -9.5t-26.5 9.5t-9.5 26.5v28q-52 -64 -162 -64h-28q-97 0 -143.5 46.5t-46.5 143.5v268q0 17 9.5 26.5t26.5 9.5t26.5 -9.5t9.5 -26.5v-268q0 -46 11 -71t36 -36t71 -11h28q74 0 118 20.5t44 60.5v305 q0 17 9.5 26.5t26.5 9.5t26.5 -9.5zM213 579q0 12 9 22l78 93q10 13 23 13q11 0 22 -9q13 -10 13 -23q0 -11 -9 -22l-78 -93q-10 -13 -23 -13q-11 0 -22 9q-13 10 -13 23zM355 579q0 12 9 22l78 93q10 13 23 13q11 0 22 -9q13 -10 13 -23q0 -11 -9 -22l-78 -93 q-10 -13 -23 -13q-11 0 -22 9q-13 10 -13 23z" glyph-name="uhungarumlaut" horiz-adv-x="642" unicode="ű"/><glyph d="M522 -44q-12 -15 -12 -27q0 -11 9.5 -18.5t25.5 -7.5q12 0 22.5 4.5t14.5 6.5q8 3 14 3q17 0 25 -9.5t8 -24.5q0 -14 -14 -22q-33 -22 -70 -22q-42 0 -70.5 26t-28.5 64q0 33 24 65l7 9q-24 -3 -49 -3h-120q-112 0 -165 53t-53 165v411q0 17 9.5 26.5t26.5 9.5t26.5 -9.5 t9.5 -26.5v-411q0 -56 13.5 -87.5t45 -45t87.5 -13.5h120q56 0 87.5 13.5t45 45t13.5 87.5v411q0 17 9.5 26.5t26.5 9.5t26.5 -9.5t9.5 -26.5v-411q0 -101 -42 -153q-2 -4 -4 -6z" glyph-name="Uogonek" horiz-adv-x="736" unicode="Ų"/><glyph d="M600 -93.5q9 -9.5 9 -22.5q0 -14 -9 -23q-21 -20 -46.5 -31.5t-50.5 -11.5q-42 0 -70.5 26t-28.5 64q0 33 24 65l42 59v4v28q-52 -64 -162 -64h-28q-97 0 -143.5 46.5t-46.5 143.5v268q0 17 9.5 26.5t26.5 9.5t26.5 -9.5t9.5 -26.5v-268q0 -46 11 -71t36 -36t71 -11h28 q74 0 118 20.5t44 60.5v305q0 17 9.5 26.5t26.5 9.5t26.5 -9.5t9.5 -26.5v-422q0 -15 -8 -25l-2 -3l-52 -73q-12 -15 -12 -27q0 -11 9.5 -18.5t25.5 -7.5q27 0 51 25q11 9 23 9q14 0 23 -9.5z" glyph-name="uogonek" horiz-adv-x="642" unicode="ų"/><glyph d="M862 631q0 -9 -2 -14l-188 -587q-11 -30 -37 -30h-3q-28 0 -37 30l-156 502l-156 -502q-6 -16 -13.5 -23t-23.5 -7h-2q-13 0 -21 7t-12 23l-188 587q-3 8 -3 15q0 21 26 30q9 3 15 3q21 0 30 -26l159 -499l151 495q9 30 41 30h1q30 0 39 -30l151 -495l159 499q8 26 29 26 q7 0 16 -3q25 -7 25 -31zM296.5 723q-9.5 10 -9.5 23q0 8 4 15.5t11 12.5l95 79q18 15 41 15h6q23 0 41 -15l95 -79q7 -5 11 -12.5t4 -15.5q0 -13 -10 -23t-23 -10q-14 0 -24 10l-95 79h-4l-95 -79q-10 -10 -24 -10t-23.5 10z" glyph-name="Wcircumflex" horiz-adv-x="883" unicode="Ŵ"/><glyph d="M701 461q0 -7 -3 -16l-153 -416q-10 -29 -41 -29q-32 0 -41 30l-102 335l-111 -336q-10 -29 -39 -29t-39 29l-140 417q-2 5 -2 14q0 24 25 31q9 3 15 3q22 0 30 -26l116 -343l110 340q9 29 41 29q30 0 39 -30l103 -339l121 344q9 25 30 25q7 0 16 -3q25 -9 25 -30z M246 557q-9 9 -9 22q0 11 8 21l75 82q16 17 38 17h10q22 0 38 -17l75 -82q8 -10 8 -21q0 -13 -9 -22t-22 -9q-14 0 -23 10l-67 79h-10l-67 -79q-10 -10 -23 -10t-22 9z" glyph-name="wcircumflex" horiz-adv-x="731" unicode="ŵ"/><glyph d="M567 629q0 -10 -8 -21l-233 -361v-211q0 -17 -9.5 -26.5t-26.5 -9.5t-26.5 9.5t-9.5 26.5v211l-227 361q-7 11 -7 21q0 17 18 29q11 7 22 7q18 0 28 -18l202 -323l209 323q10 18 27 18q11 0 22 -8q19 -11 19 -28zM147.5 723q-9.5 10 -9.5 23q0 8 4 15.5t11 12.5l95 79 q18 15 41 15h6q23 0 41 -15l95 -79q7 -5 11 -12.5t4 -15.5q0 -13 -10 -23t-23 -10q-14 0 -24 10l-95 79h-4l-95 -79q-10 -10 -24 -10t-23.5 10z" glyph-name="Ycircumflex" horiz-adv-x="587" unicode="Ŷ"/><glyph d="M124 -165.5q-34 34.5 -34 104.5q0 36 36 36t36 -36q0 -40 13 -53.5t53 -13.5h186q40 0 53 13.5t13 53.5v131q-28 -40 -67 -55t-95 -15h-41q-96 0 -141.5 45t-45.5 141v272q0 36 36 36t36 -36v-272q0 -45 10.5 -69.5t35 -34.5t69.5 -10h41q84 0 123 28t39 86v272 q0 36 36 36t36 -36v-519q0 -70 -34 -104.5t-104 -34.5h-186q-70 0 -104 34.5zM205 557q-9 9 -9 22q0 11 8 21l75 82q16 17 38 17h10q22 0 38 -17l75 -82q8 -10 8 -21q0 -13 -9 -22t-22 -9q-14 0 -23 10l-67 79h-10l-67 -79q-10 -10 -23 -10t-22 9z" glyph-name="ycircumflex" horiz-adv-x="652" unicode="ŷ"/><glyph d="M567 629q0 -10 -8 -21l-233 -361v-211q0 -17 -9.5 -26.5t-26.5 -9.5t-26.5 9.5t-9.5 26.5v211l-227 361q-7 11 -7 21q0 17 18 29q11 7 22 7q18 0 28 -18l202 -323l209 323q10 18 27 18q11 0 22 -8q19 -11 19 -28zM176.5 752.5q-9.5 9.5 -9.5 26.5v23q0 35 36 35h22 q34 0 34 -35v-23q0 -17 -9 -26.5t-25 -9.5h-22q-17 0 -26.5 9.5zM336.5 752.5q-9.5 9.5 -9.5 26.5v23q0 35 36 35h22q34 0 34 -35v-23q0 -17 -9 -26.5t-25 -9.5h-22q-17 0 -26.5 9.5z" glyph-name="Ydieresis" horiz-adv-x="587" unicode="Ÿ"/><glyph d="M604.5 148q9.5 -10 7.5 -28q-10 -59 -49.5 -89.5t-106.5 -30.5h-359q-17 0 -26.5 9.5t-9.5 26.5q0 12 15 33l398 524h-269q-37 0 -56.5 -12t-25.5 -40q-4 -17 -12.5 -25.5t-25.5 -8.5q-18 0 -28 10t-7 28q10 59 49 89.5t106 30.5h333q36 0 36 -36q0 -15 -14 -35 l-397 -522h293q38 0 57.5 12t25.5 40q4 17 12.5 25.5t25.5 8.5q18 0 27.5 -10zM312 750q0 12 9 22l78 93q10 13 23 13q11 0 22 -9q13 -10 13 -23q0 -11 -9 -22l-78 -93q-10 -13 -23 -13q-12 0 -22 9q-13 10 -13 23z" glyph-name="Zacute" horiz-adv-x="662" unicode="Ź"/><glyph d="M491 128q10 -10 7 -28q-10 -49 -44 -74.5t-91 -25.5h-262q-17 0 -26.5 9.5t-9.5 26.5t15 36l281 350h-180q-30 0 -44 -6.5t-19 -24.5t-13 -26.5t-24 -8.5q-19 0 -28.5 10t-6.5 28q8 51 41.5 75.5t93.5 24.5h245q36 0 36 -36q0 -17 -16 -37l-279 -348l196 -1q28 0 42 7 t20 25t14 26t24 8q18 0 28 -10zM240 579q0 12 9 22l78 93q10 13 23 13q11 0 22 -9q13 -10 13 -23q0 -11 -9 -22l-78 -93q-10 -13 -23 -13q-12 0 -22 9q-13 10 -13 23z" glyph-name="zacute" horiz-adv-x="534" unicode="ź"/><glyph d="M604.5 148q9.5 -10 7.5 -28q-10 -59 -49.5 -89.5t-106.5 -30.5h-359q-17 0 -26.5 9.5t-9.5 26.5q0 12 15 33l398 524h-269q-37 0 -56.5 -12t-25.5 -40q-4 -17 -12.5 -25.5t-25.5 -8.5q-18 0 -28 10t-7 28q10 59 49 89.5t106 30.5h333q36 0 36 -36q0 -15 -14 -35 l-397 -522h293q38 0 57.5 12t25.5 40q4 17 12.5 25.5t25.5 8.5q18 0 27.5 -10zM305 761.5q-11 11.5 -11 31.5v28q0 41 43 41h26q20 0 30.5 -10.5t10.5 -30.5v-28q0 -20 -11 -31.5t-30 -11.5h-26q-21 0 -32 11.5z" glyph-name="Zdotaccent" horiz-adv-x="662" unicode="Ż"/><glyph d="M491 128q10 -10 7 -28q-10 -49 -44 -74.5t-91 -25.5h-262q-17 0 -26.5 9.5t-9.5 26.5t15 36l281 350h-180q-30 0 -44 -6.5t-19 -24.5t-13 -26.5t-24 -8.5q-19 0 -28.5 10t-6.5 28q8 51 41.5 75.5t93.5 24.5h245q36 0 36 -36q0 -17 -16 -37l-279 -348l196 -1q28 0 42 7 t20 25t14 26t24 8q18 0 28 -10zM233 590.5q-11 11.5 -11 31.5v28q0 41 43 41h26q20 0 30.5 -10.5t10.5 -30.5v-28q0 -20 -11 -31.5t-30 -11.5h-26q-21 0 -32 11.5z" glyph-name="zdotaccent" horiz-adv-x="534" unicode="ż"/><glyph d="M604.5 148q9.5 -10 7.5 -28q-10 -59 -49.5 -89.5t-106.5 -30.5h-359q-17 0 -26.5 9.5t-9.5 26.5q0 12 15 33l398 524h-269q-37 0 -56.5 -12t-25.5 -40q-4 -17 -12.5 -25.5t-25.5 -8.5q-18 0 -28 10t-7 28q10 59 49 89.5t106 30.5h333q36 0 36 -36q0 -15 -14 -35 l-397 -522h293q38 0 57.5 12t25.5 40q4 17 12.5 25.5t25.5 8.5q18 0 27.5 -10zM253 858l95 -79h4l95 79q10 10 24 10q13 0 23 -9.5t10 -23.5q0 -8 -4 -15.5t-11 -12.5l-95 -79q-18 -15 -41 -15h-6q-23 0 -41 15l-95 79q-7 5 -11 12.5t-4 15.5q0 14 9.5 23.5t23.5 9.5t24 -10 z" glyph-name="Zcaron" horiz-adv-x="662" unicode="Ž"/><glyph d="M491 128q10 -10 7 -28q-10 -49 -44 -74.5t-91 -25.5h-262q-17 0 -26.5 9.5t-9.5 26.5t15 36l281 350h-180q-30 0 -44 -6.5t-19 -24.5t-13 -26.5t-24 -8.5q-19 0 -28.5 10t-6.5 28q8 51 41.5 75.5t93.5 24.5h245q36 0 36 -36q0 -17 -16 -37l-279 -348l196 -1q28 0 42 7 t20 25t14 26t24 8q18 0 28 -10zM204 689l67 -79h10l67 79q9 10 23 10q13 0 22 -9t9 -22q0 -11 -8 -21l-75 -82q-16 -17 -38 -17h-10q-22 0 -38 17l-75 82q-8 10 -8 21q0 13 9 22t22 9t23 -10z" glyph-name="zcaron" horiz-adv-x="534" unicode="ž"/><glyph d="M133 53q-53 53 -53 165v99h484v127q0 56 -13.5 87.5t-45 45t-87.5 13.5h-120q-56 0 -87.5 -13.5t-45 -45t-13.5 -87.5q0 -15 -10.5 -25.5t-25.5 -10.5t-25.5 10.5t-10.5 25.5q0 113 53 165.5t165 52.5h120q113 0 165.5 -52.5t52.5 -165.5v-226q0 -112 -52.5 -165 t-165.5 -53h-120q-112 0 -165 53zM418 72q56 0 87.5 13.5t45 45t13.5 87.5v27h-412v-27q0 -56 13.5 -87.5t45 -45t87.5 -13.5h120z" glyph-name="uni018F" horiz-adv-x="716" unicode="Ə"/><glyph d="M264 596q-24 -27 -35 -86l-3 -16h87q17 0 26.5 -9.5t9.5 -26.5t-9.5 -26.5t-26.5 -9.5h-100l-58 -325q-15 -82 -87 -97q-3 -1 -9 -1q-13 0 -21 9.5t-8 25.5t7 24t25 16q19 9 23 36l56 312h-43q-17 0 -26.5 9.5t-9.5 26.5t9.5 26.5t26.5 9.5h56l5 28q15 84 57 126.5 t118 52.5q18 2 27.5 -7.5t9.5 -27.5q0 -32 -35 -37q-48 -6 -72 -33z" glyph-name="florin" horiz-adv-x="341" unicode="ƒ"/><glyph d="M686 662v-16q0 -67 -68 -87q18 -45 18 -112v-229q0 -112 -52.5 -165t-165.5 -53h-120q-112 0 -165 53t-53 165v230q0 113 53 165.5t165 51.5h120q115 0 167 -55q18 2 25.5 10t7.5 26v25q0 25 34 25t34 -34zM564 447q0 56 -13.5 87.5t-45 45t-87.5 13.5h-120 q-56 1 -87.5 -12.5t-45 -45t-13.5 -87.5v-230q0 -56 13.5 -87.5t45 -45t87.5 -13.5h120q56 0 87.5 13.5t45 45t13.5 87.5v229z" glyph-name="Ohorn" horiz-adv-x="716" unicode="Ơ"/><glyph d="M596 499v-16q0 -69 -68 -86q14 -40 14 -93v-114q0 -97 -46 -143.5t-144 -46.5h-82q-97 0 -143.5 46t-46.5 143v115q0 98 46 144t144 46h82q98 0 144 -47q18 2 25 10.5t7 25.5v25q0 25 34 25t34 -34zM470 304q0 46 -11 71t-36 36t-71 11h-82q-46 0 -71 -10.5t-36 -36 t-11 -71.5v-115q0 -45 11 -70t36 -36t71 -11h82q46 0 71 11t36 36t11 71v114z" glyph-name="ohorn" unicode="ơ"/><glyph d="M733 718v-16q0 -77 -87 -90v-394q0 -112 -52.5 -165t-165.5 -53h-120q-112 0 -165 53t-53 165v411q0 17 9.5 26.5t26.5 9.5t26.5 -9.5t9.5 -26.5v-411q0 -56 13.5 -87.5t45 -45t87.5 -13.5h120q56 0 87.5 13.5t45 45t13.5 87.5v411q0 17 9.5 26.5t26.5 9.5q32 0 43.5 7.5 t11.5 29.5v25q0 25 34 25t34 -34z" glyph-name="Uhorn" horiz-adv-x="736" unicode="Ư"/><glyph d="M627 547v-16q0 -76 -85 -90v-405q0 -17 -9.5 -26.5t-26.5 -9.5t-26.5 9.5t-9.5 26.5v28q-52 -64 -162 -64h-28q-97 0 -143.5 46.5t-46.5 143.5v268q0 17 9.5 26.5t26.5 9.5t26.5 -9.5t9.5 -26.5v-268q0 -46 11 -71t36 -36t71 -11h28q74 0 118 20.5t44 60.5v305q0 17 9 26 t25 10q32 0 43.5 7.5t11.5 29.5v25q0 25 34 25t34 -34z" glyph-name="uhorn" horiz-adv-x="642" unicode="ư"/><glyph d="M109.5 9.5q-9.5 9.5 -9.5 26.5v593q0 17 9.5 26.5t26.5 9.5h241q128 0 188 -60t60 -188v-169q0 -128 -60 -188t-188 -60h-241q-17 0 -26.5 9.5zM377 72q66 0 104 17t55 55t17 104v169q0 66 -17 104t-55 55t-104 17h-205v-521h205zM1269.5 148q9.5 -10 7.5 -28 q-10 -59 -49.5 -89.5t-106.5 -30.5h-359q-17 0 -26.5 9.5t-9.5 26.5q0 12 15 33l398 524h-269q-37 0 -56.5 -12t-25.5 -40q-4 -17 -12.5 -25.5t-25.5 -8.5q-18 0 -28 10t-7 28q10 59 49 89.5t106 30.5h333q36 0 36 -36q0 -15 -14 -35l-397 -522h293q38 0 57.5 12t25.5 40 q4 17 12.5 25.5t25.5 8.5q18 0 27.5 -10zM893 858l95 -79h4l95 79q10 10 24 10q13 0 23 -9.5t10 -23.5q0 -8 -4 -15.5t-11 -12.5l-95 -79q-18 -15 -41 -15h-6q-23 0 -41 15l-95 79q-7 5 -11 12.5t-4 15.5q0 14 9.5 23.5t23.5 9.5t24 -10z" glyph-name="uni01C4" horiz-adv-x="1327" unicode="Ǆ"/><glyph d="M109.5 9.5q-9.5 9.5 -9.5 26.5v593q0 17 9.5 26.5t26.5 9.5h241q128 0 188 -60t60 -188v-169q0 -128 -60 -188t-188 -60h-241q-17 0 -26.5 9.5zM377 72q66 0 104 17t55 55t17 104v169q0 66 -17 104t-55 55t-104 17h-205v-521h205zM1136 128q10 -10 7 -28 q-10 -49 -44 -74.5t-91 -25.5h-262q-17 0 -26.5 9.5t-9.5 26.5t15 36l281 350h-180q-30 0 -44 -6.5t-19 -24.5t-13 -26.5t-24 -8.5q-19 0 -28.5 10t-6.5 28q8 51 41.5 75.5t93.5 24.5h245q36 0 36 -36q0 -17 -16 -37l-279 -348l196 -1q28 0 42 7t20 25t14 26t24 8 q18 0 28 -10zM826 687l95 -79h4l95 79q10 10 24 10q13 0 23 -9.5t10 -23.5q0 -8 -4 -15.5t-11 -12.5l-95 -79q-18 -15 -41 -15h-6q-23 0 -41 15l-95 79q-7 5 -11 12.5t-4 15.5q0 14 9.5 23.5t23.5 9.5t24 -10z" glyph-name="uni01C5" horiz-adv-x="1179" unicode="ǅ"/><glyph d="M532.5 690.5q9.5 -9.5 9.5 -26.5v-628q0 -17 -9.5 -26.5t-26.5 -9.5t-26.5 9.5t-9.5 26.5v19q-47 -55 -162 -55h-38q-97 0 -143.5 46.5t-46.5 143.5v114q0 98 46.5 144t143.5 46h200v170q0 17 9.5 26.5t26.5 9.5t26.5 -9.5zM426 92.5q44 20.5 44 60.5v269h-200 q-46 0 -71 -11t-36 -36t-11 -71v-114q0 -46 11 -71t36 -36t71 -11h38q74 0 118 20.5zM1073 128q10 -10 7 -28q-10 -49 -44 -74.5t-91 -25.5h-262q-17 0 -26.5 9.5t-9.5 26.5t15 36l281 350h-180q-30 0 -44 -6.5t-19 -24.5t-13 -26.5t-24 -8.5q-19 0 -28.5 10t-6.5 28 q8 51 41.5 75.5t93.5 24.5h245q36 0 36 -36q0 -17 -16 -37l-279 -348l196 -1q28 0 42 7t20 25t14 26t24 8q18 0 28 -10zM786 689l67 -79h10l67 79q9 10 23 10q13 0 22 -9t9 -22q0 -11 -8 -21l-75 -82q-16 -17 -38 -17h-10q-22 0 -38 17l-75 82q-8 10 -8 21q0 13 9 22t22 9 t23 -10z" glyph-name="uni01C6" horiz-adv-x="1116" unicode="ǆ"/><glyph d="M100 36v593q0 36 36 36t36 -36v-557h287q36 0 36 -36t-36 -36h-323q-36 0 -36 36zM610.5 38.5q-47.5 38.5 -55.5 122.5q-1 18 8 27.5t27 9.5q34 0 37 -36q6 -51 33.5 -70.5t91.5 -19.5h67q50 0 76.5 11t38 38t11.5 77v431q0 36 36 36q17 0 26.5 -9.5t9.5 -26.5v-431 q0 -103 -47.5 -150.5t-150.5 -47.5h-67q-94 0 -141.5 38.5z" glyph-name="uni01C7" horiz-adv-x="1107" unicode="Ǉ"/><glyph d="M100 36v593q0 36 36 36t36 -36v-557h287q36 0 36 -36t-36 -36h-323q-36 0 -36 36zM445.5 -137.5q9.5 9.5 26.5 9.5q44 0 59 15t15 59v512q0 17 9.5 26.5t26.5 9.5t26.5 -9.5t9.5 -26.5v-512q0 -74 -36 -110t-110 -36q-36 0 -36 36q0 17 9.5 26.5zM538 590.5 q-11 11.5 -11 31.5v28q0 41 43 41h26q20 0 30.5 -10.5t10.5 -30.5v-28q0 -20 -11 -31.5t-30 -11.5h-26q-21 0 -32 11.5z" glyph-name="uni01C8" horiz-adv-x="718" unicode="ǈ"/><glyph d="M136 36q-36 36 -36 110v518q0 17 9.5 26.5t26.5 9.5t26.5 -9.5t9.5 -26.5v-518q0 -43 15.5 -58.5t58.5 -15.5q18 0 27.5 -9.5t9.5 -26.5t-9.5 -26.5t-27.5 -9.5q-74 0 -110 36zM322.5 -137.5q9.5 9.5 26.5 9.5q44 0 59 15t15 59v512q0 17 9.5 26.5t26.5 9.5t26.5 -9.5 t9.5 -26.5v-512q0 -74 -36 -110t-110 -36q-36 0 -36 36q0 17 9.5 26.5zM415 590.5q-11 11.5 -11 31.5v28q0 41 43 41h26q20 0 30.5 -10.5t10.5 -30.5v-28q0 -20 -11 -31.5t-30 -11.5h-26q-21 0 -32 11.5z" glyph-name="uni01C9" horiz-adv-x="595" unicode="ǉ"/><glyph d="M627.5 655.5q9.5 -9.5 9.5 -26.5v-593q0 -17 -9.5 -26.5t-26.5 -9.5q-10 0 -18.5 5t-17.5 16l-393 506v-491q0 -17 -9.5 -26.5t-26.5 -9.5t-26.5 9.5t-9.5 26.5v593q0 17 9.5 26.5t26.5 9.5q21 0 36 -21l393 -505v490q0 17 9.5 26.5t26.5 9.5t26.5 -9.5zM822.5 38.5 q-47.5 38.5 -55.5 122.5q-1 18 8 27.5t27 9.5q34 0 37 -36q6 -51 33.5 -70.5t91.5 -19.5h67q50 0 76.5 11t38 38t11.5 77v431q0 36 36 36q17 0 26.5 -9.5t9.5 -26.5v-431q0 -103 -47.5 -150.5t-150.5 -47.5h-67q-94 0 -141.5 38.5z" glyph-name="uni01CA" horiz-adv-x="1319" unicode="Ǌ"/><glyph d="M627.5 655.5q9.5 -9.5 9.5 -26.5v-593q0 -17 -9.5 -26.5t-26.5 -9.5q-10 0 -18.5 5t-17.5 16l-393 506v-491q0 -17 -9.5 -26.5t-26.5 -9.5t-26.5 9.5t-9.5 26.5v593q0 17 9.5 26.5t26.5 9.5q21 0 36 -21l393 -505v490q0 17 9.5 26.5t26.5 9.5t26.5 -9.5zM736.5 -137.5 q9.5 9.5 26.5 9.5q44 0 59 15t15 59v512q0 17 9.5 26.5t26.5 9.5t26.5 -9.5t9.5 -26.5v-512q0 -74 -36 -110t-110 -36q-36 0 -36 36q0 17 9.5 26.5zM829 590.5q-11 11.5 -11 31.5v28q0 41 43 41h26q20 0 30.5 -10.5t10.5 -30.5v-28q0 -20 -11 -31.5t-30 -11.5h-26 q-21 0 -32 11.5z" glyph-name="uni01CB" horiz-adv-x="1009" unicode="ǋ"/><glyph d="M506 448q46 -46 46 -144v-268q0 -17 -9.5 -26.5t-26.5 -9.5t-26.5 9.5t-9.5 26.5v268q0 46 -11 71t-36 36t-71 11h-28q-74 0 -118 -20.5t-44 -60.5v-305q0 -17 -9.5 -26.5t-26.5 -9.5t-26.5 9.5t-9.5 26.5v422q0 17 9.5 26.5t26.5 9.5t26.5 -9.5t9.5 -26.5v-28 q52 64 162 64h28q98 0 144 -46zM641.5 -137.5q9.5 9.5 26.5 9.5q44 0 59 15t15 59v512q0 17 9.5 26.5t26.5 9.5t26.5 -9.5t9.5 -26.5v-512q0 -74 -36 -110t-110 -36q-36 0 -36 36q0 17 9.5 26.5zM734 590.5q-11 11.5 -11 31.5v28q0 41 43 41h26q20 0 30.5 -10.5t10.5 -30.5 v-28q0 -20 -11 -31.5t-30 -11.5h-26q-21 0 -32 11.5z" glyph-name="uni01CC" horiz-adv-x="914" unicode="ǌ"/><glyph d="M133 53q-53 53 -53 165v229q0 113 52.5 166t164.5 52h121q93 0 141 -38.5t55 -122.5q2 -18 -7.5 -27.5t-27.5 -9.5q-32 0 -37 36q-5 51 -32.5 70.5t-91.5 19.5h-121q-55 1 -86.5 -12.5t-45 -45.5t-13.5 -88v-229q0 -56 13.5 -87.5t45 -45t87.5 -13.5h120q50 0 76.5 11 t38 38t11.5 77v53l-90 1q-36 0 -36 36q0 17 9.5 26.5t26.5 9.5l126 -1q17 0 26.5 -9.5t9.5 -26.5v-89q0 -103 -47.5 -150.5t-150.5 -47.5h-120q-112 0 -165 53zM283 860l67 -79h10l67 79q9 10 23 10q13 0 22 -9t9 -22q0 -11 -8 -21l-75 -82q-16 -17 -38 -17h-10 q-22 0 -38 17l-75 82q-8 10 -8 21q0 13 9 22t22 9t23 -10z" glyph-name="Gcaron" horiz-adv-x="686" unicode="Ǧ"/><glyph d="M532.5 484.5q9.5 -9.5 9.5 -26.5v-520q0 -71 -33.5 -104.5t-104.5 -33.5h-186q-60 0 -93.5 24.5t-41.5 75.5q-3 18 6.5 28t28.5 10q16 0 23.5 -8t13.5 -27q5 -18 19 -24.5t44 -6.5h186q40 0 53 13t13 53v126q-52 -64 -162 -64h-38q-97 0 -143.5 46t-46.5 143v115 q0 98 46.5 144.5t143.5 45.5h82q79 0 118 -46v10q0 17 9.5 26.5t26.5 9.5t26.5 -9.5zM426 92.5q44 20.5 44 60.5v187q0 45 -29 63.5t-89 18.5h-82q-46 1 -71 -10t-36 -36.5t-11 -71.5v-115q0 -45 11 -70t36 -36t71 -11h38q74 0 118 20.5zM236 689l67 -79h10l67 79 q9 10 23 10q13 0 22 -9t9 -22q0 -11 -8 -21l-75 -82q-16 -17 -38 -17h-10q-22 0 -38 17l-75 82q-8 10 -8 21q0 13 9 22t22 9t23 -10z" glyph-name="gcaron" horiz-adv-x="632" unicode="ǧ"/><glyph d="M476 -50q-12 -15 -12 -27q0 -11 9.5 -18.5t25.5 -7.5q27 0 51 25q11 9 23 9q14 0 23 -9.5t9 -22.5q0 -14 -9 -23q-21 -20 -46.5 -31.5t-50.5 -11.5q-42 0 -70.5 26t-28.5 64q0 33 24 65l9 12h-15h-120q-112 0 -165 53t-53 165v230q0 113 53 165.5t165 51.5h120 q113 0 165.5 -52.5t52.5 -165.5v-229q0 -82 -27.5 -132t-85.5 -71zM418 72q56 0 87.5 13.5t45 45t13.5 87.5v229q0 56 -13.5 87.5t-45 45t-87.5 13.5h-120q-56 1 -87.5 -12.5t-45 -45t-13.5 -87.5v-230q0 -56 13.5 -87.5t45 -45t87.5 -13.5h120z" glyph-name="uni01EA" horiz-adv-x="716" unicode="Ǫ"/><glyph d="M416 -67q-12 -15 -12 -27q0 -11 9.5 -18.5t25.5 -7.5q12 0 22.5 4.5t14.5 6.5q7 3 14 3q17 0 25 -9.5t8 -24.5q0 -14 -14 -22q-33 -22 -70 -22q-42 0 -70.5 26t-28.5 64q0 33 24 65l23 31q-22 -2 -35 -2h-82q-97 0 -143.5 46t-46.5 143v115q0 98 46 144t144 46h82 q98 0 144 -46t46 -144v-114q0 -91 -40 -137q-2 -9 -8 -17zM352 72q46 0 71 11t36 36t11 71v114q0 46 -11 71t-36 36t-71 11h-82q-46 0 -71 -10.5t-36 -36t-11 -71.5v-115q0 -45 11 -70t36 -36t71 -11h82z" glyph-name="uni01EB" unicode="ǫ"/><glyph d="M109.5 9.5q-9.5 9.5 -9.5 26.5v593q0 17 9.5 26.5t26.5 9.5h241q128 0 188 -60t60 -188v-169q0 -128 -60 -188t-188 -60h-241q-17 0 -26.5 9.5zM377 72q66 0 104 17t55 55t17 104v169q0 66 -17 104t-55 55t-104 17h-205v-521h205zM1269.5 148q9.5 -10 7.5 -28 q-10 -59 -49.5 -89.5t-106.5 -30.5h-359q-17 0 -26.5 9.5t-9.5 26.5q0 12 15 33l398 524h-269q-37 0 -56.5 -12t-25.5 -40q-4 -17 -12.5 -25.5t-25.5 -8.5q-18 0 -28 10t-7 28q10 59 49 89.5t106 30.5h333q36 0 36 -36q0 -15 -14 -35l-397 -522h293q38 0 57.5 12t25.5 40 q4 17 12.5 25.5t25.5 8.5q18 0 27.5 -10z" glyph-name="uni01F1" horiz-adv-x="1327" unicode="Ǳ"/><glyph d="M109.5 9.5q-9.5 9.5 -9.5 26.5v593q0 17 9.5 26.5t26.5 9.5h241q128 0 188 -60t60 -188v-169q0 -128 -60 -188t-188 -60h-241q-17 0 -26.5 9.5zM377 72q66 0 104 17t55 55t17 104v169q0 66 -17 104t-55 55t-104 17h-205v-521h205zM1136 128q10 -10 7 -28 q-10 -49 -44 -74.5t-91 -25.5h-262q-17 0 -26.5 9.5t-9.5 26.5t15 36l281 350h-180q-30 0 -44 -6.5t-19 -24.5t-13 -26.5t-24 -8.5q-19 0 -28.5 10t-6.5 28q8 51 41.5 75.5t93.5 24.5h245q36 0 36 -36q0 -17 -16 -37l-279 -348l196 -1q28 0 42 7t20 25t14 26t24 8 q18 0 28 -10z" glyph-name="uni01F2" horiz-adv-x="1179" unicode="ǲ"/><glyph d="M532.5 690.5q9.5 -9.5 9.5 -26.5v-628q0 -17 -9.5 -26.5t-26.5 -9.5t-26.5 9.5t-9.5 26.5v19q-47 -55 -162 -55h-38q-97 0 -143.5 46.5t-46.5 143.5v114q0 98 46.5 144t143.5 46h200v170q0 17 9.5 26.5t26.5 9.5t26.5 -9.5zM426 92.5q44 20.5 44 60.5v269h-200 q-46 0 -71 -11t-36 -36t-11 -71v-114q0 -46 11 -71t36 -36t71 -11h38q74 0 118 20.5zM1073 128q10 -10 7 -28q-10 -49 -44 -74.5t-91 -25.5h-262q-17 0 -26.5 9.5t-9.5 26.5t15 36l281 350h-180q-30 0 -44 -6.5t-19 -24.5t-13 -26.5t-24 -8.5q-19 0 -28.5 10t-6.5 28 q8 51 41.5 75.5t93.5 24.5h245q36 0 36 -36q0 -17 -16 -37l-279 -348l196 -1q28 0 42 7t20 25t14 26t24 8q18 0 28 -10z" glyph-name="uni01F3" horiz-adv-x="1116" unicode="ǳ"/><glyph d="M611 34q0 -21 -23 -30q-9 -4 -18 -4q-20 0 -29 23l-59 141h-317l-57 -141q-9 -23 -30 -23q-9 0 -17 4q-24 9 -24 30q0 9 4 17l241 586q12 28 41 28h2q27 0 39 -28l243 -586q4 -8 4 -17zM194 236h258l-131 315zM267.5 739.5q-20.5 20.5 -20.5 56.5t20.5 56.5t56.5 20.5 t56.5 -20.5t20.5 -56.5t-20.5 -56.5t-56.5 -20.5t-56.5 20.5zM344.5 776q3.5 4 3.5 20q0 17 -4 20.5t-20 3.5q-17 0 -20.5 -4t-3.5 -20q0 -17 4 -20.5t20 -3.5q17 0 20.5 4zM288 952q0 12 9 22l78 93q10 13 23 13q11 0 22 -9q13 -10 13 -23q0 -11 -9 -22l-78 -93 q-10 -13 -23 -13q-12 0 -22 9q-13 10 -13 23z" glyph-name="Aringacute" horiz-adv-x="646" unicode="Ǻ"/><glyph d="M484 448q46 -46 46 -144v-268q0 -17 -9.5 -26.5t-26.5 -9.5t-26.5 9.5t-9.5 26.5v32q-53 -68 -162 -68h-56q-82 0 -121 39t-39 121t39 121t121 39h218q-3 58 -29 80t-89 22h-58q-56 0 -82 -9.5t-35 -32.5q-7 -18 -15 -25t-24 -7t-26 8t-10 21q0 5 1 8q12 56 58.5 82.5 t132.5 26.5h58q98 0 144 -46zM458 165v83h-218q-52 0 -70 -18t-18 -70t18 -70t70 -18h56q137 0 158 81q2 8 4 12zM246.5 568.5q-20.5 20.5 -20.5 56.5t20.5 56.5t56.5 20.5t56.5 -20.5t20.5 -56.5t-20.5 -56.5t-56.5 -20.5t-56.5 20.5zM323.5 605q3.5 4 3.5 20q0 17 -4 20.5 t-20 3.5q-17 0 -20.5 -4t-3.5 -20q0 -17 4 -20.5t20 -3.5q17 0 20.5 4zM267 781q0 12 9 22l78 93q10 13 23 13q11 0 22 -9q13 -10 13 -23q0 -11 -9 -22l-78 -93q-10 -13 -23 -13q-12 0 -22 9q-13 10 -13 23z" glyph-name="aringacute" horiz-adv-x="620" unicode="ǻ"/><glyph d="M421 36v128h-233l-82 -144q-11 -20 -29 -20q-9 0 -20 6q-20 12 -20 29q0 10 6 20l332 585q15 25 43 25h344q17 0 26.5 -9.5t9.5 -26.5t-9.5 -26.5t-26.5 -9.5h-269v-221h151q17 0 26.5 -9.5t9.5 -26.5t-9.5 -26.5t-26.5 -9.5h-151v-228h269q17 0 26.5 -9.5t9.5 -26.5 t-9.5 -26.5t-26.5 -9.5h-305q-36 0 -36 36zM229 236h192v339h-4zM492 750q0 12 9 22l78 93q10 13 23 13q11 0 22 -9q13 -10 13 -23q0 -11 -9 -22l-78 -93q-10 -13 -23 -13q-12 0 -22 9q-13 10 -13 23z" glyph-name="AEacute" horiz-adv-x="848" unicode="Ǽ"/><glyph d="M467 71q-59 -85 -191 -85h-36q-82 0 -121 39t-39 121t39 121t121 39h198q-4 56 -29.5 77.5t-88.5 21.5h-38q-48 0 -74.5 -7t-37 -23t-10.5 -44q0 -15 -10.5 -25.5t-25.5 -10.5t-25.5 10.5t-10.5 25.5q0 75 47.5 110.5t146.5 35.5h38q108 0 154 -78q44 78 150 77h60 q95 0 140.5 -50.5t45.5 -155.5q0 -17 -9.5 -26.5t-27.5 -9.5h-323v-58q0 -47 10.5 -72.5t35 -36.5t67.5 -11h61q45 0 69.5 7.5t34.5 24.5t10 47q0 15 10.5 25.5t25.5 10.5t25.5 -10.5t10.5 -25.5q0 -78 -45.5 -114.5t-140.5 -36.5h-61q-112 0 -156 87zM796 306 q-5 54 -30.5 76t-81.5 22h-60q-60 1 -85 -20.5t-28 -77.5h285zM276 58q84 0 123 28t39 86v62h-198q-52 0 -70 -18t-18 -70t18 -70t70 -18h36zM437 579q0 12 9 22l78 93q10 13 23 13q11 0 22 -9q13 -10 13 -23q0 -11 -9 -22l-78 -93q-10 -13 -23 -13q-12 0 -22 9 q-13 10 -13 23z" glyph-name="aeacute" horiz-adv-x="950" unicode="ǽ"/><glyph d="M636 447v-229q0 -112 -52.5 -165t-165.5 -53h-120q-62 0 -105 15l-20 -33q-10 -18 -27 -18q-10 0 -20 7q-18 12 -18 27q0 10 6 20l20 33q-54 53 -54 167v230q0 113 53 165.5t165 51.5h120q51 0 85 -10l21 34q11 18 27 18q10 0 20 -7q18 -10 18 -27q0 -10 -7 -20l-16 -26 q70 -51 70 -180zM174 116l290 474q-21 3 -46 3h-120q-56 1 -87.5 -12.5t-45 -45t-13.5 -87.5v-230q0 -70 22 -102zM564 447q0 45 -8.5 73.5t-27.5 44.5l-296 -486q25 -7 66 -7h120q56 0 87.5 13.5t45 45t13.5 87.5v229zM321 750q0 12 9 22l78 93q10 13 23 13q11 0 22 -9 q13 -10 13 -23q0 -11 -9 -22l-78 -93q-10 -13 -23 -13q-12 0 -22 9q-13 10 -13 23z" glyph-name="Oslashacute" horiz-adv-x="716" unicode="Ǿ"/><glyph d="M542 304v-114q0 -97 -46 -143.5t-144 -46.5h-82q-38 0 -72 8l-36 -59q-11 -17 -25 -17q-8 0 -19 6q-17 11 -17 25q0 8 6 19l33 52q-60 45 -60 155v115q0 98 46 144t144 46h82q37 0 71 -8l23 38q10 16 25 16q9 0 19 -6q16 -10 16 -24q0 -9 -6 -20l-18 -30q60 -45 60 -156z M152 189q0 -36 7 -59.5t22 -35.5l204 326q-10 2 -33 2h-82q-46 0 -71 -10.5t-36 -36t-11 -71.5v-115zM470 304q0 37 -7 60t-22 36l-204 -326q10 -2 33 -2h82q46 0 71 11t36 36t11 71v114zM274 579q0 12 9 22l78 93q10 13 23 13q11 0 22 -9q13 -10 13 -23q0 -11 -9 -22 l-78 -93q-10 -13 -23 -13q-12 0 -22 9q-13 10 -13 23z" glyph-name="oslashacute" unicode="ǿ"/><glyph d="M188 831q-8 8 -8 20t11 20q9 8 20 8q13 0 21 -11l70 -84q8 -8 8 -20t-11 -20q-9 -8 -20 -8q-13 0 -21 11zM302 831q-8 8 -8 20t11 20q9 8 20 8q13 0 21 -11l70 -84q8 -8 8 -20t-11 -20q-9 -8 -20 -8q-13 0 -21 11zM611 34q0 -21 -23 -30q-9 -4 -18 -4q-20 0 -29 23 l-59 141h-317l-57 -141q-9 -23 -30 -23q-9 0 -17 4q-24 9 -24 30q0 9 4 17l241 586q12 28 41 28h2q27 0 39 -28l243 -586q4 -8 4 -17zM194 236h258l-131 315z" glyph-name="uni0200" horiz-adv-x="646" unicode="Ȁ"/><glyph d="M167 660q-8 8 -8 20t11 20q9 8 20 8q13 0 21 -11l70 -84q8 -8 8 -20t-11 -20q-9 -8 -20 -8q-13 0 -21 11zM281 660q-8 8 -8 20t11 20q9 8 20 8q13 0 21 -11l70 -84q8 -8 8 -20t-11 -20q-9 -8 -20 -8q-13 0 -21 11zM484 448q46 -46 46 -144v-268q0 -17 -9.5 -26.5 t-26.5 -9.5t-26.5 9.5t-9.5 26.5v32q-53 -68 -162 -68h-56q-82 0 -121 39t-39 121t39 121t121 39h218q-3 58 -29 80t-89 22h-58q-56 0 -82 -9.5t-35 -32.5q-7 -18 -15 -25t-24 -7t-26 8t-10 21q0 5 1 8q12 56 58.5 82.5t132.5 26.5h58q98 0 144 -46zM458 165v83h-218 q-52 0 -70 -18t-18 -70t18 -70t70 -18h56q137 0 158 81q2 8 4 12z" glyph-name="uni0201" horiz-adv-x="620" unicode="ȁ"/><glyph d="M611 34q0 -21 -23 -30q-9 -4 -18 -4q-20 0 -29 23l-59 141h-317l-57 -141q-9 -23 -30 -23q-9 0 -17 4q-24 9 -24 30q0 9 4 17l241 586q12 28 41 28h2q27 0 39 -28l243 -586q4 -8 4 -17zM194 236h258l-131 315zM422.5 871.5q34.5 -26.5 34.5 -76.5v-16q0 -32 -32 -32 t-32 24v24q0 23 -15 33t-54 10t-54 -10t-15 -33v-16q0 -32 -32 -32t-32 32v16q0 50 34.5 76.5t98.5 26.5t98.5 -26.5z" glyph-name="uni0202" horiz-adv-x="646" unicode="Ȃ"/><glyph d="M484 448q46 -46 46 -144v-268q0 -17 -9.5 -26.5t-26.5 -9.5t-26.5 9.5t-9.5 26.5v32q-53 -68 -162 -68h-56q-82 0 -121 39t-39 121t39 121t121 39h218q-3 58 -29 80t-89 22h-58q-56 0 -82 -9.5t-35 -32.5q-7 -18 -15 -25t-24 -7t-26 8t-10 21q0 5 1 8q12 56 58.5 82.5 t132.5 26.5h58q98 0 144 -46zM458 165v83h-218q-52 0 -70 -18t-18 -70t18 -70t70 -18h56q137 0 158 81q2 8 4 12zM401.5 700.5q34.5 -26.5 34.5 -76.5v-16q0 -32 -32 -32t-32 24v24q0 23 -15 33t-54 10t-54 -10t-15 -33v-16q0 -32 -32 -32t-32 32v16q0 50 34.5 76.5 t98.5 26.5t98.5 -26.5z" glyph-name="uni0203" horiz-adv-x="620" unicode="ȃ"/><glyph d="M198 831q-8 8 -8 20t11 20q9 8 20 8q13 0 21 -11l70 -84q8 -8 8 -20t-11 -20q-9 -8 -20 -8q-13 0 -21 11zM312 831q-8 8 -8 20t11 20q9 8 20 8q13 0 21 -11l70 -84q8 -8 8 -20t-11 -20q-9 -8 -20 -8q-13 0 -21 11zM527.5 62.5q9.5 -9.5 9.5 -26.5t-9.5 -26.5t-26.5 -9.5 h-365q-17 0 -26.5 9.5t-9.5 26.5v593q0 17 9.5 26.5t26.5 9.5h365q17 0 26.5 -9.5t9.5 -26.5t-9.5 -26.5t-26.5 -9.5h-329v-221h211q17 0 26.5 -9.5t9.5 -26.5t-9.5 -26.5t-26.5 -9.5h-211v-228h329q17 0 26.5 -9.5z" glyph-name="uni0204" horiz-adv-x="587" unicode="Ȅ"/><glyph d="M178 660q-8 8 -8 20t11 20q9 8 20 8q13 0 21 -11l70 -84q8 -8 8 -20t-11 -20q-9 -8 -20 -8q-13 0 -21 11zM292 660q-8 8 -8 20t11 20q9 8 20 8q13 0 21 -11l70 -84q8 -8 8 -20t-11 -20q-9 -8 -20 -8q-13 0 -21 11zM152 218v-29q0 -45 11 -70t36 -36t71 -11h82q56 0 82 12 t33 42q4 17 12.5 25.5t25.5 8.5q18 0 27.5 -9.5t6.5 -27.5q-10 -63 -56 -93t-131 -30h-82q-97 0 -143.5 46t-46.5 143v115q0 98 46.5 144.5t143.5 45.5h82q98 0 144 -46t46 -144v-50q0 -17 -9.5 -26.5t-26.5 -9.5h-354zM152 290h318v14q0 46 -11 71t-36 36t-71 11h-82 q-46 1 -71 -10t-36 -36.5t-11 -71.5v-14z" glyph-name="uni0205" unicode="ȅ"/><glyph d="M527.5 62.5q9.5 -9.5 9.5 -26.5t-9.5 -26.5t-26.5 -9.5h-365q-17 0 -26.5 9.5t-9.5 26.5v593q0 17 9.5 26.5t26.5 9.5h365q17 0 26.5 -9.5t9.5 -26.5t-9.5 -26.5t-26.5 -9.5h-329v-221h211q17 0 26.5 -9.5t9.5 -26.5t-9.5 -26.5t-26.5 -9.5h-211v-228h329q17 0 26.5 -9.5 zM432.5 871.5q34.5 -26.5 34.5 -76.5v-16q0 -32 -32 -32t-32 24v24q0 23 -15 33t-54 10t-54 -10t-15 -33v-16q0 -32 -32 -32t-32 32v16q0 50 34.5 76.5t98.5 26.5t98.5 -26.5z" glyph-name="uni0206" horiz-adv-x="587" unicode="Ȇ"/><glyph d="M152 218v-29q0 -45 11 -70t36 -36t71 -11h82q56 0 82 12t33 42q4 17 12.5 25.5t25.5 8.5q18 0 27.5 -9.5t6.5 -27.5q-10 -63 -56 -93t-131 -30h-82q-97 0 -143.5 46t-46.5 143v115q0 98 46.5 144.5t143.5 45.5h82q98 0 144 -46t46 -144v-50q0 -17 -9.5 -26.5t-26.5 -9.5 h-354zM152 290h318v14q0 46 -11 71t-36 36t-71 11h-82q-46 1 -71 -10t-36 -36.5t-11 -71.5v-14zM412.5 700.5q34.5 -26.5 34.5 -76.5v-16q0 -32 -32 -32t-32 24v24q0 23 -15 33t-54 10t-54 -10t-15 -33v-16q0 -32 -32 -32t-32 32v16q0 50 34.5 76.5t98.5 26.5t98.5 -26.5z" glyph-name="uni0207" unicode="ȇ"/><glyph d="M91 736q-13 0 -21 11l-70 84q-8 8 -8 20t11 20q9 8 20 8q13 0 21 -11l70 -84q8 -8 8 -20t-11 -20q-9 -8 -20 -8zM205 736q-13 0 -21 11l-70 84q-8 8 -8 20t11 20q9 8 20 8q13 0 21 -11l70 -84q8 -8 8 -20t-11 -20q-9 -8 -20 -8zM100 36v593q0 36 36 36t36 -36v-593 q0 -36 -36 -36t-36 36z" glyph-name="uni0208" horiz-adv-x="272" unicode="Ȉ"/><glyph d="M90 565q-13 0 -21 11l-70 84q-8 8 -8 20t11 20q9 8 20 8q13 0 21 -11l70 -84q8 -8 8 -20t-11 -20q-9 -8 -20 -8zM204 565q-13 0 -21 11l-70 84q-8 8 -8 20t11 20q9 8 20 8q13 0 21 -11l70 -84q8 -8 8 -20t-11 -20q-9 -8 -20 -8zM109.5 9.5q-9.5 9.5 -9.5 26.5v422 q0 17 9.5 26.5t26.5 9.5t26.5 -9.5t9.5 -26.5v-422q0 -17 -9.5 -26.5t-26.5 -9.5t-26.5 9.5z" glyph-name="uni0209" horiz-adv-x="272" unicode="ȉ"/><glyph d="M100 36v593q0 36 36 36t36 -36v-593q0 -36 -36 -36t-36 36zM234.5 871.5q34.5 -26.5 34.5 -76.5v-16q0 -32 -32 -32t-32 24v24q0 23 -15 33t-54 10t-54 -10t-15 -33v-16q0 -32 -32 -32t-32 32v16q0 50 34.5 76.5t98.5 26.5t98.5 -26.5z" glyph-name="uni020A" horiz-adv-x="272" unicode="Ȋ"/><glyph d="M109.5 9.5q-9.5 9.5 -9.5 26.5v422q0 17 9.5 26.5t26.5 9.5t26.5 -9.5t9.5 -26.5v-422q0 -17 -9.5 -26.5t-26.5 -9.5t-26.5 9.5zM218.5 669.5q29.5 -29.5 29.5 -83.5q0 -28 -32 -28t-32 28q0 27 -10.5 38t-38.5 11q-27 0 -38 -10.5t-11 -38.5t-32 -28t-32 28 q0 54 29.5 83.5t83.5 29.5t83.5 -29.5z" glyph-name="uni020B" horiz-adv-x="272" unicode="ȋ"/><glyph d="M313 736q-13 0 -21 11l-70 84q-8 8 -8 20t11 20q9 8 20 8q13 0 21 -11l70 -84q8 -8 8 -20t-11 -20q-9 -8 -20 -8zM427 736q-13 0 -21 11l-70 84q-8 8 -8 20t11 20q9 8 20 8q13 0 21 -11l70 -84q8 -8 8 -20t-11 -20q-9 -8 -20 -8zM133 53q-53 53 -53 165v230 q0 113 53 165.5t165 51.5h120q113 0 165.5 -52.5t52.5 -165.5v-229q0 -112 -52.5 -165t-165.5 -53h-120q-112 0 -165 53zM418 72q56 0 87.5 13.5t45 45t13.5 87.5v229q0 56 -13.5 87.5t-45 45t-87.5 13.5h-120q-56 1 -87.5 -12.5t-45 -45t-13.5 -87.5v-230q0 -56 13.5 -87.5 t45 -45t87.5 -13.5h120z" glyph-name="uni020C" horiz-adv-x="716" unicode="Ȍ"/><glyph d="M266 565q-13 0 -21 11l-70 84q-8 8 -8 20t11 20q9 8 20 8q13 0 21 -11l70 -84q8 -8 8 -20t-11 -20q-9 -8 -20 -8zM380 565q-13 0 -21 11l-70 84q-8 8 -8 20t11 20q9 8 20 8q13 0 21 -11l70 -84q8 -8 8 -20t-11 -20q-9 -8 -20 -8zM126.5 46q-46.5 46 -46.5 143v115 q0 98 46 144t144 46h82q98 0 144 -46t46 -144v-114q0 -97 -46 -143.5t-144 -46.5h-82q-97 0 -143.5 46zM352 72q46 0 71 11t36 36t11 71v114q0 46 -11 71t-36 36t-71 11h-82q-46 0 -71 -10.5t-36 -36t-11 -71.5v-115q0 -45 11 -70t36 -36t71 -11h82z" glyph-name="uni020D" unicode="ȍ"/><glyph d="M133 53q-53 53 -53 165v230q0 113 53 165.5t165 51.5h120q113 0 165.5 -52.5t52.5 -165.5v-229q0 -112 -52.5 -165t-165.5 -53h-120q-112 0 -165 53zM418 72q56 0 87.5 13.5t45 45t13.5 87.5v229q0 56 -13.5 87.5t-45 45t-87.5 13.5h-120q-56 1 -87.5 -12.5t-45 -45 t-13.5 -87.5v-230q0 -56 13.5 -87.5t45 -45t87.5 -13.5h120zM456.5 871.5q34.5 -26.5 34.5 -76.5v-16q0 -32 -32 -32t-32 24v24q0 23 -15 33t-54 10t-54 -10t-15 -33v-16q0 -32 -32 -32t-32 32v16q0 50 34.5 76.5t98.5 26.5t98.5 -26.5z" glyph-name="uni020E" horiz-adv-x="716" unicode="Ȏ"/><glyph d="M126.5 46q-46.5 46 -46.5 143v115q0 98 46 144t144 46h82q98 0 144 -46t46 -144v-114q0 -97 -46 -143.5t-144 -46.5h-82q-97 0 -143.5 46zM352 72q46 0 71 11t36 36t11 71v114q0 46 -11 71t-36 36t-71 11h-82q-46 0 -71 -10.5t-36 -36t-11 -71.5v-115q0 -45 11 -70 t36 -36t71 -11h82zM409.5 700.5q34.5 -26.5 34.5 -76.5v-16q0 -32 -32 -32t-32 24v24q0 23 -15 33t-54 10t-54 -10t-15 -33v-16q0 -32 -32 -32t-32 32v16q0 50 34.5 76.5t98.5 26.5t98.5 -26.5z" glyph-name="uni020F" unicode="ȏ"/><glyph d="M171 831q-8 8 -8 20t11 20q9 8 20 8q13 0 21 -11l70 -84q8 -8 8 -20t-11 -20q-9 -8 -20 -8q-13 0 -21 11zM285 831q-8 8 -8 20t11 20q9 8 20 8q13 0 21 -11l70 -84q8 -8 8 -20t-11 -20q-9 -8 -20 -8q-13 0 -21 11zM555 28q0 -17 -19 -30q-10 -6 -20 -6q-17 0 -29 18 l-157 257l-1 2h-157v-233q0 -17 -9.5 -26.5t-26.5 -9.5t-26.5 9.5t-9.5 26.5v593q0 17 9.5 26.5t26.5 9.5h234q89 0 136 -47t47 -136v-30q0 -78 -36 -123.5t-105 -56.5l137 -225q6 -10 6 -19zM172 341h198q59 0 85 26t26 85v30q0 59 -26 85t-85 26h-198v-252z" glyph-name="uni0210" horiz-adv-x="613" unicode="Ȑ"/><glyph d="M105 660q-8 8 -8 20t11 20q9 8 20 8q13 0 21 -11l70 -84q8 -8 8 -20t-11 -20q-9 -8 -20 -8q-13 0 -21 11zM219 660q-8 8 -8 20t11 20q9 8 20 8q13 0 21 -11l70 -84q8 -8 8 -20t-11 -20q-9 -8 -20 -8q-13 0 -21 11zM383.5 484.5q9.5 -9.5 9.5 -26.5t-9.5 -26.5t-26.5 -9.5 q-90 0 -137.5 -37t-47.5 -102v-247q0 -17 -9.5 -26.5t-26.5 -9.5t-26.5 9.5t-9.5 26.5v422q0 17 9.5 26.5t26.5 9.5t26.5 -9.5t9.5 -26.5v-53q29 44 76 66.5t109 22.5q17 0 26.5 -9.5z" glyph-name="uni0211" horiz-adv-x="408" unicode="ȑ"/><glyph d="M555 28q0 -17 -19 -30q-10 -6 -20 -6q-17 0 -29 18l-157 257l-1 2h-157v-233q0 -17 -9.5 -26.5t-26.5 -9.5t-26.5 9.5t-9.5 26.5v593q0 17 9.5 26.5t26.5 9.5h234q89 0 136 -47t47 -136v-30q0 -78 -36 -123.5t-105 -56.5l137 -225q6 -10 6 -19zM172 341h198q59 0 85 26 t26 85v30q0 59 -26 85t-85 26h-198v-252zM405.5 871.5q34.5 -26.5 34.5 -76.5v-16q0 -32 -32 -32t-32 24v24q0 23 -15 33t-54 10t-54 -10t-15 -33v-16q0 -32 -32 -32t-32 32v16q0 50 34.5 76.5t98.5 26.5t98.5 -26.5z" glyph-name="uni0212" horiz-adv-x="613" unicode="Ȓ"/><glyph d="M383.5 484.5q9.5 -9.5 9.5 -26.5t-9.5 -26.5t-26.5 -9.5q-90 0 -137.5 -37t-47.5 -102v-247q0 -17 -9.5 -26.5t-26.5 -9.5t-26.5 9.5t-9.5 26.5v422q0 17 9.5 26.5t26.5 9.5t26.5 -9.5t9.5 -26.5v-53q29 44 76 66.5t109 22.5q17 0 26.5 -9.5zM339.5 700.5 q34.5 -26.5 34.5 -76.5v-16q0 -32 -32 -32t-32 24v24q0 23 -15 33t-54 10t-54 -10t-15 -33v-16q0 -32 -32 -32t-32 32v16q0 50 34.5 76.5t98.5 26.5t98.5 -26.5z" glyph-name="uni0213" horiz-adv-x="408" unicode="ȓ"/><glyph d="M323 736q-13 0 -21 11l-70 84q-8 8 -8 20t11 20q9 8 20 8q13 0 21 -11l70 -84q8 -8 8 -20t-11 -20q-9 -8 -20 -8zM437 736q-13 0 -21 11l-70 84q-8 8 -8 20t11 20q9 8 20 8q13 0 21 -11l70 -84q8 -8 8 -20t-11 -20q-9 -8 -20 -8zM143 53q-53 53 -53 165v411 q0 17 9.5 26.5t26.5 9.5t26.5 -9.5t9.5 -26.5v-411q0 -56 13.5 -87.5t45 -45t87.5 -13.5h120q56 0 87.5 13.5t45 45t13.5 87.5v411q0 17 9.5 26.5t26.5 9.5t26.5 -9.5t9.5 -26.5v-411q0 -112 -52.5 -165t-165.5 -53h-120q-112 0 -165 53z" glyph-name="uni0214" horiz-adv-x="736" unicode="Ȕ"/><glyph d="M180 660q-8 8 -8 20t11 20q9 8 20 8q13 0 21 -11l70 -84q8 -8 8 -20t-11 -20q-9 -8 -20 -8q-13 0 -21 11zM294 660q-8 8 -8 20t11 20q9 8 20 8q13 0 21 -11l70 -84q8 -8 8 -20t-11 -20q-9 -8 -20 -8q-13 0 -21 11zM532.5 484.5q9.5 -9.5 9.5 -26.5v-422q0 -17 -9.5 -26.5 t-26.5 -9.5t-26.5 9.5t-9.5 26.5v28q-52 -64 -162 -64h-28q-97 0 -143.5 46.5t-46.5 143.5v268q0 17 9.5 26.5t26.5 9.5t26.5 -9.5t9.5 -26.5v-268q0 -46 11 -71t36 -36t71 -11h28q74 0 118 20.5t44 60.5v305q0 17 9.5 26.5t26.5 9.5t26.5 -9.5z" glyph-name="uni0215" horiz-adv-x="642" unicode="ȕ"/><glyph d="M143 53q-53 53 -53 165v411q0 17 9.5 26.5t26.5 9.5t26.5 -9.5t9.5 -26.5v-411q0 -56 13.5 -87.5t45 -45t87.5 -13.5h120q56 0 87.5 13.5t45 45t13.5 87.5v411q0 17 9.5 26.5t26.5 9.5t26.5 -9.5t9.5 -26.5v-411q0 -112 -52.5 -165t-165.5 -53h-120q-112 0 -165 53z M466.5 871.5q34.5 -26.5 34.5 -76.5v-16q0 -32 -32 -32t-32 24v24q0 23 -15 33t-54 10t-54 -10t-15 -33v-16q0 -32 -32 -32t-32 32v16q0 50 34.5 76.5t98.5 26.5t98.5 -26.5z" glyph-name="uni0216" horiz-adv-x="736" unicode="Ȗ"/><glyph d="M532.5 484.5q9.5 -9.5 9.5 -26.5v-422q0 -17 -9.5 -26.5t-26.5 -9.5t-26.5 9.5t-9.5 26.5v28q-52 -64 -162 -64h-28q-97 0 -143.5 46.5t-46.5 143.5v268q0 17 9.5 26.5t26.5 9.5t26.5 -9.5t9.5 -26.5v-268q0 -46 11 -71t36 -36t71 -11h28q74 0 118 20.5t44 60.5v305 q0 17 9.5 26.5t26.5 9.5t26.5 -9.5zM414.5 700.5q34.5 -26.5 34.5 -76.5v-16q0 -32 -32 -32t-32 24v24q0 23 -15 33t-54 10t-54 -10t-15 -33v-16q0 -32 -32 -32t-32 32v16q0 50 34.5 76.5t98.5 26.5t98.5 -26.5z" glyph-name="uni0217" horiz-adv-x="642" unicode="ȗ"/><glyph d="M134 37q-46 37 -54 114q-1 18 8 27.5t27 9.5q33 0 37 -36q6 -45 32 -62.5t83 -17.5h144q46 0 71 10.5t35.5 35.5t10.5 70q0 46 -11 71t-36 36t-70 11h-129q-91 0 -135.5 44.5t-44.5 135.5q0 92 44 135.5t135 43.5h127q82 0 125.5 -34.5t51.5 -106.5q2 -18 -7.5 -27.5 t-27.5 -9.5q-17 0 -25.5 8.5t-11.5 26.5q-5 39 -29 55t-76 16h-127q-61 0 -84 -22.5t-23 -84.5q0 -61 23.5 -84.5t84.5 -23.5h129q97 0 143 -46.5t46 -143.5t-46 -142.5t-143 -45.5h-144q-87 0 -133 37zM404 -96q0 -11 -5 -18l-42 -89q-9 -16 -23 -16q-12 0 -19.5 6.5 t-5.5 18.5l21 118q2 26 29 26h17q28 0 28 -28v-18z" glyph-name="Scommaaccent" horiz-adv-x="680" unicode="Ș"/><glyph d="M115 26.5q-35 26.5 -44 79.5q-3 18 7 28t28 10q17 0 25 -8.5t13 -26.5q5 -21 20.5 -29t48.5 -8h164q42 0 57 14.5t15 57.5t-15 57.5t-57 14.5h-161q-139 0 -139 139q0 71 34.5 105t104.5 34h156q116 0 134 -99q3 -18 -7 -28t-28 -10q-16 0 -24.5 8t-13.5 26t-19 24.5 t-42 6.5h-156q-40 0 -53.5 -13t-13.5 -54q0 -39 13.5 -53t53.5 -14h161q73 0 108.5 -35.5t35.5 -108.5t-35.5 -108.5t-108.5 -35.5h-164q-63 0 -98 26.5zM361 -96q0 -11 -5 -18l-42 -89q-9 -16 -23 -16q-12 0 -19.5 6.5t-5.5 18.5l21 118q2 26 29 26h17q28 0 28 -28v-18z" glyph-name="scommaaccent" horiz-adv-x="591" unicode="ș"/><glyph d="M271.5 9.5q-9.5 9.5 -9.5 26.5v557h-201q-17 0 -26.5 9.5t-9.5 26.5t9.5 26.5t26.5 9.5h474q17 0 26.5 -9.5t9.5 -26.5t-9.5 -26.5t-26.5 -9.5h-201v-557q0 -17 -9.5 -26.5t-26.5 -9.5t-26.5 9.5zM324 -96q0 -11 -5 -18l-42 -89q-9 -16 -23 -16q-12 0 -19.5 6.5 t-5.5 18.5l21 118q2 26 29 26h17q28 0 28 -28v-18z" glyph-name="uni021A" horiz-adv-x="596" unicode="Ț"/><glyph d="M342 36q0 -17 -9.5 -26.5t-26.5 -9.5q-96 0 -141.5 45t-45.5 141v236h-53q-17 0 -26.5 9.5t-9.5 26.5t9.5 26.5t26.5 9.5h53v86q0 36 36 36t36 -36v-86h119q17 0 26.5 -9.5t9.5 -26.5t-9.5 -26.5t-26.5 -9.5h-119v-236q0 -45 10.5 -69.5t35 -34.5t69.5 -10q36 0 36 -36z M248 -96q0 -11 -5 -18l-42 -89q-9 -16 -23 -16q-12 0 -19.5 6.5t-5.5 18.5l21 118q2 26 29 26h17q28 0 28 -28v-18z" glyph-name="uni021B" horiz-adv-x="396" unicode="ț"/><glyph d="M133 53q-53 53 -53 165v230q0 113 53 165.5t165 51.5h120q113 0 165.5 -52.5t52.5 -165.5v-229q0 -112 -52.5 -165t-165.5 -53h-120q-112 0 -165 53zM418 72q56 0 87.5 13.5t45 45t13.5 87.5v229q0 56 -13.5 87.5t-45 45t-87.5 13.5h-120q-56 1 -87.5 -12.5t-45 -45 t-13.5 -87.5v-230q0 -56 13.5 -87.5t45 -45t87.5 -13.5h120zM241.5 752.5q-9.5 9.5 -9.5 26.5v23q0 35 36 35h22q34 0 34 -35v-23q0 -17 -9 -26.5t-25 -9.5h-22q-17 0 -26.5 9.5zM401.5 752.5q-9.5 9.5 -9.5 26.5v23q0 35 36 35h22q34 0 34 -35v-23q0 -17 -9 -26.5t-25 -9.5 h-22q-17 0 -26.5 9.5zM192 910q0 36 36 36h253q36 0 36 -36t-36 -36h-253q-36 0 -36 36z" glyph-name="uni022A" horiz-adv-x="716" unicode="Ȫ"/><glyph d="M126.5 46q-46.5 46 -46.5 143v115q0 98 46 144t144 46h82q98 0 144 -46t46 -144v-114q0 -97 -46 -143.5t-144 -46.5h-82q-97 0 -143.5 46zM352 72q46 0 71 11t36 36t11 71v114q0 46 -11 71t-36 36t-71 11h-82q-46 0 -71 -10.5t-36 -36t-11 -71.5v-115q0 -45 11 -70 t36 -36t71 -11h82zM194.5 581.5q-9.5 9.5 -9.5 26.5v23q0 35 36 35h22q34 0 34 -35v-23q0 -17 -9 -26.5t-25 -9.5h-22q-17 0 -26.5 9.5zM354.5 581.5q-9.5 9.5 -9.5 26.5v23q0 35 36 35h22q34 0 34 -35v-23q0 -17 -9 -26.5t-25 -9.5h-22q-17 0 -26.5 9.5zM145 739 q0 36 36 36h253q36 0 36 -36t-36 -36h-253q-36 0 -36 36z" glyph-name="uni022B" unicode="ȫ"/><glyph d="M133 53q-53 53 -53 165v230q0 113 53 165.5t165 51.5h120q113 0 165.5 -52.5t52.5 -165.5v-229q0 -112 -52.5 -165t-165.5 -53h-120q-112 0 -165 53zM418 72q56 0 87.5 13.5t45 45t13.5 87.5v229q0 56 -13.5 87.5t-45 45t-87.5 13.5h-120q-56 1 -87.5 -12.5t-45 -45 t-13.5 -87.5v-230q0 -56 13.5 -87.5t45 -45t87.5 -13.5h120zM382.5 740.5q-17.5 10.5 -35.5 28.5q-13 14 -21 18.5t-19 4.5q-14 0 -23.5 -7.5t-17.5 -27.5q-8 -23 -26 -23q-4 0 -12 2q-22 6 -22 24q0 7 3 14q16 41 39.5 59.5t58.5 18.5q28 0 46 -11t37 -30q13 -13 20 -17 t17 -4q12 0 19.5 7t14.5 24q9 24 27 24q7 0 10 -1q23 -5 23 -25q0 -8 -2 -12q-14 -39 -36 -58t-56 -19q-27 0 -44.5 10.5zM192 963q0 36 36 36h253q36 0 36 -36t-36 -36h-253q-36 0 -36 36z" glyph-name="uni022C" horiz-adv-x="716" unicode="Ȭ"/><glyph d="M126.5 46q-46.5 46 -46.5 143v115q0 98 46 144t144 46h82q98 0 144 -46t46 -144v-114q0 -97 -46 -143.5t-144 -46.5h-82q-97 0 -143.5 46zM352 72q46 0 71 11t36 36t11 71v114q0 46 -11 71t-36 36t-71 11h-82q-46 0 -71 -10.5t-36 -36t-11 -71.5v-115q0 -45 11 -70 t36 -36t71 -11h82zM335.5 569.5q-17.5 10.5 -35.5 28.5q-13 14 -21 18.5t-19 4.5q-14 0 -23.5 -7.5t-17.5 -27.5q-8 -23 -26 -23q-4 0 -12 2q-22 6 -22 24q0 7 3 14q16 41 39.5 59.5t58.5 18.5q28 0 46 -11t37 -30q13 -13 20 -17t17 -4q12 0 19.5 7t14.5 24q9 24 27 24 q7 0 10 -1q23 -5 23 -25q0 -8 -2 -12q-14 -39 -36 -58t-56 -19q-27 0 -44.5 10.5zM145 792q0 36 36 36h253q36 0 36 -36t-36 -36h-253q-36 0 -36 36z" glyph-name="uni022D" unicode="ȭ"/><glyph d="M133 53q-53 53 -53 165v230q0 113 53 165.5t165 51.5h120q113 0 165.5 -52.5t52.5 -165.5v-229q0 -112 -52.5 -165t-165.5 -53h-120q-112 0 -165 53zM418 72q56 0 87.5 13.5t45 45t13.5 87.5v229q0 56 -13.5 87.5t-45 45t-87.5 13.5h-120q-56 1 -87.5 -12.5t-45 -45 t-13.5 -87.5v-230q0 -56 13.5 -87.5t45 -45t87.5 -13.5h120zM314 761.5q-11 11.5 -11 31.5v28q0 41 43 41h26q20 0 30.5 -10.5t10.5 -30.5v-28q0 -20 -11 -31.5t-30 -11.5h-26q-21 0 -32 11.5zM192 940q0 36 36 36h253q36 0 36 -36t-36 -36h-253q-36 0 -36 36z" glyph-name="uni0230" horiz-adv-x="716" unicode="Ȱ"/><glyph d="M126.5 46q-46.5 46 -46.5 143v115q0 98 46 144t144 46h82q98 0 144 -46t46 -144v-114q0 -97 -46 -143.5t-144 -46.5h-82q-97 0 -143.5 46zM352 72q46 0 71 11t36 36t11 71v114q0 46 -11 71t-36 36t-71 11h-82q-46 0 -71 -10.5t-36 -36t-11 -71.5v-115q0 -45 11 -70 t36 -36t71 -11h82zM267 590.5q-11 11.5 -11 31.5v28q0 41 43 41h26q20 0 30.5 -10.5t10.5 -30.5v-28q0 -20 -11 -31.5t-30 -11.5h-26q-21 0 -32 11.5zM145 769q0 36 36 36h253q36 0 36 -36t-36 -36h-253q-36 0 -36 36z" glyph-name="uni0231" unicode="ȱ"/><glyph d="M567 629q0 -10 -8 -21l-233 -361v-211q0 -17 -9.5 -26.5t-26.5 -9.5t-26.5 9.5t-9.5 26.5v211l-227 361q-7 11 -7 21q0 17 18 29q11 7 22 7q18 0 28 -18l202 -323l209 323q10 18 27 18q11 0 22 -8q19 -11 19 -28zM127 796q0 36 36 36h253q36 0 36 -36t-36 -36h-253 q-36 0 -36 36z" glyph-name="uni0232" horiz-adv-x="587" unicode="Ȳ"/><glyph d="M124 -165.5q-34 34.5 -34 104.5q0 36 36 36t36 -36q0 -40 13 -53.5t53 -13.5h186q40 0 53 13.5t13 53.5v131q-28 -40 -67 -55t-95 -15h-41q-96 0 -141.5 45t-45.5 141v272q0 36 36 36t36 -36v-272q0 -45 10.5 -69.5t35 -34.5t69.5 -10h41q84 0 123 28t39 86v272 q0 36 36 36t36 -36v-519q0 -70 -34 -104.5t-104 -34.5h-186q-70 0 -104 34.5zM155 625q0 36 36 36h253q36 0 36 -36t-36 -36h-253q-36 0 -36 36z" glyph-name="uni0233" horiz-adv-x="652" unicode="ȳ"/><glyph d="M-0.5 -137.5q9.5 9.5 26.5 9.5q44 0 59 15t15 59v512q0 17 9.5 26.5t26.5 9.5t26.5 -9.5t9.5 -26.5v-512q0 -74 -36 -110t-110 -36q-36 0 -36 36q0 17 9.5 26.5z" glyph-name="uni0237" horiz-adv-x="272" unicode="ȷ"/><glyph d="M495.5 448q46.5 -46 46.5 -143v-115q0 -98 -46 -144.5t-144 -45.5h-82q-97 0 -143.5 46.5t-46.5 143.5v50q0 17 9.5 26.5t26.5 9.5h354v29q0 45 -11 70t-36 36t-71 11h-82q-56 0 -82 -12t-33 -42q-4 -17 -12.5 -25.5t-25.5 -8.5q-18 0 -27.5 9.5t-6.5 27.5q10 63 56 93 t131 30h82q97 0 143.5 -46zM470 204h-318v-14q0 -46 11 -71t36 -36t71 -11h82q46 -1 71 10t36 36.5t11 71.5v14z" glyph-name="uni0259" unicode="ə"/><glyph d="M128 582q0 -7 -2 -15l-1 -2v-1l-49 -120q-4 -9 -11.5 -14t-17.5 -5q-13 0 -22.5 8t-9.5 20q0 8 3 15l34 83q-16 7 -16 31v23q0 35 36 35h22q34 0 34 -35v-23z" glyph-name="uni02BC" horiz-adv-x="213" unicode="ʼ"/><glyph d="M59 537q-9 9 -9 22q0 11 8 21l75 82q16 17 38 17h10q22 0 38 -17l75 -82q8 -10 8 -21q0 -13 -9 -22t-22 -9q-14 0 -23 10l-67 79h-10l-67 -79q-10 -10 -23 -10t-22 9z" glyph-name="circumflex" horiz-adv-x="352" unicode="ˆ"/><glyph d="M104 659l67 -79h10l67 79q9 10 23 10q13 0 22 -9t9 -22q0 -11 -8 -21l-75 -82q-16 -17 -38 -17h-10q-22 0 -38 17l-75 82q-8 10 -8 21q0 13 9 22t22 9t23 -10z" glyph-name="caron" horiz-adv-x="352" unicode="ˇ"/><glyph d="M50 605q0 36 36 36h253q36 0 36 -36t-36 -36h-253q-36 0 -36 36z" glyph-name="uni02C9" horiz-adv-x="425" unicode="ˉ"/><glyph d="M84.5 540.5q-34.5 26.5 -34.5 76.5v16q0 32 32 32t32 -32v-16q0 -23 15 -33t54 -10t54 10t15 33v24q0 24 32 24t32 -32v-16q0 -50 -34.5 -76.5t-98.5 -26.5t-98.5 26.5z" glyph-name="breve" horiz-adv-x="366" unicode="˘"/><glyph d="M61 570.5q-11 11.5 -11 31.5v28q0 41 43 41h26q20 0 30.5 -10.5t10.5 -30.5v-28q0 -20 -11 -31.5t-30 -11.5h-26q-21 0 -32 11.5z" glyph-name="dotaccent" horiz-adv-x="210" unicode="˙"/><glyph d="M70.5 537.5q-20.5 20.5 -20.5 56.5t20.5 56.5t56.5 20.5t56.5 -20.5t20.5 -56.5t-20.5 -56.5t-56.5 -20.5t-56.5 20.5zM147.5 574q3.5 4 3.5 20q0 17 -4 20.5t-20 3.5q-17 0 -20.5 -4t-3.5 -20q0 -17 4 -20.5t20 -3.5q17 0 20.5 4z" glyph-name="ring" horiz-adv-x="254" unicode="˚"/><glyph d="M78.5 -194q-28.5 26 -28.5 64q0 33 24 65l79 104q12 14 24 14q11 0 23 -9.5t12 -22.5q0 -12 -8 -21l-78 -103q-12 -15 -12 -27q0 -11 9.5 -18.5t25.5 -7.5q12 0 22.5 4.5t14.5 6.5q7 3 14 3q17 0 25 -9.5t8 -24.5q0 -14 -14 -22q-33 -22 -70 -22q-42 0 -70.5 26z" glyph-name="ogonek" horiz-adv-x="283" unicode="˛"/><glyph d="M226.5 539.5q-17.5 10.5 -35.5 28.5q-13 14 -21 18.5t-19 4.5q-14 0 -23.5 -7.5t-17.5 -27.5q-8 -23 -26 -23q-4 0 -12 2q-22 6 -22 24q0 7 3 14q16 41 39.5 59.5t58.5 18.5q28 0 46 -11t37 -30q13 -13 20 -17t17 -4q12 0 19.5 7t14.5 24q9 24 27 24q7 0 10 -1 q23 -5 23 -25q0 -8 -2 -12q-14 -39 -36 -58t-56 -19q-27 0 -44.5 10.5z" glyph-name="tilde" horiz-adv-x="415" unicode="˜"/><glyph d="M50 546q0 12 9 22l78 93q10 13 23 13q11 0 22 -9q13 -10 13 -23q0 -11 -9 -22l-78 -93q-10 -13 -23 -13q-11 0 -22 9q-13 10 -13 23zM192 546q0 12 9 22l78 93q10 13 23 13q11 0 22 -9q13 -10 13 -23q0 -11 -9 -22l-78 -93q-10 -13 -23 -13q-11 0 -22 9q-13 10 -13 23z" glyph-name="hungarumlaut" horiz-adv-x="387" unicode="˝"/><glyph d="M-85 534q-13 0 -23 13l-78 93q-9 11 -9 22q0 13 13 23q10 9 22 9q13 0 23 -13l78 -93q9 -10 9 -22q0 -13 -13 -23q-11 -9 -22 -9z" glyph-name="gravecomb" horiz-adv-x="0" unicode="̀"/><glyph d="M-195 579q0 12 9 22l78 93q10 13 23 13q11 0 22 -9q13 -10 13 -23q0 -11 -9 -22l-78 -93q-10 -13 -23 -13q-12 0 -22 9q-13 10 -13 23z" glyph-name="acutecomb" horiz-adv-x="0" unicode="́"/><glyph d="M-293 557q-9 9 -9 22q0 11 8 21l75 82q16 17 38 17h10q22 0 38 -17l75 -82q8 -10 8 -21q0 -13 -9 -22t-22 -9q-14 0 -23 10l-67 79h-10l-67 -79q-10 -10 -23 -10t-22 9z" glyph-name="uni0302" horiz-adv-x="0" unicode="̂"/><glyph d="M-188.5 569.5q-17.5 10.5 -35.5 28.5q-13 14 -21 18.5t-19 4.5q-14 0 -23.5 -7.5t-17.5 -27.5q-8 -23 -26 -23q-4 0 -12 2q-22 6 -22 24q0 7 3 14q16 41 39.5 59.5t58.5 18.5q28 0 46 -11t37 -30q13 -13 20 -17t17 -4q12 0 19.5 7t14.5 24q9 24 27 24q7 0 10 -1 q23 -5 23 -25q0 -8 -2 -12q-14 -39 -36 -58t-56 -19q-27 0 -44.5 10.5z" glyph-name="tildecomb" horiz-adv-x="0" unicode="̃"/><glyph d="M-375 625q0 36 36 36h253q36 0 36 -36t-36 -36h-253q-36 0 -36 36z" glyph-name="uni0304" horiz-adv-x="0" unicode="̄"/><glyph d="M-281.5 570.5q-34.5 26.5 -34.5 76.5v16q0 32 32 32t32 -32v-16q0 -23 15 -33t54 -10t54 10t15 33v24q0 24 32 24t32 -32v-16q0 -50 -34.5 -76.5t-98.5 -26.5t-98.5 26.5z" glyph-name="uni0306" horiz-adv-x="0" unicode="̆"/><glyph d="M-149 590.5q-11 11.5 -11 31.5v28q0 41 43 41h26q20 0 30.5 -10.5t10.5 -30.5v-28q0 -20 -11 -31.5t-30 -11.5h-26q-21 0 -32 11.5z" glyph-name="uni0307" horiz-adv-x="0" unicode="̇"/><glyph d="M-292.5 581.5q-9.5 9.5 -9.5 26.5v23q0 35 36 35h22q34 0 34 -35v-23q0 -17 -9 -26.5t-25 -9.5h-22q-17 0 -26.5 9.5zM-132.5 581.5q-9.5 9.5 -9.5 26.5v23q0 35 36 35h22q34 0 34 -35v-23q0 -17 -9 -26.5t-25 -9.5h-22q-17 0 -26.5 9.5z" glyph-name="uni0308" horiz-adv-x="0" unicode="̈"/><glyph d="M-165 553.5q-6 5.5 -6 19.5q0 28 13.5 43.5t34.5 28.5q14 8 17.5 12t3.5 11q0 22 -7 29.5t-29 7.5t-29 -7.5t-7 -29.5q0 -14 -6 -20t-20 -6t-20 6t-6 20q0 88 88 88t88 -88q0 -26 -13 -41t-33 -27q-15 -9 -19 -14t-4 -13q0 -14 -6 -19.5t-20 -5.5t-20 5.5z" glyph-name="hookabovecomb" horiz-adv-x="0" unicode="̉"/><glyph d="M-183.5 568.5q-20.5 20.5 -20.5 56.5t20.5 56.5t56.5 20.5t56.5 -20.5t20.5 -56.5t-20.5 -56.5t-56.5 -20.5t-56.5 20.5zM-106.5 605q3.5 4 3.5 20q0 17 -4 20.5t-20 3.5q-17 0 -20.5 -4t-3.5 -20q0 -17 4 -20.5t20 -3.5q17 0 20.5 4z" glyph-name="uni030A" horiz-adv-x="0" unicode="̊"/><glyph d="M-337 579q0 12 9 22l78 93q10 13 23 13q11 0 22 -9q13 -10 13 -23q0 -11 -9 -22l-78 -93q-10 -13 -23 -13q-11 0 -22 9q-13 10 -13 23zM-195 579q0 12 9 22l78 93q10 13 23 13q11 0 22 -9q13 -10 13 -23q0 -11 -9 -22l-78 -93q-10 -13 -23 -13q-11 0 -22 9q-13 10 -13 23 z" glyph-name="uni030B" horiz-adv-x="0" unicode="̋"/><glyph d="M-248 689l67 -79h10l67 79q9 10 23 10q13 0 22 -9t9 -22q0 -11 -8 -21l-75 -82q-16 -17 -38 -17h-10q-22 0 -38 17l-75 82q-8 10 -8 21q0 13 9 22t22 9t23 -10z" glyph-name="uni030C" horiz-adv-x="0" unicode="̌"/><glyph d="M-195 565q-13 0 -21 11l-70 84q-8 8 -8 20t11 20q9 8 20 8q13 0 21 -11l70 -84q8 -8 8 -20t-11 -20q-9 -8 -20 -8zM-81 565q-13 0 -21 11l-70 84q-8 8 -8 20t11 20q9 8 20 8q13 0 21 -11l70 -84q8 -8 8 -20t-11 -20q-9 -8 -20 -8z" glyph-name="uni030F" horiz-adv-x="0" unicode="̏"/><glyph d="M-84.5 700.5q34.5 -26.5 34.5 -76.5v-16q0 -32 -32 -32t-32 24v24q0 23 -15 33t-54 10t-54 -10t-15 -33v-16q0 -32 -32 -32t-32 32v16q0 50 34.5 76.5t98.5 26.5t98.5 -26.5z" glyph-name="uni0311" horiz-adv-x="0" unicode="̑"/><glyph d="M-75.5 731.5q7.5 -6.5 5.5 -18.5l-21 -118q-2 -26 -29 -26h-17q-28 0 -28 28v18q0 11 5 18l42 89q9 16 23 16q12 0 19.5 -6.5z" glyph-name="uni0312" horiz-adv-x="0" unicode="̒"/><glyph d="M-173 494q32 0 43.5 7.5t11.5 29.5v25q0 25 34 25t34 -34v-16q0 -50 -34.5 -71.5t-88.5 -21.5v56z" glyph-name="uni031B" horiz-adv-x="0" unicode="̛"/><glyph d="M-132.5 -145.5q-9.5 9.5 -9.5 26.5v23q0 35 36 35h22q34 0 34 -35v-23q0 -17 -9 -26.5t-25 -9.5h-22q-17 0 -26.5 9.5z" glyph-name="dotbelowcomb" horiz-adv-x="0" unicode="̣"/><glyph d="M-292.5 -143.5q-9.5 9.5 -9.5 26.5v23q0 35 36 35h22q34 0 34 -35v-23q0 -17 -9 -26.5t-25 -9.5h-22q-17 0 -26.5 9.5zM-132.5 -143.5q-9.5 9.5 -9.5 26.5v23q0 35 36 35h22q34 0 34 -35v-23q0 -17 -9 -26.5t-25 -9.5h-22q-17 0 -26.5 9.5z" glyph-name="uni0324" horiz-adv-x="0" unicode="̤"/><glyph d="M-29 -96q0 -11 -5 -18l-42 -89q-9 -16 -23 -16q-12 0 -19.5 6.5t-5.5 18.5l21 118q2 26 29 26h17q28 0 28 -28v-18z" glyph-name="uni0326" horiz-adv-x="0" unicode="̦"/><glyph d="M-232.5 -186.5q-23.5 23.5 -23.5 69.5q0 31 31 31t31 -31q0 -20 5.5 -25.5t25.5 -5.5q31 0 41 10t10 41q0 8 -4 13t-18 15q-22 15 -36.5 33t-14.5 51q0 31 31 31t31 -31q0 -11 4.5 -17t19.5 -16q21 -14 35 -31.5t14 -47.5q0 -113 -113 -113q-46 0 -69.5 23.5z" glyph-name="uni0327" horiz-adv-x="0" unicode="̧"/><glyph d="M-204.5 -194q-28.5 26 -28.5 64q0 33 24 65l79 104q12 14 24 14q11 0 23 -9.5t12 -22.5q0 -12 -8 -21l-78 -103q-12 -15 -12 -27q0 -11 9.5 -18.5t25.5 -7.5q12 0 22.5 4.5t14.5 6.5q7 3 14 3q17 0 25 -9.5t8 -24.5q0 -14 -14 -22q-33 -22 -70 -22q-42 0 -70.5 26z" glyph-name="uni0328" horiz-adv-x="0" unicode="̨"/><glyph d="M-281.5 -192.5q-34.5 26.5 -34.5 76.5v16q0 32 32 32t32 -32v-16q0 -23 15 -33t54 -10t54 10t15 33v24q0 24 32 24t32 -32v-16q0 -50 -34.5 -76.5t-98.5 -26.5t-98.5 26.5z" glyph-name="uni032E" horiz-adv-x="0" unicode="̮"/><glyph d="M-375 -115q0 36 36 36h253q36 0 36 -36t-36 -36h-253q-36 0 -36 36z" glyph-name="uni0331" horiz-adv-x="0" unicode="̱"/><glyph d="M-373 270q0 31 31 31h261q31 0 31 -31t-31 -31h-261q-31 0 -31 31z" glyph-name="uni0335" horiz-adv-x="0" unicode="̵"/><glyph d="M-725 268q0 29 29 29h617q29 0 29 -29t-29 -29h-617q-29 0 -29 29z" glyph-name="uni0336" horiz-adv-x="0" unicode="̶"/><glyph d="M-320 208q-14 0 -26 15q-8 11 -8 22q0 14 15 26l233 177q9 8 21 8q16 0 26 -15q9 -12 9 -22q0 -14 -15 -26l-233 -177q-11 -8 -22 -8z" glyph-name="uni0337" horiz-adv-x="0" unicode="̷"/><glyph d="M-531 -49q0 9 6 20l410 671q11 18 27 18q10 0 20 -7q18 -10 18 -27q0 -10 -7 -20l-409 -671q-11 -18 -27 -18q-10 0 -20 7q-18 12 -18 27z" glyph-name="uni0338" horiz-adv-x="0" unicode="̸"/><glyph d="M133 -167.5q-25 11.5 -36.5 41.5t-11.5 86v29q0 30 36 30t36 -30v-47q0 -29 9 -39t36 -10q45 0 45 -36t-45 -36q-44 0 -69 11.5z" glyph-name="uni037A" horiz-adv-x="286" unicode="ͺ"/><glyph d="M175 397q-20 -15 -42 -15t-41 15t-19 36t19.5 36t41.5 15t41.5 -15t19.5 -36t-20 -36zM146 -14q-13 -30 -34 -30q-32 0 -32 35l3 18l24 87q9 31 35 31q22 0 36.5 -10t14.5 -22q0 -13 -7 -26z" glyph-name="uni037E" horiz-adv-x="271" unicode=";"/><glyph d="M185 680q10 -11 10 -24t-3 -24l-49 -135q-10 -30 -37 -30q-15 0 -25.5 9.5t-10.5 21.5q0 13 4 24l49 136q14 33 38 33q14 0 24 -11z" glyph-name="tonos" horiz-adv-x="265" unicode="΄"/><glyph d="M263 810q10 -11 10 -24t-3 -24l-49 -135q-10 -30 -37 -30q-15 0 -25.5 9.5t-10.5 22.5q0 14 4 23l49 136q14 33 38 33q14 0 24 -11zM130 510q-20 -15 -42 -15t-41 15t-19 36t19.5 36t41.5 15t41.5 -15t19.5 -36t-20 -36zM300 510q-20 -15 -42 -15t-41 15t-19 36t19.5 36 t41.5 15t41.5 -15t19.5 -36t-20 -36z" glyph-name="dieresistonos" horiz-adv-x="403" unicode="΅"/><glyph d="M221 782q10 -11 10 -24t-3 -24l-49 -135q-10 -30 -37 -30q-15 0 -25.5 9.5t-10.5 21.5q0 13 4 24l49 136q14 33 38 33q14 0 24 -11zM352 636l237 -599q3 -9 3 -23q0 -13 -11.5 -21.5t-24.5 -8.5q-27 0 -37 28l-69 177h-278l-69 -177q-12 -28 -37 -28q-13 0 -24.5 8.5 t-11.5 21.5q0 14 3 23l237 599h82zM310 532l-109 -271h220z" glyph-name="Alphatonos" horiz-adv-x="616" unicode="Ά"/><glyph d="M167 351q-20 -15 -42 -15t-41 15t-19 36t19.5 36t41.5 15t41.5 -15t19.5 -36t-20 -36z" glyph-name="anoteleia" horiz-adv-x="252" unicode="·"/><glyph d="M127 782q10 -11 10 -24t-3 -24l-49 -135q-10 -30 -37 -30q-15 0 -25.5 9.5t-10.5 21.5q0 13 4 24l49 136q14 33 38 33q14 0 24 -11zM197 322v-250h388q44 0 44 -38q0 -34 -44 -34h-426q-34 0 -34 44v548q0 44 34 44h426q44 0 44 -38q0 -34 -44 -34h-388v-170h265 q50 0 50 -38q0 -34 -50 -34h-265z" glyph-name="Epsilontonos" horiz-adv-x="677" unicode="Έ"/><glyph d="M126 782q10 -11 10 -24t-3 -24l-49 -135q-10 -30 -37 -30q-15 0 -25.5 9.5t-10.5 21.5q0 13 4 24l49 136q14 33 38 33q14 0 24 -11zM200 35q0 -42 -36 -42t-36 42v565q0 43 34 43q38 0 38 -43v-221h360v221q0 43 36 43t36 -43v-565q0 -42 -36 -42t-36 42v272h-360v-272z" glyph-name="Etatonos" horiz-adv-x="716" unicode="Ή"/><glyph d="M125 782q10 -11 10 -24t-3 -24l-49 -135q-11 -30 -37 -30q-15 0 -25.5 9.5t-10.5 21.5q0 13 4 24l49 136q14 33 38 33q14 0 24 -11zM203 33q0 -40 -36 -40t-36 40v569q0 41 36 41t36 -41v-569z" glyph-name="Iotatonos" horiz-adv-x="287" unicode="Ί"/><glyph d="M139 782q10 -11 10 -24t-3 -24l-49 -135q-10 -30 -37 -30q-15 0 -25.5 9.5t-10.5 21.5q0 13 4 24l49 136q13 33 38 33q14 0 24 -11zM597 230q0 -73 -31.5 -127t-88.5 -83t-132 -29q-115 0 -183.5 64t-68.5 175v176q0 111 68.5 175t183.5 64q75 0 132 -29t88.5 -83 t31.5 -127v-176zM345 573q-88 0 -134 -44t-46 -126v-170q0 -82 46.5 -126t133.5 -44t133.5 44t46.5 126v170q0 81 -45 126q-47 44 -135 44z" glyph-name="Omicrontonos" horiz-adv-x="661" unicode="Ό"/><glyph d="M135 782q10 -11 10 -24t-3 -24l-49 -135q-10 -30 -37 -30q-15 0 -25.5 9.5t-10.5 21.5q0 13 4 24l49 136q14 33 38 33q14 0 24 -11zM354 306l-215 277q-10 16 -10 29q0 12 11 21.5t26 9.5t31 -22l195 -256l194 256q18 22 32 22t25.5 -9.5t11.5 -21.5q0 -13 -10 -29 l-214 -277v-274q0 -39 -38 -39q-37 0 -39 39v274z" glyph-name="Upsilontonos" horiz-adv-x="674" unicode="Ύ"/><glyph d="M158 782q10 -11 10 -24t-3 -24l-49 -135q-10 -30 -37 -30q-15 0 -25.5 9.5t-10.5 21.5q0 13 4 24l49 136q14 33 38 33q14 0 24 -11zM375 157q97 19 127 87q14 34 14 80v79q0 81 -46.5 125.5t-133.5 44.5t-133.5 -44.5t-46.5 -125.5v-79q0 -37 10.5 -67.5t25.5 -47.5 q16 -18 41 -30.5t64 -22.5v-51q0 -49 -8 -70.5t-30 -28t-73 -6.5h-57q-45 0 -45 36t45 36h57q22 0 26.5 3.5t4.5 18.5v18q-63 27 -98 83t-35 133v78q0 111 68.5 175t183.5 64q75 0 132 -29t88.5 -83t31.5 -127v-78q0 -77 -35 -133t-98 -83v-23q0 -12 4 -14.5t25 -2.5h59 q45 0 45 -36t-45 -36h-57q-51 0 -73 6.5t-30 27.5t-8 71v52z" glyph-name="Omegatonos" horiz-adv-x="652" unicode="Ώ"/><glyph d="M197 810q10 -11 10 -24t-3 -24l-49 -135q-10 -30 -37 -30q-15 0 -25.5 9.5t-10.5 22.5q0 14 4 23l49 136q14 33 38 33q14 0 24 -11zM64 510q-20 -15 -42 -15t-41 15t-19 36t19.5 36t41.5 15t41.5 -15t19.5 -36t-20 -36zM234 510q-20 -15 -42 -15t-41 15t-19 36t19.5 36 t41.5 15t41.5 -15t19.5 -36t-20 -36zM180 0q-63 0 -86.5 29.5t-23.5 100.5v296q0 42 36 42t36 -42v-308q0 -27 9 -36.5t36 -9.5q45 0 45 -36t-45 -36h-7z" glyph-name="iotadieresistonos" horiz-adv-x="250" unicode="ΐ"/><glyph d="M346 636l237 -599q3 -9 3 -23q0 -13 -11.5 -21.5t-24.5 -8.5q-27 0 -37 28l-69 177h-278l-69 -177q-12 -28 -37 -28q-13 0 -24.5 8.5t-11.5 21.5q0 14 3 23l237 599h82zM304 532l-109 -271h220z" glyph-name="Alpha" horiz-adv-x="610" unicode="Α"/><glyph d="M84 592q0 44 34 44h188q126 0 183 -35.5t57 -125.5q0 -72 -40 -109q82 -40 82 -163v-19q0 -72 -25.5 -112t-79.5 -56t-147 -16h-218q-34 0 -34 44v548zM306 384q67 0 102.5 7t50.5 26t15 55t-15 54.5t-50 25.5t-103 7h-150v-175h150zM156 312v-240h180q78 0 114.5 8 t51 31t14.5 73v16q0 49 -13.5 72.5t-47 31.5t-101.5 8h-198z" glyph-name="Beta" horiz-adv-x="644" unicode="Β"/><glyph d="M199 564q-27 0 -36 -10t-9 -37v-482q0 -42 -36 -42t-36 42v468q0 73 24 103t86 30h335q45 0 45 -36t-45 -36h-328z" glyph-name="Gamma" horiz-adv-x="595" unicode="Γ"/><glyph d="M62 0q-15 0 -26 9.5t-11 21.5t3 21l227 563q11 29 41 29t41 -29l227 -563q3 -9 3 -21t-11 -21.5t-26 -9.5h-468zM112 73h368l-184 463z" glyph-name="uni0394" horiz-adv-x="592" unicode="Δ"/><glyph d="M156 322v-250h388q44 0 44 -38q0 -34 -44 -34h-426q-34 0 -34 44v548q0 44 34 44h426q44 0 44 -38q0 -34 -44 -34h-388v-170h265q50 0 50 -38q0 -34 -50 -34h-265z" glyph-name="Epsilon" horiz-adv-x="636" unicode="Ε"/><glyph d="M50 0v64l411 500h-366q-46 0 -46 36t46 36h458v-67l-409 -497h364q45 0 45 -36t-45 -36h-458z" glyph-name="Zeta" horiz-adv-x="602" unicode="Ζ"/><glyph d="M156 35q0 -42 -36 -42t-36 42v565q0 43 34 43q38 0 38 -43v-221h360v221q0 43 36 43t36 -43v-565q0 -42 -36 -42t-36 42v272h-360v-272z" glyph-name="Eta" horiz-adv-x="672" unicode="Η"/><glyph d="M568 230q0 -73 -31.5 -127t-88.5 -83t-132 -29q-115 0 -183.5 64t-68.5 175v176q0 111 68.5 175t183.5 64q75 0 132 -29t88.5 -83t31.5 -127v-176zM316 573q-88 0 -134 -44t-46 -126v-170q0 -82 46.5 -126t133.5 -44t133.5 44t46.5 126v170q0 81 -45 126q-47 44 -135 44z M220 281q-20 0 -32 10.5t-12 26.5q0 36 44 36h189q21 0 34 -10t13 -26t-13.5 -26.5t-33.5 -10.5h-189z" glyph-name="Theta" horiz-adv-x="632" unicode="Θ"/><glyph d="M156 33q0 -40 -36 -40t-36 40v569q0 41 36 41t36 -41v-569z" glyph-name="Iota" horiz-adv-x="240" unicode="Ι"/><glyph d="M541 55q13 -14 13 -28q0 -13 -12 -23.5t-26 -10.5q-15 0 -31 19l-286 304l-43 -52v-229q0 -42 -36 -42t-36 40v569q0 41 36 41q16 0 26 -10.5t10 -32.5v-254l263 278q16 19 32 19q15 0 25.5 -9.5t10.5 -23.5q0 -15 -12 -29l-224 -227z" glyph-name="Kappa" horiz-adv-x="560" unicode="Κ"/><glyph d="M26 28l241 608h74l241 -608q3 -9 3 -24q0 -20 -36 -20q-13 0 -23.5 6.5t-13.5 13.5l-209 523l-207 -523q-8 -20 -40 -20q-31 0 -33 20q0 15 3 24z" glyph-name="Lambda" horiz-adv-x="608" unicode="Λ"/><glyph d="M374 291q-12 -12 -27 -12q-16 0 -28 12l-163 232v-485q0 -45 -36 -45t-36 42v565q0 43 34 43q21 0 38 -23l190 -266l191 266q17 23 37 23q35 0 35 -43v-565q0 -42 -36 -42t-36 45v485z" glyph-name="Mu" horiz-adv-x="693" unicode="Μ"/><glyph d="M525 0l-369 517v-485q0 -39 -36 -39t-36 42v565q0 43 34 43q21 0 38 -23l360 -502v479q0 46 36 46t36 -43v-565q0 -42 -35 -42q-24 0 -28 7z" glyph-name="Nu" horiz-adv-x="672" unicode="Ν"/><glyph d="M89 575q-41 0 -41 36q0 14 10.5 25t30.5 11h460q22 0 33 -10.5t11 -26.5t-10.5 -25.5t-33.5 -9.5h-460zM209 281q-20 0 -32 10.5t-12 26.5q0 35 44 35h219q21 0 34 -9.5t13 -25.5t-13.5 -26.5t-33.5 -10.5h-219zM89 0q-41 0 -41 36q0 14 10.5 25t30.5 11h460q22 0 33 -11 t11 -27q0 -15 -10.5 -24.5t-33.5 -9.5h-460z" glyph-name="Xi" horiz-adv-x="641" unicode="Ξ"/><glyph d="M568 230q0 -73 -31.5 -127t-88.5 -83t-132 -29q-115 0 -183.5 64t-68.5 175v176q0 111 68.5 175t183.5 64q75 0 132 -29t88.5 -83t31.5 -127v-176zM316 573q-88 0 -134 -44t-46 -126v-170q0 -82 46.5 -126t133.5 -44t133.5 44t46.5 126v170q0 81 -45 126q-47 44 -135 44z" glyph-name="Omicron" horiz-adv-x="632" unicode="Ο"/><glyph d="M85 636h494v-601q0 -42 -36 -42t-36 42v529h-350v-529q0 -42 -36 -42t-36 42v601z" glyph-name="Pi" horiz-adv-x="664" unicode="Π"/><glyph d="M156 33q0 -40 -36 -40t-36 40v564q0 44 34 44h191q123 0 180 -35t57 -117q0 -83 -49 -125t-140 -42h-201v-289zM309 394q102 0 133 18q32 17 32 70q0 36 -14.5 54.5t-49 25.5t-101.5 7h-153v-175h153z" glyph-name="Rho" horiz-adv-x="580" unicode="Ρ"/><glyph d="M73 647h460q22 0 33 -11t11 -26t-11 -25t-33 -10h-386l222 -224l5 -5q10 -10 10 -22t-14 -29l-223 -223h386q22 0 33 -11t11 -26t-11 -25t-33 -10h-466q-14 0 -24.5 9.5t-10.5 23.5t12 29l247 261l-247 261q-12 12 -12 29q0 34 41 34z" glyph-name="Sigma" horiz-adv-x="619" unicode="Σ"/><glyph d="M450 636q43 0 43 -36t-43 -36h-148v-531q0 -20 -12.5 -30t-30.5 -10q-17 0 -28.5 10t-11.5 30v531h-150q-22 0 -32.5 10t-10.5 26t10.5 26t32.5 10h381z" glyph-name="Tau" horiz-adv-x="520" unicode="Τ"/><glyph d="M243 306l-215 277q-10 16 -10 29q0 12 11 21.5t26 9.5t31 -22l195 -256l194 256q18 22 32 22t25.5 -9.5t11.5 -21.5q0 -13 -10 -29l-214 -277v-274q0 -39 -38 -39q-37 0 -39 39v274z" glyph-name="Upsilon" horiz-adv-x="563" unicode="Υ"/><glyph d="M336 33q0 -40 -41 -40q-16 0 -27 10.5t-11 29.5v41q-100 11 -157.5 74t-57.5 164v12q0 101 57.5 164t157.5 74v42q0 39 40 39q39 0 39 -41v-40q97 -12 153.5 -75t56.5 -163v-12q0 -100 -56.5 -163t-153.5 -75v-41zM114 312q0 -156 143 -176v364q-71 -9 -107 -54.5 t-36 -121.5v-12zM474 324q0 74 -35.5 119.5t-102.5 55.5v-362q67 9 102.5 54.5t35.5 120.5v12z" glyph-name="Phi" horiz-adv-x="588" unicode="Φ"/><glyph d="M497 621q16 22 31 22t26.5 -9t11.5 -23q0 -16 -10 -29l-205 -265l205 -264q10 -11 10 -27q0 -15 -11 -24t-27 -9q-14 0 -31 20l-195 257l-194 -257q-15 -20 -31 -20t-27 9t-11 24q0 14 10 27l205 264l-205 265q-10 11 -10 29q0 13 10 23t25 10h2q18 0 32 -23l194 -256z" glyph-name="Chi" horiz-adv-x="605" unicode="Χ"/><glyph d="M480 600q0 22 10.5 32.5t26.5 10.5q35 0 35 -41v-149q0 -100 -58 -163t-156 -75v-182q0 -40 -37 -40t-37 40v182q-99 11 -157.5 74t-58.5 164v149q0 41 36 41q16 0 26 -10.5t10 -32.5v-146q0 -148 144 -166v312q0 43 37 43t37 -43v-311q142 18 142 165v146z" glyph-name="Psi" horiz-adv-x="600" unicode="Ψ"/><glyph d="M355 157q97 19 127 87q14 34 14 80v79q0 81 -46.5 125.5t-133.5 44.5t-133.5 -44.5t-46.5 -125.5v-79q0 -37 10.5 -67.5t25.5 -47.5q16 -18 41 -30.5t64 -22.5v-51q0 -49 -8 -70.5t-30 -28t-73 -6.5h-57q-45 0 -45 36t45 36h57q22 0 26.5 3.5t4.5 18.5v18q-63 27 -98 83 t-35 133v78q0 111 68.5 175t183.5 64q75 0 132 -29t88.5 -83t31.5 -127v-78q0 -77 -35 -133t-98 -83v-23q0 -12 4 -14.5t25 -2.5h59q45 0 45 -36t-45 -36h-57q-51 0 -73 6.5t-30 27.5t-8 71v52z" glyph-name="uni03A9" horiz-adv-x="632" unicode="Ω"/><glyph d="M76 721q-20 -15 -42 -15t-41 15t-19 36t19.5 36t41.5 15t41.5 -15t19.5 -36t-20 -36zM246 721q-20 -15 -42 -15t-41 15t-19 36t19.5 36t41.5 15t41.5 -15t19.5 -36t-20 -36zM156 33q0 -40 -36 -40t-36 40v569q0 41 36 41t36 -41v-569z" glyph-name="Iotadieresis" horiz-adv-x="240" unicode="Ϊ"/><glyph d="M237 721q-20 -15 -42 -15t-41 15t-19 36t19.5 36t41.5 15t41.5 -15t19.5 -36t-20 -36zM407 721q-20 -15 -42 -15t-41 15t-19 36t19.5 36t41.5 15t41.5 -15t19.5 -36t-20 -36zM243 306l-215 277q-10 16 -10 29q0 12 11 21.5t26 9.5t31 -22l195 -256l194 256q18 22 32 22 t25.5 -9.5t11.5 -21.5q0 -13 -10 -29l-214 -277v-274q0 -39 -38 -39q-37 0 -39 39v274z" glyph-name="Upsilondieresis" horiz-adv-x="563" unicode="Ϋ"/><glyph d="M380 732q10 -11 10 -24t-3 -24l-49 -135q-10 -30 -37 -30q-15 0 -25.5 9.5t-10.5 21.5q0 13 4 24l49 136q14 33 38 33q14 0 24 -11zM542 0q-78 0 -100 52q-62 -52 -171 -52q-110 0 -161 46t-51 152v65q0 106 50.5 152t155.5 46q103 0 164 -42q0 49 39 49q36 0 36 -42 v-308q0 -27 9 -36.5t36 -9.5q45 0 45 -36t-45 -36h-7zM429 263q0 68 -39.5 97t-120.5 29q-54 0 -83.5 -10.5t-42 -37.5t-12.5 -78v-65q0 -51 12.5 -78t42 -37.5t83.5 -10.5q81 0 120.5 29t39.5 97v65z" glyph-name="alphatonos" horiz-adv-x="625" unicode="ά"/><glyph d="M384 732q10 -11 10 -24t-3 -24l-49 -135q-10 -30 -37 -30q-15 0 -25.5 9.5t-10.5 21.5q0 13 4 24l49 136q14 33 38 33q14 0 24 -11zM261 202q-69 0 -98.5 -18.5t-29.5 -63.5q0 -48 132 -48h106q52 0 93.5 14.5t41.5 52.5q0 45 36 45t36 -45q0 -139 -200 -139h-120 q-197 0 -197 130q0 70 50 105q-50 27 -50 96q0 130 197 130h120q200 0 200 -139q0 -45 -36 -45t-36 45q0 21 -14.5 35.5t-39.5 20.5q-46 11 -81 11h-106q-133 0 -133 -48q0 -27 11.5 -41t39 -20t78.5 -6h69q46 0 46 -38q0 -34 -46 -34h-69z" glyph-name="epsilontonos" horiz-adv-x="635" unicode="έ"/><glyph d="M412 738q10 -11 10 -24t-3 -24l-49 -135q-10 -30 -37 -30q-15 0 -25.5 9.5t-10.5 21.5q0 13 4 24l49 136q14 33 38 33q14 0 24 -11zM508 277q0 49 -14.5 72.5t-50.5 31.5t-111 8q-101 0 -143.5 -41t-42.5 -119v-194q0 -42 -36 -42t-36 42v390q0 43 34 43q38 0 38 -46v-11 q62 50 189 50q88 0 141 -16t78.5 -55t25.5 -110v-440q0 -45 -36 -45t-36 45v437z" glyph-name="etatonos" horiz-adv-x="651" unicode="ή"/><glyph d="M195 729q10 -11 10 -24t-3 -24l-49 -135q-10 -30 -37 -30q-15 0 -25.5 9.5t-10.5 21.5q0 13 4 24l49 136q14 33 38 33q14 0 24 -11zM180 0q-63 0 -86.5 29.5t-23.5 100.5v296q0 42 36 42t36 -42v-308q0 -27 9 -36.5t36 -9.5q45 0 45 -36t-45 -36h-7z" glyph-name="iotatonos" horiz-adv-x="250" unicode="ί"/><glyph d="M402 808q10 -11 10 -24t-3 -24l-49 -135q-10 -30 -37 -30q-15 0 -25.5 9.5t-10.5 22.5q0 14 4 23l49 136q14 33 38 33q14 0 24 -11zM269 508q-20 -15 -42 -15t-41 15t-19 36t19.5 36t41.5 15t41.5 -15t19.5 -36t-20 -36zM439 508q-20 -15 -42 -15t-41 15t-19 36t19.5 36 t41.5 15t41.5 -15t19.5 -36t-20 -36zM557 178q0 -73 -22.5 -111t-72 -52.5t-141.5 -14.5t-145.5 15.5t-79.5 54t-26 108.5v248q0 42 36 42t36 -42v-245q0 -48 15 -71t51.5 -30.5t113.5 -7.5q76 0 108.5 7t43.5 29t11 73v245q0 42 36 42t36 -42v-248z" glyph-name="upsilondieresistonos" horiz-adv-x="626" unicode="ΰ"/><glyph d="M542 0q-78 0 -100 52q-62 -52 -171 -52q-110 0 -161 46t-51 152v65q0 106 50.5 152t155.5 46q103 0 164 -42q0 49 39 49q36 0 36 -42v-308q0 -27 9 -36.5t36 -9.5q45 0 45 -36t-45 -36h-7zM429 263q0 68 -39.5 97t-120.5 29q-54 0 -83.5 -10.5t-42 -37.5t-12.5 -78v-65 q0 -51 12.5 -78t42 -37.5t83.5 -10.5q81 0 120.5 29t39.5 97v65z" glyph-name="alpha" horiz-adv-x="625" unicode="α"/><glyph d="M148 -101q0 -46 -38 -46q-34 0 -34 46v562q1 95 46.5 135t131.5 40q82 0 131 -42.5t49 -116.5t-62 -124q55 -22 81 -68.5t26 -103.5q0 -188 -189 -188q-86 0 -142 42v-136zM148 136q61 -73 140 -73q66 0 92.5 29t26.5 98q0 66 -52.5 95t-156.5 29v68q81 0 122.5 22.5 t41.5 79.5q0 37 -31 58.5t-84 21.5q-38 0 -58.5 -7.5t-30.5 -30t-10 -65.5v-325z" glyph-name="beta" horiz-adv-x="530" unicode="β"/><glyph d="M35.5 399q-10.5 10 -10.5 26t11 26t35 10q45 0 78 -33q15 -15 33 -57q20 -46 58 -164l47 -143l182 377q14 27 37 27q13 0 23.5 -8.5t10.5 -17.5q0 -10 -3 -21l-218 -439v-119q0 -45 -41 -45q-38 0 -38 45l1 118q-105 305 -130 356q-25 52 -43 52q-22 0 -32.5 10z" glyph-name="gamma" horiz-adv-x="568" unicode="γ"/><glyph d="M117 566q-22 9 -22 35q0 14 10.5 25t30.5 11h343q22 0 33 -11t11 -28q0 -15 -12 -24.5t-32 -9.5h-162q237 -102 237 -357q0 -99 -67.5 -156.5t-184.5 -57.5q-63 0 -114.5 22t-82.5 59q-60 74 -60 164q0 68 42.5 122.5t104.5 78.5q57 22 102 22t64 -4q-57 44 -148 75z M140.5 148.5q22.5 -38.5 65 -60.5t99.5 -22q176 0 176 151q0 75 -44.5 123.5t-118.5 48.5q-51 0 -97 -19t-74.5 -54t-28.5 -81q0 -48 22.5 -86.5z" glyph-name="delta" horiz-adv-x="606" unicode="δ"/><glyph d="M261 202q-69 0 -98.5 -18.5t-29.5 -63.5q0 -48 132 -48h106q52 0 93.5 14.5t41.5 52.5q0 45 36 45t36 -45q0 -139 -200 -139h-120q-197 0 -197 130q0 70 50 105q-50 27 -50 96q0 130 197 130h120q200 0 200 -139q0 -45 -36 -45t-36 45q0 21 -14.5 35.5t-39.5 20.5 q-46 11 -81 11h-106q-133 0 -133 -48q0 -27 11.5 -41t39 -20t78.5 -6h69q46 0 46 -38q0 -34 -46 -34h-69z" glyph-name="epsilon" horiz-adv-x="635" unicode="ε"/><glyph d="M432 -18q-30 11 -136 11q-72 0 -127 26t-86 74.5t-31 113.5q0 257 240 357h-165q-20 0 -32 9.5t-12 24.5q0 17 11 28t33 11h343q20 0 30.5 -11t10.5 -25q0 -24 -10 -32.5t-27.5 -13.5t-23.5 -7q-29 -9 -54.5 -18t-58.5 -24q-36 -17 -62.5 -34t-56.5 -43q-29 -26 -49 -57 q-44 -70 -44 -159q0 -71 45 -109t134 -38q93 0 132 -9q38 -9 56 -23q39 -35 39 -103q0 -30 -13 -55.5t-33 -40t-39 -14.5q-14 0 -23.5 11t-9.5 27q0 15 23 33q23 17 23 32q0 46 -27 58z" glyph-name="zeta" horiz-adv-x="547" unicode="ζ"/><glyph d="M508 277q0 49 -14.5 72.5t-50.5 31.5t-111 8q-101 0 -143.5 -41t-42.5 -119v-194q0 -42 -36 -42t-36 42v390q0 43 34 43q38 0 38 -46v-11q62 50 189 50q88 0 141 -16t78.5 -55t25.5 -110v-440q0 -45 -36 -45t-36 45v437z" glyph-name="eta" horiz-adv-x="651" unicode="η"/><glyph d="M500 230q0 -239 -217 -239t-217 239v176q0 239 217 239t217 -239v-176zM283 573q-73 0 -109 -39.5t-36 -127.5v-52h290v52q0 89 -36 128q-37 39 -109 39zM428 281h-290v-51q0 -88 36 -127.5t109 -39.5t109 39.5t36 127.5v51z" glyph-name="theta" horiz-adv-x="566" unicode="θ"/><glyph d="M180 0q-63 0 -86.5 29.5t-23.5 100.5v296q0 42 36 42t36 -42v-308q0 -27 9 -36.5t36 -9.5q45 0 45 -36t-45 -36h-7z" glyph-name="iota" horiz-adv-x="250" unicode="ι"/><glyph d="M449 58q18 -13 18 -28t-10 -26t-24 -11q-15 0 -29 9l-259 192v-162q0 -39 -36 -39t-36 39v396q0 20 10.5 30t25.5 10t25.5 -10t10.5 -30v-158l258 191q11 10 28 10q15 0 25.5 -11t10.5 -26q0 -16 -19 -29l-249 -173z" glyph-name="kappa" horiz-adv-x="501" unicode="κ"/><glyph d="M282 404l-182 -384q-12 -27 -38 -27q-13 0 -23.5 8.5t-10.5 18.5t3 20l207 424l-21 47q-9 23 -30 38t-42 15q-20 0 -32 9.5t-12 24.5q0 39 53 39q35 0 71 -23t54 -61l217 -436q10 -22 28 -36t38 -14t31.5 -9.5t11.5 -24.5q0 -39 -52 -39q-34 0 -68.5 23t-51.5 61z" glyph-name="lambda" horiz-adv-x="626" unicode="λ"/><glyph d="M449 438q0 45 36 45t36 -45v-414q0 -46 -36 -46t-36 46v11q-61 -50 -151 -50t-151 50v-194q0 -46 -38 -46q-34 0 -34 46v597q0 45 36 45t36 -45v-210q0 -83 38.5 -127t112.5 -44t112.5 44t38.5 127v210z" glyph-name="uni03BC" horiz-adv-x="594" unicode="μ"/><glyph d="M214 0l-180 432q-4 9 -4 22q0 12 10.5 20.5t23.5 8.5q25 0 38 -28l162 -379l168 380q12 27 38 27q34 0 34 -33q0 -10 -4 -18l-191 -432h-95z" glyph-name="nu" horiz-adv-x="533" unicode="ν"/><glyph d="M261 69q29 -3 82 -3q34 0 57.5 -2t49.5 -8q34 -9 48 -22q39 -35 39 -103q0 -30 -13 -55.5t-33 -40t-39 -14.5q-14 0 -23.5 11t-9.5 27q0 15 23 33q23 17 23 32q0 31 -11.5 45.5t-38.5 19t-81 4.5q-76 0 -115.5 6t-78.5 24q-80 38 -80 154q0 38 18.5 80t44.5 67 q-27 21 -45 60t-18 78q0 62 43 102h-21q-41 0 -41 36t41 36h341q44 0 44 -37q0 -16 -12 -25.5t-32 -9.5q-292 0 -292 -102q0 -95 108 -95h98q52 0 52 -38q0 -33 -52 -33h-98q-47 0 -77 -37.5t-30 -91.5q0 -32 18.5 -54t49.5 -31q32 -10 61 -13z" glyph-name="xi" horiz-adv-x="546" unicode="ξ"/><glyph d="M314 0q-93 0 -147.5 15.5t-80 54t-25.5 108.5v105q0 70 25.5 108.5t80 54t147.5 15.5h29q93 0 147 -15.5t79.5 -54t25.5 -108.5v-105q0 -70 -25.5 -108.5t-79.5 -54t-147 -15.5h-29zM343 72q79 0 115.5 7.5t50.5 30t14 71.5v99q0 49 -14 71.5t-50.5 30t-115.5 7.5h-29 q-79 0 -116 -7.5t-51 -30t-14 -71.5v-99q0 -49 14 -71.5t51 -30t116 -7.5h29z" glyph-name="omicron" horiz-adv-x="656" unicode="ο"/><glyph d="M440 389h-277v-354q0 -42 -36 -42t-36 42v354h-5q-22 0 -32.5 10t-10.5 26t10.5 26t32.5 10h434q43 0 43 -36t-43 -36h-5v-272q0 -27 9 -36t36 -9q45 0 45 -36t-45 -36h-8q-63 0 -87.5 30t-24.5 100v259z" glyph-name="pi" horiz-adv-x="640" unicode="π"/><glyph d="M64 213q0 130 63 189t195 59q90 0 143.5 -15.5t79.5 -54.5t26 -108v-105q0 -70 -25.5 -108.5t-79 -54t-144.5 -15.5h-186v-137q0 -45 -38 -45q-34 0 -34 45v350zM499 280q0 49 -14.5 71.5t-50 30t-111.5 7.5q-102 0 -144.5 -40t-42.5 -117v-160h186q77 0 113 7.5t50 30 t14 71.5v99z" glyph-name="rho" horiz-adv-x="632" unicode="ρ"/><glyph d="M396 57q39 -9 56 -23q40 -34 40 -106q0 -28 -13 -53t-33 -39.5t-39 -14.5q-14 0 -23.5 11t-9.5 27q0 15 23 33q23 17 23 32q0 46 -27 58q-30 11 -133 11q-104 0 -159 63.5t-55 173.5q0 111 102.5 174.5t298.5 63.5q20 0 32 -9.5t12 -24.5q0 -17 -11 -28t-33 -11h-6 q-220 0 -289 -79q-33 -37 -33 -84q0 -166 143 -166q95 0 134 -9z" glyph-name="uni03C2" horiz-adv-x="531" unicode="ς"/><glyph d="M575 461q45 0 45 -36t-45 -36h-67q49 -55 50 -139l1 -73q0 -58 -12.5 -92.5t-41.5 -52.5t-66.5 -25t-102.5 -7h-22q-93 0 -147.5 15.5t-80 54t-25.5 108.5v105q0 70 25.5 108.5t80 54t147.5 15.5h261zM486 250q0 70 -44.5 104.5t-141.5 34.5q-70 0 -104 -7.5t-48.5 -30.5 t-14.5 -71v-99q0 -49 14 -71.5t51 -30t116 -7.5h22q71 0 100.5 7t39.5 28.5t10 73.5v69z" glyph-name="sigma" horiz-adv-x="656" unicode="σ"/><glyph d="M265 12.5q-27 12.5 -38.5 40.5t-11.5 77v259h-151q-22 0 -32.5 10t-10.5 26t10.5 26t32.5 10h381q43 0 43 -36t-43 -36h-158v-272q0 -27 12 -36t49 -9q38 0 53.5 -7.5t15.5 -28.5q0 -20 -17 -28q-19 -8 -58 -8q-50 0 -77 12.5z" glyph-name="tau" horiz-adv-x="520" unicode="τ"/><glyph d="M557 178q0 -73 -22.5 -111t-72 -52.5t-141.5 -14.5t-145.5 15.5t-79.5 54t-26 108.5v248q0 42 36 42t36 -42v-245q0 -48 15 -71t51.5 -30.5t113.5 -7.5q76 0 108.5 7t43.5 29t11 73v245q0 42 36 42t36 -42v-248z" glyph-name="upsilon" horiz-adv-x="626" unicode="υ"/><glyph d="M536.5 445q33.5 -16 50.5 -54.5t17 -107.5v-105q0 -114 -72 -150q-34 -17 -69 -22.5t-92 -5.5v-137q0 -45 -39 -45t-39 45v137q-117 3 -174 43t-57 135v125q0 71 34.5 114.5t105.5 43.5q50 0 50 -36t-50 -36h-19q-23 0 -36 -28t-13 -74v-97q0 -46 14 -70.5t48 -35 t97 -12.5v129q0 138 20 180q24 51 56.5 65.5t79.5 14.5q54 0 87.5 -16zM389 351q-18 -37 -18 -134v-145q66 0 99 8.5t47.5 33.5t14.5 76v81q0 100 -34 113q-13 5 -36 5h-8q-47 0 -65 -38z" glyph-name="phi" horiz-adv-x="666" unicode="φ"/><glyph d="M428 445q15 23 31 23q15 0 27 -9.5t12 -22.5t-9 -27l-163 -249l105 -209q26 -53 65 -53q20 0 32 -9.5t12 -24.5q0 -39 -52 -39q-34 0 -68.5 23t-51.5 61l-91 187l-159 -250q-15 -24 -29 -24q-16 0 -28.5 9t-12.5 24q0 14 9 28l180 281l-92 181q-10 21 -29 35.5t-37 14.5 q-19 0 -31 9.5t-12 24.5q0 39 52 39q34 0 68.5 -23t51.5 -61l79 -160z" glyph-name="chi" horiz-adv-x="562" unicode="χ"/><glyph d="M495 425q0 22 10.5 32.5t26.5 10.5q35 0 35 -40v-200q0 -98 -58.5 -160.5t-156.5 -73.5v-92q0 -42 -36 -42t-36 42v91q-100 11 -158.5 73t-58.5 162v200q0 20 10.5 30t25.5 10q16 0 26 -10.5t10 -32.5v-184q0 -75 37.5 -121t107.5 -55v486q0 43 36 43t36 -43v-485 q69 10 106 56t37 119v184z" glyph-name="psi" horiz-adv-x="630" unicode="ψ"/><glyph d="M228 -7q-50 0 -88 22t-58 58t-20 78v157q0 70 35.5 115t103.5 45q50 0 50 -36t-50 -36q-20 0 -34.5 -10.5t-20.5 -29.5q-12 -31 -12 -56v-141q0 -44 22 -69t55 -25q100 0 100 99v101q0 45 42 45q41 0 41 -45v-101q0 -99 100 -99q33 0 55 25t22 69v141q0 35 -16 65.5 t-56 30.5q-45 0 -45 36t50 36q68 0 103.5 -45t35.5 -115v-157q0 -42 -20 -78t-57.5 -58t-87.5 -22q-78 0 -125 54q-46 -54 -125 -54z" glyph-name="omega" horiz-adv-x="705" unicode="ω"/><glyph d="M74 539q-20 -15 -42 -15t-41 15t-19 36t19.5 36t41.5 15t41.5 -15t19.5 -36t-20 -36zM244 539q-20 -15 -42 -15t-41 15t-19 36t19.5 36t41.5 15t41.5 -15t19.5 -36t-20 -36zM180 0q-63 0 -86.5 29.5t-23.5 100.5v296q0 42 36 42t36 -42v-308q0 -27 9 -36.5t36 -9.5 q45 0 45 -36t-45 -36h-7z" glyph-name="iotadieresis" horiz-adv-x="250" unicode="ϊ"/></font>
</defs>
</svg>
